<svg id="questionnaire" xmlns="http://www.w3.org/2000/svg" width="153" height="153" viewBox="0 0 153 153">
  <path id="Trazado_147833" data-name="Trazado 147833" d="M408,408h28.688v14.344a14.344,14.344,0,0,1-14.344,14.344H408Zm0,0" transform="translate(-286.078 -286.078)" fill="#c3b5ec"/>
  <path id="Trazado_147834" data-name="Trazado 147834" d="M127.531,8H8V141.875a14.344,14.344,0,0,0,14.344,14.344H141.875a14.344,14.344,0,0,1-14.344-14.344Zm0,0" transform="translate(-5.609 -5.609)" fill="#ffd69f"/>
  <g id="Grupo_85232" data-name="Grupo 85232" transform="translate(16.734 16.734)">
    <path id="Trazado_147835" data-name="Trazado 147835" d="M369.375,196.688A28.688,28.688,0,1,1,340.688,168,28.687,28.687,0,0,1,369.375,196.688Zm0,0" transform="translate(-235.5 -134.531)" fill="#ff7758"/>
    <path id="Trazado_147836" data-name="Trazado 147836" d="M72,56h81.281V70.344H72Zm0,0" transform="translate(-67.219 -56)" fill="#c3b5ec"/>
    <path id="Trazado_147837" data-name="Trazado 147837" d="M56,152H79.906v23.906H56Zm0,0" transform="translate(-56 -123.312)" fill="#c3b5ec"/>
    <path id="Trazado_147838" data-name="Trazado 147838" d="M56,264H79.906v23.906H56Zm0,0" transform="translate(-56 -201.844)" fill="#c3b5ec"/>
    <path id="Trazado_147839" data-name="Trazado 147839" d="M56,376H79.906v23.906H56Zm0,0" transform="translate(-56 -280.375)" fill="#c3b5ec"/>
  </g>
  <path id="Trazado_147840" data-name="Trazado 147840" d="M382.344,231.078h-4.781v-7.172a7.172,7.172,0,0,1,7.172-7.172,4.781,4.781,0,0,0,4.781-4.781v-2.391a4.781,4.781,0,0,0-4.781-4.781h-7.172a4.781,4.781,0,0,0-4.781,4.781v2.391H368v-2.391A9.563,9.563,0,0,1,377.563,200h7.172a9.563,9.563,0,0,1,9.563,9.563v2.391a9.563,9.563,0,0,1-9.562,9.563,2.391,2.391,0,0,0-2.391,2.391Zm0,0" transform="translate(-258.031 -140.234)" fill="#fff"/>
  <path id="Trazado_147841" data-name="Trazado 147841" d="M400,320h4.781v4.781H400Zm0,0" transform="translate(-280.469 -224.375)" fill="#fff"/>
  <path id="Trazado_147843" data-name="Trazado 147843" d="M457.562,441.563h-4.781v-4.781H448V432h9.563Zm0,0" transform="translate(-314.125 -302.906)" fill="#fff"/>
  <path id="Trazado_147844" data-name="Trazado 147844" d="M153,78.891a31.1,31.1,0,0,0-28.687-30.957V0H0V136.266A16.753,16.753,0,0,0,16.734,153H136.266A16.753,16.753,0,0,0,153,136.266V119.531H124.313v-9.684A31.1,31.1,0,0,0,153,78.891ZM16.734,148.219A11.967,11.967,0,0,1,4.781,136.266V4.781h114.75V47.934a31.048,31.048,0,0,0,0,61.918v26.414a16.668,16.668,0,0,0,5.046,11.953Zm131.484-23.906v11.953a11.953,11.953,0,0,1-23.906,0V124.313Zm-26.3-19.125a26.3,26.3,0,1,1,26.3-26.3A26.3,26.3,0,0,1,121.922,105.188Zm0,0"/>
  <path id="Trazado_147845" data-name="Trazado 147845" d="M72,48h81.281v4.781H72Zm0,0" transform="translate(-50.484 -33.656)"/>
  <path id="Trazado_147846" data-name="Trazado 147846" d="M72,96h81.281v4.781H72Zm0,0" transform="translate(-50.484 -67.312)"/>
  <path id="Trazado_147847" data-name="Trazado 147847" d="M48,172.688H76.688V144H48Zm4.781-23.906H71.906v19.125H52.781Zm0,0" transform="translate(-33.656 -100.969)"/>
  <path id="Trazado_147848" data-name="Trazado 147848" d="M48,284.688H76.688V256H48Zm4.781-23.906H71.906v19.125H52.781Zm0,0" transform="translate(-33.656 -179.5)"/>
  <path id="Trazado_147849" data-name="Trazado 147849" d="M48,396.688H76.688V368H48Zm4.781-23.906H71.906v19.125H52.781Zm0,0" transform="translate(-33.656 -258.031)"/>
  <path id="Trazado_147850" data-name="Trazado 147850" d="M176,168h33.469v4.781H176Zm0,0" transform="translate(-123.406 -117.797)"/>
  <path id="Trazado_147851" data-name="Trazado 147851" d="M176,200h23.906v4.781H176Zm0,0" transform="translate(-123.406 -140.234)"/>
  <path id="Trazado_147852" data-name="Trazado 147852" d="M176,280h33.469v4.781H176Zm0,0" transform="translate(-123.406 -196.328)"/>
  <path id="Trazado_147853" data-name="Trazado 147853" d="M176,312h23.906v4.781H176Zm0,0" transform="translate(-123.406 -218.766)"/>
  <path id="Trazado_147854" data-name="Trazado 147854" d="M176,392h33.469v4.781H176Zm0,0" transform="translate(-123.406 -274.859)"/>
  <path id="Trazado_147855" data-name="Trazado 147855" d="M176,424h23.906v4.781H176Zm0,0" transform="translate(-123.406 -297.297)"/>
  <path id="Trazado_147856" data-name="Trazado 147856" d="M496,0h4.781V33.469H496Zm0,0" transform="translate(-347.781)"/>
  <path id="Trazado_147857" data-name="Trazado 147857" d="M464,0h4.781V23.906H464Zm0,0" transform="translate(-325.344)"/>
  <path id="Trazado_147858" data-name="Trazado 147858" d="M432,0h4.781V14.344H432Zm0,0" transform="translate(-302.906)"/>
  <path id="Trazado_147859" data-name="Trazado 147859" d="M80.815,160.149l-6.472-6.471,3.381-3.38,3.091,3.091,15.044-15.044,3.381,3.38Zm0,0" transform="translate(-52.828 -95.313)" fill="#fff"/>
</svg>
