<svg xmlns="http://www.w3.org/2000/svg" width="239" height="115.001" viewBox="0 0 239 115.001">
  <g id="Grupo_85495" data-name="Grupo 85495" transform="translate(-236 -897.22)">
    <path id="Rectángulo_5364" data-name="Rectángulo 5364" d="M72,0H239a0,0,0,0,1,0,0V72a0,0,0,0,1,0,0H0a0,0,0,0,1,0,0v0A72,72,0,0,1,72,0Z" transform="translate(236 940.221)" fill="#c3b5ec"/>
    <g id="usuario" transform="translate(274.77 897.221)">
      <path id="Trazado_146838" data-name="Trazado 146838" d="M116.092,292.235V322.2H8V292.235a22.838,22.838,0,0,1,21.383-22.793c.481-.033.966-.047,1.455-.047H93.254A22.84,22.84,0,0,1,116.092,292.235Zm0,0" transform="translate(-5.815 -208.887)" fill="#f4bc8e"/>
      <path id="Trazado_146840" data-name="Trazado 146840" d="M138.012,316.089H103.2v-52.4a2.175,2.175,0,0,1,2.175-2.175h19.613v30.736C124.991,303.868,130.833,311.319,138.012,316.089Zm0,0" transform="translate(-79.635 -202.775)" fill="#b17728"/>
      <path id="Trazado_146841" data-name="Trazado 146841" d="M359.892,177.442a5.876,5.876,0,1,1-5.876-5.876A5.876,5.876,0,0,1,359.892,177.442Zm0,0" transform="translate(-269.558 -133.032)" fill="#efa66f"/>
      <path id="Trazado_146842" data-name="Trazado 146842" d="M108.537,177.442a5.876,5.876,0,1,1-5.876-5.876A5.876,5.876,0,0,1,108.537,177.442Zm0,0" transform="translate(-74.659 -133.032)" fill="#efa66f"/>
      <path id="Trazado_146843" data-name="Trazado 146843" d="M173.541,14.475v-4.8a2.175,2.175,0,0,0-2.5-2.15l-21.92,3.338a9.515,9.515,0,0,0-8.046,8.573,15.812,15.812,0,0,0-12.689,15.5V78.755s1.768,22.062,22.755,23.581a2.171,2.171,0,0,0,2.317-2.172V90.709s2.086,16.476,16.408,18.151a2.169,2.169,0,0,0,2.408-2.163V92.043l1.781,1.991a2.172,2.172,0,0,0,3.378-.168c1.994-2.76,4.968-8.708,4.968-19.63V15.657a2.175,2.175,0,0,0-2.5-2.15Zm0,0" transform="translate(-99.159 -5.816)" fill="#565656"/>
      <path id="Trazado_146844" data-name="Trazado 146844" d="M199.023,153.406V141.838a14.362,14.362,0,0,0-14.362-14.362h-11.73a14.362,14.362,0,0,0-14.362,14.362v11.567a4.484,4.484,0,0,0,6.545,3.982l11.62-6.017a4.483,4.483,0,0,1,4.123,0l11.62,6.017A4.484,4.484,0,0,0,199.023,153.406Zm0,0" transform="translate(-122.567 -98.845)" fill="#efa66f"/>
      <path id="Trazado_146846" data-name="Trazado 146846" d="M227.607,213.829h-5.751a4.045,4.045,0,0,1-4.008-4.587l.841-6.227a6.1,6.1,0,0,1,12.084,0l.841,6.227A4.045,4.045,0,0,1,227.607,213.829Zm0,0" transform="translate(-168.501 -153.322)" fill="#ff7758"/>
      <path id="Trazado_146848" data-name="Trazado 146848" d="M199.867,292.043a11.19,11.19,0,0,0,21.9,0Zm0,0" transform="translate(-154.588 -226.448)" fill="#f1eded"/>
      <path id="Trazado_146849" data-name="Trazado 146849" d="M284.092,128.621h-9.956a2.175,2.175,0,0,1-2.175-2.175v-3.722a2.176,2.176,0,0,1,2.5-2.15l9.956,1.514a2.174,2.174,0,0,1,1.848,2.15v2.209A2.175,2.175,0,0,1,284.092,128.621Zm0,0" transform="translate(-210.489 -93.473)" fill="#82807f"/>
      <path id="Trazado_146850" data-name="Trazado 146850" d="M163.866,128.621h9.956A2.174,2.174,0,0,0,176,126.446v-3.722a2.175,2.175,0,0,0-2.5-2.15l-9.956,1.514a2.175,2.175,0,0,0-1.849,2.15v2.209A2.175,2.175,0,0,0,163.866,128.621Zm0,0" transform="translate(-124.987 -93.473)" fill="#82807f"/>
      <path id="Trazado_146851" data-name="Trazado 146851" d="M87.437,62.193a21.144,21.144,0,0,1,10.6,2.844,1.684,1.684,0,1,0,1.691-2.914,24.508,24.508,0,0,0-12.294-3.3H84.923V51.955a7.559,7.559,0,0,0,0-15.089V27.7a1.685,1.685,0,0,0-3.369,0V68.42c0,10.622-2.913,16.24-4.649,18.644a.463.463,0,0,1-.361.195.482.482,0,0,1-.4-.165L74.8,85.583V77.121a1.685,1.685,0,1,0-3.369,0v23.759a.5.5,0,0,1-.168.374.457.457,0,0,1-.36.116c-5.327-.623-9.444-3.562-12.237-8.736a26.075,26.075,0,0,1-2.682-7.862V81.079a1.685,1.685,0,0,0-3.369,0V94.349a.494.494,0,0,1-.159.365.464.464,0,0,1-.353.126c-8.051-.583-14.051-4.411-17.833-11.38a30.521,30.521,0,0,1-3.359-10.6V29.12A14.163,14.163,0,0,1,42.1,15.3H49.31a1.685,1.685,0,0,0,0-3.369H43.975a7.8,7.8,0,0,1,6.238-5.223l21.92-3.338a.49.49,0,0,1,.564.484v4.8a1.685,1.685,0,0,0,1.938,1.665l6.354-.968a.491.491,0,0,1,.564.485V20.364a1.685,1.685,0,1,0,3.369,0V9.841a3.86,3.86,0,0,0-4.44-3.816L76.067,6.7V3.859A3.86,3.86,0,0,0,71.627.043L49.707,3.381a11.166,11.166,0,0,0-9.3,8.865A17.548,17.548,0,0,0,27.539,29.12v7.745a7.559,7.559,0,0,0,0,15.089v5.1h-1.8a3.856,3.856,0,0,0-3.324,1.909A24.525,24.525,0,0,0,.5,83.347v29.967a1.685,1.685,0,0,0,3.369,0V83.347A21.148,21.148,0,0,1,21.884,62.43V93.661a1.685,1.685,0,0,0,3.369,0V60.912a.491.491,0,0,1,.49-.49h1.8V72.939c0,.046,0,.09.005.135a33.292,33.292,0,0,0,3.7,11.883A24.376,24.376,0,0,0,44.453,96.665c1.682,7.369,6.049,13.439,12.992,18.052a1.685,1.685,0,1,0,1.864-2.807c-5.616-3.731-9.338-8.5-11.092-14.2a29.3,29.3,0,0,0,3.639.49,3.854,3.854,0,0,0,4.106-3.486c3.3,5.821,8.32,9.275,14.544,10a3.93,3.93,0,0,0,.442.025,3.857,3.857,0,0,0,3.846-3.861V90.226a3.858,3.858,0,0,0,4.84-1.19c2.412-3.339,5.287-9.627,5.287-20.617V62.192h2.515ZM23.811,44.41a4.2,4.2,0,0,1,3.728-4.164v8.328A4.2,4.2,0,0,1,23.811,44.41Zm64.839,0a4.2,4.2,0,0,1-3.727,4.164V40.246A4.2,4.2,0,0,1,88.65,44.41Zm0,0" transform="translate(0 0)"/>
      <path id="Trazado_146852" data-name="Trazado 146852" d="M461.016,298.918a1.684,1.684,0,1,0-2.582,2.164,21.172,21.172,0,0,1,4.931,13.577v29.967a1.685,1.685,0,1,0,3.369,0V314.659A24.545,24.545,0,0,0,461.016,298.918Zm0,0" transform="translate(-354.774 -231.312)"/>
      <path id="Trazado_146853" data-name="Trazado 146853" d="M97.388,440.168a1.684,1.684,0,0,0-1.685,1.685v12.765a1.685,1.685,0,0,0,3.369,0V441.853A1.685,1.685,0,0,0,97.388,440.168Zm0,0" transform="translate(-73.82 -341.303)"/>
      <path id="Trazado_146854" data-name="Trazado 146854" d="M188.728,148.394a6.184,6.184,0,0,0,6.164-6.175V130.652a16.028,16.028,0,0,0-1.773-7.334,3.844,3.844,0,0,0,1.094-2.687v-2.208a3.837,3.837,0,0,0-3.28-3.816l-9.956-1.513A3.86,3.86,0,0,0,177.3,114.6h-8.621a3.859,3.859,0,0,0-3.675-1.511l-9.956,1.513a3.838,3.838,0,0,0-3.28,3.816v2.208a3.84,3.84,0,0,0,1.081,2.671,16.013,16.013,0,0,0-1.782,7.35v11.567a6.158,6.158,0,0,0,9,5.477l4.447-2.3a5.725,5.725,0,0,0,5.584,4.456h5.751a5.725,5.725,0,0,0,5.584-4.456l4.447,2.3A6.166,6.166,0,0,0,188.728,148.394Zm-8.82-31.485a.493.493,0,0,1,.488-.49.462.462,0,0,1,.076.006l9.956,1.513a.487.487,0,0,1,.416.484v2.209a.49.49,0,0,1-.49.49H180.4a.491.491,0,0,1-.49-.49Zm-24.767,1.513a.487.487,0,0,1,.417-.484l9.956-1.514a.6.6,0,0,1,.077-.005.489.489,0,0,1,.487.49v3.722a.491.491,0,0,1-.49.49h-9.956a.491.491,0,0,1-.49-.49Zm3.385,26.282a2.8,2.8,0,0,1-4.086-2.486V130.652a12.642,12.642,0,0,1,1.6-6.161h9.551a3.863,3.863,0,0,0,3.859-3.86v-2.657h7.093v2.657a3.864,3.864,0,0,0,3.86,3.86h9.528a12.647,12.647,0,0,1,1.6,6.161v11.567a2.8,2.8,0,0,1-4.086,2.486l-6.15-3.185-.594-4.394a7.781,7.781,0,0,0-15.422,0l-.594,4.394Zm19.108.969a2.328,2.328,0,0,1-1.777.807h-5.751a2.36,2.36,0,0,1-2.338-2.677l.841-6.227a4.412,4.412,0,0,1,8.745,0l.842,6.227A2.329,2.329,0,0,1,177.634,145.674Zm0,0" transform="translate(-116.751 -87.659)"/>
      <path id="Trazado_146855" data-name="Trazado 146855" d="M187.653,190.227h-.031a1.685,1.685,0,0,0-.008,3.369h.031a1.685,1.685,0,0,0,.008-3.369Zm0,0" transform="translate(-143.787 -147.501)"/>
      <path id="Trazado_146856" data-name="Trazado 146856" d="M297.884,193.6h.031a1.685,1.685,0,0,0,.008-3.369h-.031a1.685,1.685,0,0,0-.008,3.369Zm0,0" transform="translate(-229.289 -147.501)"/>
      <path id="Trazado_146857" data-name="Trazado 146857" d="M215.952,284.543h-21.9a1.685,1.685,0,0,0-1.649,2.029,12.875,12.875,0,0,0,25.2,0,1.684,1.684,0,0,0-1.649-2.029ZM205,293.434a9.552,9.552,0,0,1-8.631-5.522h17.261A9.551,9.551,0,0,1,205,293.434Zm0,0" transform="translate(-148.771 -220.633)"/>
      <path id="Trazado_146858" data-name="Trazado 146858" d="M417.234,309.068a1.685,1.685,0,1,0-2.382-2.383l-4.829,4.829a1.685,1.685,0,1,0,2.383,2.382Zm0,0" transform="translate(-317.158 -237.42)"/>
      <path id="Trazado_146859" data-name="Trazado 146859" d="M427.984,330.565a1.684,1.684,0,1,0-2.382-2.382l-4.829,4.829a1.684,1.684,0,1,0,2.382,2.382Zm0,0" transform="translate(-325.494 -254.088)"/>
      <path id="Trazado_146860" data-name="Trazado 146860" d="M436.351,349.683l-4.828,4.829a1.684,1.684,0,0,0,2.382,2.382l4.829-4.829a1.685,1.685,0,0,0-2.383-2.382Zm0,0" transform="translate(-333.829 -270.759)"/>
      <path id="Trazado_146861" data-name="Trazado 146861" d="M54.092,306.683a1.684,1.684,0,1,0-2.382,2.382l4.829,4.829a1.684,1.684,0,1,0,2.382-2.382Zm0,0" transform="translate(-39.325 -237.418)"/>
      <path id="Trazado_146862" data-name="Trazado 146862" d="M43.342,328.183a1.684,1.684,0,0,0-2.382,2.382l4.829,4.829a1.685,1.685,0,0,0,2.383-2.382Zm0,0" transform="translate(-30.99 -254.088)"/>
      <path id="Trazado_146863" data-name="Trazado 146863" d="M32.593,349.683a1.685,1.685,0,1,0-2.383,2.382l4.829,4.829a1.685,1.685,0,0,0,2.383-2.382Zm0,0" transform="translate(-22.654 -270.759)"/>
      <path id="Trazado_146864" data-name="Trazado 146864" d="M385.688,405.719A1.684,1.684,0,0,0,384,407.4v20.5a1.685,1.685,0,1,0,3.369,0V407.4A1.684,1.684,0,0,0,385.688,405.719Zm0,0" transform="translate(-297.366 -314.592)"/>
    </g>
  </g>
</svg>
