<svg xmlns="http://www.w3.org/2000/svg" width="77.917" height="85" viewBox="0 0 77.917 85">
  <g id="Page-1" transform="translate(0)">
    <g id="_021---Tick-File" data-name="021---Tick-File" transform="translate(0)">
      <g id="Icons" transform="translate(1.364 1.417)">
        <path id="Shape" d="M6,5.667A5.667,5.667,0,0,1,11.667,0H68.333A5.667,5.667,0,0,1,74,5.667V62.333l-17,17H11.667A5.667,5.667,0,0,1,6,73.667Z" transform="translate(1.136)" fill="#ffe9cb"/>
        <path id="Shape-2" data-name="Shape" d="M36.857,31.25l1.788-2.483a4.251,4.251,0,1,1,6.9,4.967L20.044,69.15A4.25,4.25,0,0,1,16.937,70.9a2.684,2.684,0,0,1-.339.014,4.25,4.25,0,0,1-3-1.245L2.261,58.338a4.25,4.25,0,1,1,6.009-6.01l7.8,7.8L32.781,36.917" transform="translate(-0.963 11.25)" fill="#ff7758"/>
        <path id="Shape-3" data-name="Shape" d="M42,61V49.667A5.667,5.667,0,0,1,47.667,44H59" transform="translate(16.136 18.333)" fill="#ffd69f"/>
      </g>
      <g id="Layer_2">
        <path id="Shape-4" data-name="Shape" d="M75.833,7.083A7.092,7.092,0,0,0,68.75,0H12.083A7.092,7.092,0,0,0,5,7.083V56.667a1.417,1.417,0,0,0,2.833,0V7.083a4.25,4.25,0,0,1,4.25-4.25H68.75A4.25,4.25,0,0,1,73,7.083v55.25H63.083A7.092,7.092,0,0,0,56,69.417v9.917H29.083a1.417,1.417,0,0,0,0,2.833H57.417a1.417,1.417,0,0,0,1-.415l17-17a1.417,1.417,0,0,0,.415-1ZM63.083,65.167H71L58.833,77.33V69.417A4.25,4.25,0,0,1,63.083,65.167Z" transform="translate(2.083)"/>
        <path id="Shape-5" data-name="Shape" d="M0,56.765a5.626,5.626,0,0,0,1.66,4.006L12.994,72.1A5.635,5.635,0,0,0,17,73.765a3.814,3.814,0,0,0,.456-.018A5.657,5.657,0,0,0,21.6,71.409L47.1,35.992a5.667,5.667,0,1,0-9.2-6.621l-1.788,2.483a1.417,1.417,0,1,0,2.3,1.655L40.2,31.027a2.833,2.833,0,1,1,4.6,3.309L19.3,69.753a2.821,2.821,0,0,1-2.068,1.169A2.856,2.856,0,0,1,15,70.1L3.664,58.768a2.833,2.833,0,0,1,0-4.006,2.9,2.9,0,0,1,4.006,0l7.8,7.8a1.4,1.4,0,0,0,1.116.411,1.417,1.417,0,0,0,1.034-.584L34.337,39.175a1.417,1.417,0,1,0-2.3-1.655L16.292,59.38,9.674,52.758a5.808,5.808,0,0,0-8.014,0A5.626,5.626,0,0,0,0,56.765Z" transform="translate(0 11.235)"/>
        <path id="Shape-6" data-name="Shape" d="M15.25,6H12.417a1.417,1.417,0,1,0,0,2.833H15.25A1.417,1.417,0,1,0,15.25,6Z" transform="translate(4.583 2.5)"/>
        <path id="Shape-7" data-name="Shape" d="M60.917,6h-42.5a1.417,1.417,0,1,0,0,2.833h42.5a1.417,1.417,0,0,0,0-2.833Z" transform="translate(7.083 2.5)"/>
        <path id="Shape-8" data-name="Shape" d="M15.25,12H12.417a1.417,1.417,0,1,0,0,2.833H15.25a1.417,1.417,0,1,0,0-2.833Z" transform="translate(4.583 5)"/>
        <path id="Shape-9" data-name="Shape" d="M18.417,14.833H51A1.417,1.417,0,1,0,51,12H18.417a1.417,1.417,0,1,0,0,2.833Z" transform="translate(7.083 5)"/>
        <path id="Shape-10" data-name="Shape" d="M15.25,18H12.417a1.417,1.417,0,1,0,0,2.833H15.25a1.417,1.417,0,1,0,0-2.833Z" transform="translate(4.583 7.5)"/>
        <path id="Shape-11" data-name="Shape" d="M18.417,20.833H41.083a1.417,1.417,0,1,0,0-2.833H18.417a1.417,1.417,0,1,0,0,2.833Z" transform="translate(7.083 7.5)"/>
        <path id="Shape-12" data-name="Shape" d="M51.833,21.417a1.417,1.417,0,1,0-2.833,0V41.25a1.417,1.417,0,1,0,2.833,0Z" transform="translate(20.417 8.333)"/>
        <path id="Shape-13" data-name="Shape" d="M50.417,38A1.417,1.417,0,0,0,49,39.417V42.25a1.417,1.417,0,1,0,2.833,0V39.417A1.417,1.417,0,0,0,50.417,38Z" transform="translate(20.417 15.833)"/>
      </g>
    </g>
  </g>
</svg>
