<svg id="organizacion" xmlns="http://www.w3.org/2000/svg" width="64.465" height="64.465" viewBox="0 0 64.465 64.465">
  <path id="Trazado_146935" data-name="Trazado 146935" d="M24,136H40.116v34.381H24Zm0,0" transform="translate(-20.777 -117.735)" fill="#ccdce5"/>
  <path id="Trazado_146936" data-name="Trazado 146936" d="M24,328H40.116v9.67H24Zm0,0" transform="translate(-20.777 -283.949)" fill="#ff7758"/>
  <path id="Trazado_146937" data-name="Trazado 146937" d="M8,104H26.265v4.3H8Zm0,0" transform="translate(-6.926 -90.033)" fill="#ff7758"/>
  <path id="Trazado_146941" data-name="Trazado 146941" d="M336,136h16.116v34.381H336Zm0,0" transform="translate(-290.875 -117.735)" fill="#ccdce5"/>
  <path id="Trazado_146942" data-name="Trazado 146942" d="M336,328h16.116v9.67H336Zm0,0" transform="translate(-290.875 -283.949)" fill="#ff7758"/>
  <path id="Trazado_146943" data-name="Trazado 146943" d="M336,104h18.265v4.3H336Zm0,0" transform="translate(-290.875 -90.033)" fill="#ff7758"/>
  <path id="Trazado_146947" data-name="Trazado 146947" d="M136,32h27.935V80.349H136Zm0,0" transform="translate(-117.735 -27.702)" fill="#ccdce5"/>
  <path id="Trazado_146948" data-name="Trazado 146948" d="M120,8h32.232v4.3H120Zm0,0" transform="translate(-103.884 -6.926)" fill="#ff7758"/>
  <path id="Trazado_146949" data-name="Trazado 146949" d="M216.6,180.3a4.3,4.3,0,1,1-4.3-4.3A4.3,4.3,0,0,1,216.6,180.3Zm0,0" transform="translate(-180.065 -152.363)" fill="#ffba5b"/>
  <path id="Trazado_146950" data-name="Trazado 146950" d="M176,247.521v-2.149A5.372,5.372,0,0,1,181.372,240h6.446a5.372,5.372,0,0,1,5.372,5.372v2.149a2.149,2.149,0,0,1-2.149,2.149h-2.149v5.372h-8.6V249.67h-2.149A2.149,2.149,0,0,1,176,247.521Zm0,0" transform="translate(-152.363 -207.768)" fill="#ffba5b"/>
  <g id="Grupo_84320" data-name="Grupo 84320" transform="translate(1.074 56.944)">
    <path id="Trazado_146952" data-name="Trazado 146952" d="M8,424H23.042v6.446H8Zm0,0" transform="translate(-8 -424)" fill="#ffba5b"/>
    <path id="Trazado_146953" data-name="Trazado 146953" d="M184,424h15.042v6.446H184Zm0,0" transform="translate(-160.363 -424)" fill="#ffba5b"/>
    <path id="Trazado_146954" data-name="Trazado 146954" d="M360,424h15.042v6.446H360Zm0,0" transform="translate(-312.726 -424)" fill="#ffba5b"/>
  </g>
  <path id="Trazado_146955" data-name="Trazado 146955" d="M232,288h2.149v2.149H232Zm0,0" transform="translate(-200.842 -249.321)"/>
  <path id="Trazado_146956" data-name="Trazado 146956" d="M63.39,201.307H56.944v-3.223a1.074,1.074,0,0,0-1.074-1.074H33.307v-3.223H36.53a1.074,1.074,0,0,0,1.074-1.074v-4.3h1.074a3.223,3.223,0,0,0,3.223-3.223v-2.149a6.447,6.447,0,0,0-5.468-6.364,5.372,5.372,0,1,0-8.4,0,6.447,6.447,0,0,0-5.468,6.364v2.149a3.223,3.223,0,0,0,3.223,3.223H26.86v4.3a1.074,1.074,0,0,0,1.074,1.074h3.223v3.223H8.6a1.074,1.074,0,0,0-1.074,1.074v3.223H1.074A1.074,1.074,0,0,0,0,202.381v6.446A1.074,1.074,0,0,0,1.074,209.9H16.116a1.074,1.074,0,0,0,1.074-1.074v-6.446a1.074,1.074,0,0,0-1.074-1.074H9.67v-2.149H31.158v2.149H24.712a1.074,1.074,0,0,0-1.074,1.074v6.446a1.074,1.074,0,0,0,1.074,1.074H39.753a1.074,1.074,0,0,0,1.074-1.074v-6.446a1.074,1.074,0,0,0-1.074-1.074H33.307v-2.149H54.8v2.149H48.349a1.074,1.074,0,0,0-1.074,1.074v6.446a1.074,1.074,0,0,0,1.074,1.074H63.39a1.074,1.074,0,0,0,1.074-1.074v-6.446A1.074,1.074,0,0,0,63.39,201.307ZM32.232,170.149a3.223,3.223,0,1,1-3.223,3.223A3.223,3.223,0,0,1,32.232,170.149Zm-3.223,17.191v-4.3H26.86v3.223H25.786a1.074,1.074,0,0,1-1.074-1.074v-2.149a4.3,4.3,0,0,1,4.3-4.3h2.149v3.223h2.149v-3.223h2.149a4.3,4.3,0,0,1,4.3,4.3v2.149a1.074,1.074,0,0,1-1.074,1.074H37.6v-3.223H35.456v8.6H29.009ZM15.042,207.753H2.149v-4.3H15.042Zm23.637,0H25.786v-4.3H38.679Zm23.637,0H49.423v-4.3H62.316Zm0,0" transform="translate(0 -145.437)"/>
  <path id="Trazado_146957" data-name="Trazado 146957" d="M56,168h2.149v2.149H56Zm0,0" transform="translate(-48.479 -145.437)"/>
  <path id="Trazado_146958" data-name="Trazado 146958" d="M88,168h2.149v2.149H88Zm0,0" transform="translate(-76.181 -145.437)"/>
  <path id="Trazado_146959" data-name="Trazado 146959" d="M56,200h2.149v2.149H56Zm0,0" transform="translate(-48.479 -173.14)"/>
  <path id="Trazado_146960" data-name="Trazado 146960" d="M88,200h2.149v2.149H88Zm0,0" transform="translate(-76.181 -173.14)"/>
  <path id="Trazado_146961" data-name="Trazado 146961" d="M168,72h2.149v2.149H168Zm0,0" transform="translate(-145.437 -62.33)"/>
  <path id="Trazado_146962" data-name="Trazado 146962" d="M200,72h2.149v2.149H200Zm0,0" transform="translate(-173.14 -62.33)"/>
  <path id="Trazado_146963" data-name="Trazado 146963" d="M168,104h2.149v2.149H168Zm0,0" transform="translate(-145.437 -90.033)"/>
  <path id="Trazado_146964" data-name="Trazado 146964" d="M200,104h2.149v2.149H200Zm0,0" transform="translate(-173.14 -90.033)"/>
  <path id="Trazado_146965" data-name="Trazado 146965" d="M168,144h2.149v2.149H168Zm0,0" transform="translate(-145.437 -124.661)"/>
  <path id="Trazado_146966" data-name="Trazado 146966" d="M200,144h2.149v2.149H200Zm0,0" transform="translate(-173.14 -124.661)"/>
  <path id="Trazado_146967" data-name="Trazado 146967" d="M168,176h2.149v2.149H168Zm0,0" transform="translate(-145.437 -152.363)"/>
  <path id="Trazado_146968" data-name="Trazado 146968" d="M296,144h2.149v2.149H296Zm0,0" transform="translate(-256.247 -124.661)"/>
  <path id="Trazado_146969" data-name="Trazado 146969" d="M264,144h2.149v2.149H264Zm0,0" transform="translate(-228.544 -124.661)"/>
  <path id="Trazado_146970" data-name="Trazado 146970" d="M296,176h2.149v2.149H296Zm0,0" transform="translate(-256.247 -152.363)"/>
  <path id="Trazado_146971" data-name="Trazado 146971" d="M296,72h2.149v2.149H296Zm0,0" transform="translate(-256.247 -62.33)"/>
  <path id="Trazado_146972" data-name="Trazado 146972" d="M264,72h2.149v2.149H264Zm0,0" transform="translate(-228.544 -62.33)"/>
  <path id="Trazado_146973" data-name="Trazado 146973" d="M296,104h2.149v2.149H296Zm0,0" transform="translate(-256.247 -90.033)"/>
  <path id="Trazado_146974" data-name="Trazado 146974" d="M264,104h2.149v2.149H264Zm0,0" transform="translate(-228.544 -90.033)"/>
  <path id="Trazado_146975" data-name="Trazado 146975" d="M56,240h2.149v2.149H56Zm0,0" transform="translate(-48.479 -207.768)"/>
  <path id="Trazado_146976" data-name="Trazado 146976" d="M88,240h2.149v2.149H88Zm0,0" transform="translate(-76.181 -207.768)"/>
  <path id="Trazado_146977" data-name="Trazado 146977" d="M56,272h2.149v2.149H56Zm0,0" transform="translate(-48.479 -235.47)"/>
  <path id="Trazado_146978" data-name="Trazado 146978" d="M88,272h2.149v2.149H88Zm0,0" transform="translate(-76.181 -235.47)"/>
  <path id="Trazado_146979" data-name="Trazado 146979" d="M408,168h2.149v2.149H408Zm0,0" transform="translate(-353.205 -145.437)"/>
  <path id="Trazado_146980" data-name="Trazado 146980" d="M376,168h2.149v2.149H376Zm0,0" transform="translate(-325.503 -145.437)"/>
  <path id="Trazado_146981" data-name="Trazado 146981" d="M408,200h2.149v2.149H408Zm0,0" transform="translate(-353.205 -173.14)"/>
  <path id="Trazado_146982" data-name="Trazado 146982" d="M376,200h2.149v2.149H376Zm0,0" transform="translate(-325.503 -173.14)"/>
  <path id="Trazado_146983" data-name="Trazado 146983" d="M408,240h2.149v2.149H408Zm0,0" transform="translate(-353.205 -207.768)"/>
  <path id="Trazado_146984" data-name="Trazado 146984" d="M376,240h2.149v2.149H376Zm0,0" transform="translate(-325.503 -207.768)"/>
  <path id="Trazado_146985" data-name="Trazado 146985" d="M408,272h2.149v2.149H408Zm0,0" transform="translate(-353.205 -235.47)"/>
  <path id="Trazado_146986" data-name="Trazado 146986" d="M376,272h2.149v2.149H376Zm0,0" transform="translate(-325.503 -235.47)"/>
  <path id="Trazado_146987" data-name="Trazado 146987" d="M63.39,12.893H47.274V6.446h1.074a1.074,1.074,0,0,0,1.074-1.074v-4.3A1.074,1.074,0,0,0,48.349,0H16.116a1.074,1.074,0,0,0-1.074,1.074v4.3a1.074,1.074,0,0,0,1.074,1.074h1.074v6.446H1.074A1.074,1.074,0,0,0,0,13.967v4.3a1.074,1.074,0,0,0,1.074,1.074H2.149V53.721H4.3v-8.6H17.191v4.3h2.149V6.446H45.125V49.423h2.149v-4.3H60.167v8.6h2.149V19.339H63.39a1.074,1.074,0,0,0,1.074-1.074v-4.3A1.074,1.074,0,0,0,63.39,12.893ZM2.149,15.042H17.191v2.149H2.149ZM4.3,42.977V19.339H17.191V42.977ZM18.265,4.3H17.191V2.149H47.274V4.3ZM47.274,42.977V19.339H60.167V42.977ZM62.316,17.191H47.274V15.042H62.316Zm0,0"/>
</svg>
