<svg xmlns="http://www.w3.org/2000/svg" width="85" height="76.657" viewBox="0 0 85 76.657">
  <g id="charity" transform="translate(-32.105 -33.675)">
    <path id="Trazado_147092" data-name="Trazado 147092" d="M162.246,134.1l-.229-.026c-8.288-.921-12.7,4.574-19.958,8.677l-23.726,7.909a3.26,3.26,0,0,0,1.186,6.348l26.866-1.279Z" transform="translate(-53.719 -64.139)" fill="#e7d1c4"/>
    <path id="Trazado_147093" data-name="Trazado 147093" d="M116.8,155.894a4.7,4.7,0,0,1-1.479-9.162l23.593-7.864c1.854-1.057,3.531-2.214,5.154-3.334,4.61-3.181,8.964-6.186,15.553-5.453l.23.026a1.442,1.442,0,0,1,1,2.286L144.99,154.022a1.441,1.441,0,0,1-1.094.588l-26.866,1.279Q116.913,155.894,116.8,155.894Zm40.125-23.023c-4.24.22-7.387,2.393-11.22,5.037-1.711,1.18-3.479,2.4-5.493,3.539a1.447,1.447,0,0,1-.253.112l-23.726,7.909a1.817,1.817,0,0,0,.661,3.54l26.179-1.247Z" transform="translate(-51.161 -61.582)"/>
    <path id="Trazado_147094" data-name="Trazado 147094" d="M36.1,185.2l14.42,17.174,5.841-3.875L41.449,179.857Z" transform="translate(-2.558 -93.485)" fill="#ff7758"/>
    <path id="Trazado_147095" data-name="Trazado 147095" d="M47.967,201.258a1.441,1.441,0,0,1-1.1-.515l-14.42-17.174a1.442,1.442,0,0,1,.085-1.947l5.345-5.345a1.442,1.442,0,0,1,2.145.119l14.916,18.644a1.442,1.442,0,0,1-.329,2.1l-5.841,3.875A1.436,1.436,0,0,1,47.967,201.258ZM35.5,182.727,48.242,197.9l3.454-2.291L38.771,179.457Z" transform="translate(0 -90.926)"/>
    <path id="Trazado_147096" data-name="Trazado 147096" d="M126.523,132.823a4.193,4.193,0,0,0-6.072.069L104.524,150a13.537,13.537,0,0,1-9.907,4.313H86.778a3.745,3.745,0,1,1,0-7.489h9.677a6.559,6.559,0,0,0,5.866-3.625,4.4,4.4,0,0,0-3.931-6.36H70.548a18.075,18.075,0,0,0-12.781,5.294l-6.837,6.837,14.916,18.644,3.14-2.083a16.163,16.163,0,0,1,8.936-2.694H99.05a14.168,14.168,0,0,0,10.687-4.866L126.683,138.5a4.193,4.193,0,0,0-.16-5.679Z" transform="translate(-12.039 -62.596)" fill="#ffe8dc"/>
    <path id="Trazado_147097" data-name="Trazado 147097" d="M63.289,166.5a1.44,1.44,0,0,1-1.127-.541L47.247,147.311a1.443,1.443,0,0,1,.106-1.921l6.837-6.837a19.39,19.39,0,0,1,13.8-5.716H95.833a5.837,5.837,0,0,1,5.22,8.447,7.957,7.957,0,0,1-7.156,4.422H84.22a2.3,2.3,0,0,0,0,4.606h7.838a12.135,12.135,0,0,0,8.852-3.853l15.928-17.108a5.635,5.635,0,0,1,8.16-.093,5.667,5.667,0,0,1,.215,7.632l-16.945,19.467a15.606,15.606,0,0,1-11.775,5.362H75.363a14.679,14.679,0,0,0-8.139,2.454l-3.14,2.083a1.441,1.441,0,0,1-.8.24ZM50.3,146.518,63.59,163.124l2.041-1.354a17.552,17.552,0,0,1,9.733-2.935H96.492a12.722,12.722,0,0,0,9.6-4.371L123.038,135a2.766,2.766,0,0,0-.1-3.726,2.726,2.726,0,0,0-1.969-.831h-.032a2.725,2.725,0,0,0-1.982.876l-15.928,17.108A15.027,15.027,0,0,1,92.058,153.2H84.22a5.187,5.187,0,1,1,0-10.373H93.9A5.088,5.088,0,0,0,98.474,140a2.952,2.952,0,0,0-2.641-4.274H67.99a16.525,16.525,0,0,0-11.762,4.872Z" transform="translate(-9.481 -60.039)"/>
    <circle id="Elipse_4374" data-name="Elipse 4374" cx="11.637" cy="11.637" r="11.637" transform="translate(52.911 43.18)" fill="#ffba5b"/>
    <path id="Trazado_147098" data-name="Trazado 147098" d="M98.9,82.2a13.079,13.079,0,1,1,13.079-13.079A13.093,13.093,0,0,1,98.9,82.2Zm0-23.273A10.195,10.195,0,1,0,109.1,69.122,10.206,10.206,0,0,0,98.9,58.927Z" transform="translate(-34.354 -14.305)"/>
    <circle id="Elipse_4375" data-name="Elipse 4375" cx="6.095" cy="6.095" r="6.095" transform="translate(58.453 48.722)" fill="#ffd69f"/>
    <path id="Trazado_147099" data-name="Trazado 147099" d="M108.733,86.491a7.537,7.537,0,1,1,7.537-7.537A7.545,7.545,0,0,1,108.733,86.491Zm0-12.191a4.653,4.653,0,1,0,4.653,4.653A4.659,4.659,0,0,0,108.733,74.3Z" transform="translate(-44.185 -24.136)"/>
    <circle id="Elipse_4376" data-name="Elipse 4376" cx="13.932" cy="13.932" r="13.932" transform="translate(65.035 35.117)" fill="#ffba5b"/>
    <path id="Trazado_147100" data-name="Trazado 147100" d="M134.83,64.424A15.374,15.374,0,1,1,150.2,49.049,15.391,15.391,0,0,1,134.83,64.424Zm0-27.865A12.491,12.491,0,1,0,147.321,49.05,12.5,12.5,0,0,0,134.83,36.559Z" transform="translate(-55.862)"/>
    <path id="Trazado_147102" data-name="Trazado 147102" d="M9.094,0A9.094,9.094,0,1,1,0,9.094,9.094,9.094,0,0,1,9.094,0Z" transform="translate(69.874 39.955)" fill="#ffd69f"/>
    <path id="Trazado_147101" data-name="Trazado 147101" d="M143.413,68.17a10.536,10.536,0,1,1,10.536-10.536A10.548,10.548,0,0,1,143.413,68.17Zm0-18.188a7.652,7.652,0,1,0,7.652,7.652A7.661,7.661,0,0,0,143.413,49.982Z" transform="translate(-64.445 -8.584)"/>
  </g>
</svg>
