<svg xmlns="http://www.w3.org/2000/svg" width="610" height="370" viewBox="0 0 610 370">
  <g id="Grupo_85496" data-name="Grupo 85496" transform="translate(-180 -971.221)">
    <rect id="Rectángulo_6947" data-name="Rectángulo 6947" width="610" height="370" transform="translate(180 971.221)" fill="#c3b5ec"/>
    <g id="edificio-del-gobierno" transform="translate(407 1078.221)">
      <g id="Grupo_84314" data-name="Grupo 84314" transform="translate(2.298 2.298)">
        <g id="Grupo_84312" data-name="Grupo 84312">
          <path id="Trazado_146916" data-name="Trazado 146916" d="M7.5,40.287H159.79L88.241,7.5H79.049Zm76.145-9.193a6.128,6.128,0,1,1,6.128-6.128A6.128,6.128,0,0,1,83.645,31.094Z" transform="translate(-7.5 -7.5)" fill="#ffba5b" fill-rule="evenodd"/>
          <circle id="Elipse_4366" data-name="Elipse 4366" cx="6.128" cy="6.128" r="6.128" transform="matrix(0.987, -0.16, 0.16, 0.987, 69.105, 12.41)" fill="#e5ecf5"/>
          <path id="Trazado_146917" data-name="Trazado 146917" d="M159.79,132.884V114.5H7.5v18.385ZM7.5,234H159.79V224.81h-4.6v-9.193H12.1v9.193H7.5Z" transform="translate(-7.5 -81.712)" fill="#e5ecf5" fill-rule="evenodd"/>
          <path id="Trazado_146918" data-name="Trazado 146918" d="M52.5,268.847H75.481V204.5H52.5Zm101.731,0h22.981V204.5H154.231Zm-50.866,0h22.981V204.5H103.366Z" transform="translate(-38.711 -144.135)" fill="#e5ecf5" fill-rule="evenodd"/>
          <path id="Trazado_146919" data-name="Trazado 146919" d="M37.5,257.232H69.673V248.04H37.5Zm101.732,0H171.4V248.04H139.231ZM171.4,183.692V174.5H139.231v9.193Zm-83.04,73.541h32.174V248.04H88.365Zm32.174-73.541V174.5H88.365v9.193Zm-50.866,0V174.5H37.5v9.193Z" transform="translate(-28.307 -123.327)" fill="#ffba5b" fill-rule="evenodd"/>
          <path id="Trazado_146920" data-name="Trazado 146920" d="M7.5,40.287h9.193L88.241,7.5H79.049Z" transform="translate(-7.5 -7.5)" fill="#d4b981" fill-rule="evenodd"/>
          <path id="Trazado_146921" data-name="Trazado 146921" d="M14.394,114.5H7.5v18.385h6.894ZM7.5,234h6.894V224.81h4.6v-9.193H12.1v9.193H7.5Z" transform="translate(-7.5 -81.712)" fill="#cad8eb" fill-rule="evenodd"/>
          <path id="Trazado_146922" data-name="Trazado 146922" d="M52.5,268.847h6.894V204.5H52.5Zm101.731,0h6.894V204.5h-6.894Zm-50.866,0h6.894V204.5h-6.894Z" transform="translate(-38.711 -144.135)" fill="#cad8eb" fill-rule="evenodd"/>
          <path id="Trazado_146923" data-name="Trazado 146923" d="M37.5,257.232h6.894V248.04H37.5Zm101.732,0h6.894V248.04h-6.894v9.193Zm6.894-82.733h-6.894v9.193h6.894Zm-57.76,82.733H95.26V248.04H88.366ZM95.26,174.5H88.366v9.193H95.26Zm-50.866,0H37.5v9.193h6.894Z" transform="translate(-28.307 -123.327)" fill="#d4b981" fill-rule="evenodd"/>
          <path id="Trazado_146924" data-name="Trazado 146924" d="M132.1,257.232h18.692V248.04h4.6V183.692h-4.6V174.5H132.1v9.193h-4.6V248.04h4.6Zm50.866,0h18.692V248.04h4.6V183.692h-4.6V174.5H182.961v9.193h-4.6V248.04h4.6Z" transform="translate(-90.729 -123.327)" fill="#594e76" fill-rule="evenodd"/>
          <path id="Trazado_146925" data-name="Trazado 146925" d="M132.1,185.99v59.752h4.6v11.491h-4.6V248.04h-4.6V183.692h4.6V174.5h4.6V185.99Zm50.866,0v59.752h4.6v11.491h-4.6V248.04h-4.6V183.692h4.6V174.5h4.6V185.99Z" transform="translate(-90.729 -123.327)" fill="#463c5f" fill-rule="evenodd"/>
          <path id="Trazado_146926" data-name="Trazado 146926" d="M236,50.621a6.137,6.137,0,0,0,8.427,5.683,6.13,6.13,0,0,1,0-11.365A6.137,6.137,0,0,0,236,50.621Z" transform="translate(-165.983 -33.155)" fill="#cad8eb" fill-rule="evenodd"/>
        </g>
      </g>
      <g id="Grupo_84315" data-name="Grupo 84315" transform="translate(0)">
        <path id="Trazado_146928" data-name="Trazado 146928" d="M24.193,227v55.156H19.6v9.193H15v4.6H162.694v-4.6h-4.6v-9.193h-4.6V227h-4.6v55.156h-6.894v4.6H153.5v4.6H125.924v-4.6h11.49v-4.6H130.52V227h-4.6v55.156h-4.6v9.193h-14.1v-9.193h-4.6V227h-4.6v55.156H91.145v4.6h11.491v4.6H75.058v-4.6H86.549v-4.6H79.654V227h-4.6v55.156h-4.6v9.193h-14.1v-9.193h-4.6V227h-4.6v55.156H40.28v4.6H51.77v4.6H24.193v-4.6H35.683v-4.6H28.789V227Z" transform="translate(-10.404 -157.442)"/>
        <path id="Trazado_146929" data-name="Trazado 146929" d="M4.6,471.6H76.145V467H0v13.789H133.906v-4.6H4.6Z" transform="translate(0 -323.902)"/>
        <path id="Trazado_146930" data-name="Trazado 146930" d="M263.5,471.6h71.549v4.6H321.26v4.6h18.385V467H263.5Z" transform="translate(-182.758 -323.902)"/>
        <path id="Trazado_146931" data-name="Trazado 146931" d="M83.541,0h-10.2L39.2,15.645l1.915,4.178L74.349,4.6h8.19l61.519,28.19H12.83L36.94,21.738,35.026,17.56,0,33.61V55.768H9.193v9.193h36.77V55.768h14.1v9.193h36.77V55.768h14.1v9.193h36.77V55.768h9.193V33.61ZM41.366,60.364H13.789v-4.6H41.366Zm101.732,0H115.52v-4.6H143.1ZM80.741,51.172v4.6H92.232v4.6H64.654v-4.6H76.145v-4.6H4.6V37.383H152.29V51.172Z" transform="translate(0)"/>
        <path id="Trazado_146932" data-name="Trazado 146932" d="M233.5,137h4.6v4.6h-4.6Z" transform="translate(-161.951 -95.02)"/>
        <path id="Trazado_146933" data-name="Trazado 146933" d="M221.321,53.853a8.442,8.442,0,0,0,8.108-6.128h7.213v-4.6h-7.213a8.428,8.428,0,0,0-16.216,0H206v4.6h7.213A8.443,8.443,0,0,0,221.321,53.853Zm0-12.257a3.83,3.83,0,1,1-3.83,3.83A3.834,3.834,0,0,1,221.321,41.6Z" transform="translate(-142.878 -25.662)"/>
        <path id="Trazado_146934" data-name="Trazado 146934" d="M263.5,137h4.6v4.6h-4.6Z" transform="translate(-182.758 -95.02)"/>
      </g>
    </g>
  </g>
</svg>
