<svg id="edificio-del-gobierno" xmlns="http://www.w3.org/2000/svg" width="69.531" height="69.531" viewBox="0 0 69.531 69.531">
  <g id="Grupo_84314" data-name="Grupo 84314" transform="translate(1.019 1.019)">
    <g id="Grupo_84312" data-name="Grupo 84312">
      <path id="Trazado_146916" data-name="Trazado 146916" d="M7.5,22.031H74.994L43.284,7.5H39.21Zm33.747-4.074a2.716,2.716,0,1,1,2.716-2.716A2.716,2.716,0,0,1,41.247,17.957Z" transform="translate(-7.5 -7.5)" fill="#ffba5b" fill-rule="evenodd"/>
      <circle id="Elipse_4366" data-name="Elipse 4366" cx="2.716" cy="2.716" r="2.716" transform="matrix(0.987, -0.16, 0.16, 0.987, 30.627, 5.5)" fill="#e5ecf5"/>
      <path id="Trazado_146917" data-name="Trazado 146917" d="M74.994,122.647V114.5H7.5v8.148ZM7.5,167.462H74.994v-4.074H72.957v-4.074H9.537v4.074H7.5Z" transform="translate(-7.5 -99.968)" fill="#e5ecf5" fill-rule="evenodd"/>
      <path id="Trazado_146918" data-name="Trazado 146918" d="M52.5,233.018H62.685V204.5H52.5Zm45.087,0h10.185V204.5H97.587Zm-22.543,0H85.229V204.5H75.043Z" transform="translate(-46.389 -177.746)" fill="#e5ecf5" fill-rule="evenodd"/>
      <path id="Trazado_146919" data-name="Trazado 146919" d="M37.5,211.166H51.758v-4.074H37.5Zm45.087,0H96.845v-4.074H82.586Zm14.259-32.593V174.5H82.586v4.074Zm-36.8,32.593H74.3v-4.074H60.042ZM74.3,178.573V174.5H60.042v4.074Zm-22.543,0V174.5H37.5v4.074Z" transform="translate(-33.425 -151.82)" fill="#ffba5b" fill-rule="evenodd"/>
      <path id="Trazado_146920" data-name="Trazado 146920" d="M7.5,22.031h4.074L43.284,7.5H39.21Z" transform="translate(-7.5 -7.5)" fill="#d4b981" fill-rule="evenodd"/>
      <path id="Trazado_146921" data-name="Trazado 146921" d="M10.556,114.5H7.5v8.148h3.056ZM7.5,167.462h3.056v-4.074h2.037v-4.074H9.537v4.074H7.5Z" transform="translate(-7.5 -99.968)" fill="#cad8eb" fill-rule="evenodd"/>
      <path id="Trazado_146922" data-name="Trazado 146922" d="M52.5,233.018h3.056V204.5H52.5Zm45.087,0h3.056V204.5H97.587Zm-22.543,0H78.1V204.5H75.043Z" transform="translate(-46.389 -177.746)" fill="#cad8eb" fill-rule="evenodd"/>
      <path id="Trazado_146923" data-name="Trazado 146923" d="M37.5,211.166h3.056v-4.074H37.5Zm45.087,0h3.055v-4.074H82.587v4.074ZM85.642,174.5H82.587v4.074h3.056Zm-25.6,36.667H63.1v-4.074H60.043ZM63.1,174.5H60.043v4.074H63.1Zm-22.543,0H37.5v4.074h3.056Z" transform="translate(-33.426 -151.82)" fill="#d4b981" fill-rule="evenodd"/>
      <path id="Trazado_146924" data-name="Trazado 146924" d="M129.536,211.166h8.284v-4.074h2.037V178.573H137.82V174.5h-8.284v4.074H127.5v28.519h2.037Zm22.543,0h8.284v-4.074H162.4V178.573h-2.037V174.5H152.08v4.074h-2.037v28.519h2.037Z" transform="translate(-111.203 -151.82)" fill="#594e76" fill-rule="evenodd"/>
      <path id="Trazado_146925" data-name="Trazado 146925" d="M129.536,179.592v26.482h2.037v5.093h-2.037v-4.074H127.5V178.573h2.037V174.5h2.037v5.093Zm22.543,0v26.482h2.037v5.093H152.08v-4.074h-2.037V178.573h2.037V174.5h2.037v5.093Z" transform="translate(-111.203 -151.82)" fill="#463c5f" fill-rule="evenodd"/>
      <path id="Trazado_146926" data-name="Trazado 146926" d="M236,47.207a2.72,2.72,0,0,0,3.735,2.518,2.717,2.717,0,0,1,0-5.037A2.72,2.72,0,0,0,236,47.207Z" transform="translate(-204.969 -39.466)" fill="#cad8eb" fill-rule="evenodd"/>
    </g>
  </g>
  <g id="Grupo_84315" data-name="Grupo 84315" transform="translate(0)">
    <path id="Trazado_146928" data-name="Trazado 146928" d="M19.074,227v24.445H17.037v4.074H15v2.037H80.457v-2.037H78.42v-4.074H76.383V227H74.346v24.445H71.29v2.037h5.093v2.037H64.161v-2.037h5.092v-2.037H66.2V227H64.161v24.445H62.124v4.074H55.877v-4.074H53.84V227H51.8v24.445H48.747v2.037H53.84v2.037H41.617v-2.037H46.71v-2.037H43.654V227H41.617v24.445H39.58v4.074H33.333v-4.074H31.3V227H29.259v24.445H26.2v2.037H31.3v2.037H19.074v-2.037h5.093v-2.037H21.111V227Z" transform="translate(-12.963 -196.172)"/>
    <path id="Trazado_146929" data-name="Trazado 146929" d="M2.037,469.037h31.71V467H0v6.111H59.346v-2.037H2.037Z" transform="translate(0 -403.58)"/>
    <path id="Trazado_146930" data-name="Trazado 146930" d="M263.5,469.037h31.71v2.037H289.1v2.037h8.148V467H263.5Z" transform="translate(-227.716 -403.58)"/>
    <path id="Trazado_146931" data-name="Trazado 146931" d="M37.025,0H32.506L17.375,6.934l.848,1.852L32.951,2.037h3.63L63.845,14.531H5.686l10.686-4.9-.848-1.852L0,14.9v9.82H4.074V28.79h16.3V24.716h6.247V28.79h16.3V24.716h6.247V28.79h16.3V24.716h4.074V14.9ZM18.333,26.753H6.111V24.716H18.333Zm45.087,0H51.2V24.716H63.42ZM35.784,22.679v2.037h5.093v2.037H28.654V24.716h5.093V22.679H2.037V16.568H67.494v6.111Z" transform="translate(0)"/>
    <path id="Trazado_146932" data-name="Trazado 146932" d="M233.5,137h2.037v2.037H233.5Z" transform="translate(-201.79 -118.394)"/>
    <path id="Trazado_146933" data-name="Trazado 146933" d="M212.79,44.469a3.742,3.742,0,0,0,3.593-2.716h3.2V39.716h-3.2a3.735,3.735,0,0,0-7.187,0H206v2.037h3.2A3.742,3.742,0,0,0,212.79,44.469Zm0-5.432a1.7,1.7,0,1,1-1.7,1.7A1.7,1.7,0,0,1,212.79,39.037Z" transform="translate(-178.024 -31.975)"/>
    <path id="Trazado_146934" data-name="Trazado 146934" d="M263.5,137h2.037v2.037H263.5Z" transform="translate(-227.716 -118.394)"/>
  </g>
</svg>
