<svg id="edificio-del-gobierno" xmlns="http://www.w3.org/2000/svg" width="52.931" height="52.931" viewBox="0 0 52.931 52.931">
  <g id="Grupo_85416" data-name="Grupo 85416" transform="translate(0.775 0.775)">
    <g id="Grupo_85414" data-name="Grupo 85414">
      <path id="Trazado_148478" data-name="Trazado 148478" d="M7.5,18.562H58.88L34.741,7.5h-3.1Zm25.69-3.1a2.068,2.068,0,1,1,2.068-2.068A2.068,2.068,0,0,1,33.19,15.46Z" transform="translate(-7.5 -7.5)" fill="#c4bbe0" fill-rule="evenodd"/>
      <circle id="Elipse_4428" data-name="Elipse 4428" cx="2.068" cy="2.068" r="2.068" transform="matrix(0.987, -0.16, 0.16, 0.987, 23.315, 4.187)" fill="#e5ecf5"/>
      <path id="Trazado_148479" data-name="Trazado 148479" d="M58.88,120.7v-6.2H7.5v6.2ZM7.5,154.817H58.88v-3.1H57.329v-3.1H9.051v3.1H7.5Z" transform="translate(-7.5 -103.437)" fill="#978cb7" fill-rule="evenodd"/>
      <path id="Trazado_148480" data-name="Trazado 148480" d="M52.5,226.209h7.754V204.5H52.5Zm34.322,0h7.754V204.5H86.822Zm-17.161,0h7.754V204.5H69.661Z" transform="translate(-47.848 -184.133)" fill="#ffe9cb" fill-rule="evenodd"/>
      <path id="Trazado_148481" data-name="Trazado 148481" d="M37.5,202.412H48.354v-3.1H37.5Zm34.322,0H82.676v-3.1H71.821ZM82.676,177.6v-3.1H71.821v3.1ZM54.66,202.412H65.515v-3.1H54.66ZM65.515,177.6v-3.1H54.66v3.1Zm-17.161,0v-3.1H37.5v3.1Z" transform="translate(-34.398 -157.235)" fill="#ffba5b" fill-rule="evenodd"/>
      <path id="Trazado_148484" data-name="Trazado 148484" d="M52.5,226.209h2.326V204.5H52.5Zm34.322,0h2.326V204.5H86.822Zm-17.161,0h2.326V204.5H69.661Z" transform="translate(-47.848 -184.133)" fill="#ffd69f" fill-rule="evenodd"/>
      <path id="Trazado_148486" data-name="Trazado 148486" d="M129.05,202.412h6.306v-3.1h1.551V177.6h-1.551v-3.1H129.05v3.1H127.5v21.71h1.551Zm17.161,0h6.306v-3.1h1.551V177.6h-1.551v-3.1h-6.306v3.1H144.66v21.71h1.551Z" transform="translate(-115.093 -157.235)" fill="#463c5f" fill-rule="evenodd"/>
      <path id="Trazado_148488" data-name="Trazado 148488" d="M236,46.558a2.071,2.071,0,0,0,2.843,1.917,2.068,2.068,0,0,1,0-3.834A2.071,2.071,0,0,0,236,46.558Z" transform="translate(-212.378 -40.665)" fill="#cad8eb" fill-rule="evenodd"/>
    </g>
  </g>
  <g id="Grupo_85417" data-name="Grupo 85417" transform="translate(0)">
    <path id="Trazado_148490" data-name="Trazado 148490" d="M18.1,227v18.609H16.551v3.1H15v1.551H64.829v-1.551H63.279v-3.1H61.728V227H60.177v18.609H57.851v1.551h3.877v1.551h-9.3v-1.551H56.3v-1.551H53.974V227H52.424v18.609H50.873v3.1H46.117v-3.1H44.567V227H43.016v18.609H40.69v1.551h3.877v1.551h-9.3v-1.551h3.877v-1.551H36.813V227H35.263v18.609H33.712v3.1H28.956v-3.1H27.406V227H25.855v18.609H23.529v1.551h3.877v1.551H18.1v-1.551h3.877v-1.551H19.652V227Z" transform="translate(-13.449 -203.532)"/>
    <path id="Trazado_148491" data-name="Trazado 148491" d="M1.551,468.551H25.69V467H0v4.652H45.177V470.1H1.551Z" transform="translate(0 -418.721)"/>
    <path id="Trazado_148492" data-name="Trazado 148492" d="M263.5,468.551h24.139V470.1h-4.652v1.551h6.2V467H263.5Z" transform="translate(-236.259 -418.721)"/>
    <path id="Trazado_148493" data-name="Trazado 148493" d="M28.185,0h-3.44L13.227,5.278l.646,1.41L25.084,1.551h2.763L48.6,11.062H4.329l8.134-3.728-.646-1.41L0,11.339v7.476H3.1v3.1H15.507v-3.1h4.756v3.1H32.668v-3.1h4.756v3.1H49.829v-3.1h3.1V11.339ZM13.956,20.366h-9.3V18.815h9.3Zm34.322,0h-9.3V18.815h9.3Zm-21.038-3.1v1.551h3.877v1.551h-9.3V18.815H25.69V17.264H1.551V12.612H51.38v4.652Z" transform="translate(0)"/>
    <path id="Trazado_148494" data-name="Trazado 148494" d="M233.5,137h1.551v1.551H233.5Z" transform="translate(-209.361 -122.836)"/>
    <path id="Trazado_148495" data-name="Trazado 148495" d="M211.169,42.686a2.848,2.848,0,0,0,2.736-2.068h2.433V39.068H213.9a2.843,2.843,0,0,0-5.471,0H206v1.551h2.433A2.848,2.848,0,0,0,211.169,42.686Zm0-4.135a1.292,1.292,0,1,1-1.292,1.292A1.294,1.294,0,0,1,211.169,38.551Z" transform="translate(-184.704 -33.175)"/>
    <path id="Trazado_148496" data-name="Trazado 148496" d="M263.5,137h1.551v1.551H263.5Z" transform="translate(-236.259 -122.836)"/>
  </g>
</svg>
