<svg xmlns="http://www.w3.org/2000/svg" width="75.461" height="85" viewBox="0 0 75.461 85">
  <g id="contrato" transform="translate(-28.73)">
    <g id="Grupo_84352" data-name="Grupo 84352" transform="translate(29.976 1.245)">
      <g id="Grupo_84351" data-name="Grupo 84351" transform="translate(0)">
        <g id="Grupo_84350" data-name="Grupo 84350">
          <g id="Grupo_84339" data-name="Grupo 84339">
            <g id="Grupo_84338" data-name="Grupo 84338">
              <g id="Grupo_84337" data-name="Grupo 84337">
                <g id="Grupo_84336" data-name="Grupo 84336">
                  <g id="Grupo_84335" data-name="Grupo 84335">
                    <g id="Grupo_84334" data-name="Grupo 84334">
                      <g id="Grupo_84333" data-name="Grupo 84333">
                        <g id="Grupo_84332" data-name="Grupo 84332">
                          <g id="Grupo_84331" data-name="Grupo 84331">
                            <g id="Grupo_84330" data-name="Grupo 84330">
                              <path id="Trazado_147055" data-name="Trazado 147055" d="M41.363,7.5a5.129,5.129,0,0,0-5.129,5.129V78.694a5.129,5.129,0,0,0,5.129,5.129h48.22a5.129,5.129,0,0,0,5.129-5.129V23.315a3.885,3.885,0,0,0-1.138-2.747L81.644,8.638A3.885,3.885,0,0,0,78.9,7.5Z" transform="translate(-36.234 -7.5)" fill="#ffe9cb"/>
                              <path id="Trazado_147057" data-name="Trazado 147057" d="M315.975,22.326,304.045,10.4a3.881,3.881,0,0,0-1.138-.788v8.727a5.129,5.129,0,0,0,5.129,5.129h8.727A3.888,3.888,0,0,0,315.975,22.326Z" transform="translate(-258.635 -9.258)" fill="#ffba5b"/>
                            </g>
                          </g>
                        </g>
                      </g>
                    </g>
                  </g>
                </g>
              </g>
            </g>
          </g>
          <g id="Grupo_84349" data-name="Grupo 84349" transform="translate(9.725 41.992)">
            <g id="Grupo_84347" data-name="Grupo 84347" transform="translate(2.844 3.339)">
              <g id="Grupo_84346" data-name="Grupo 84346">
                <g id="Grupo_84341" data-name="Grupo 84341">
                  <g id="Grupo_84340" data-name="Grupo 84340">
                    <path id="Trazado_147058" data-name="Trazado 147058" d="M161.946,301.929l-18.319-10.848a1.977,1.977,0,0,1-.693-2.709l.937-1.582-3.706-2.193c-2.445-1.4-3.588-1.662-5.794-.81l-2.4.929a5.117,5.117,0,0,1-4.454-.37l-6.434-3.794-9.138,15.425,8.239,4.863a5.117,5.117,0,0,1,1.444,1.278l2.776,3.6a31.946,31.946,0,0,0,6.728,5.323l10.6,6.278a2.944,2.944,0,0,0,3-5.065l3.311,1.961a2.944,2.944,0,0,0,3-5.065l2.207,1.308a2.944,2.944,0,1,0,3-5.065l2.7,1.6a2.943,2.943,0,1,0,3-5.064Z" transform="translate(-111.941 -280.553)" fill="#ffece3"/>
                  </g>
                </g>
                <g id="Grupo_84342" data-name="Grupo 84342" transform="translate(26.208 0.922)">
                  <path id="Trazado_147060" data-name="Trazado 147060" d="M292.015,286.1l-4.942,2.872a5.118,5.118,0,0,1-4.454.37l-2.711-1.065a4.356,4.356,0,0,0-2.662-.169l-4.154,1.051a4.357,4.357,0,0,0-3.288,4.224v5.545a1.422,1.422,0,0,0,1.419,1.422,4.278,4.278,0,0,0,4.281-4.278v-.235l17.78,10.529a5.111,5.111,0,0,1,1.122-.9l6.746-3.942Z" transform="translate(-269.805 -286.104)" fill="#fcd0a3"/>
                </g>
                <g id="Grupo_84345" data-name="Grupo 84345" transform="translate(4.849 18.896)">
                  <g id="Grupo_84344" data-name="Grupo 84344">
                    <path id="Trazado_147062" data-name="Trazado 147062" d="M148.152,399.033l-1.667,2.322a2.943,2.943,0,0,1-4.781-3.432l1.667-2.322a2.943,2.943,0,1,1,4.781,3.432Z" transform="translate(-141.151 -394.374)" fill="#fcd0a3"/>
                    <path id="Trazado_147063" data-name="Trazado 147063" d="M178.789,404.272l-3.507,4.884a2.943,2.943,0,0,1-4.781-3.432l3.507-4.884a2.943,2.943,0,1,1,4.781,3.432Z" transform="translate(-165.169 -398.744)" fill="#fcd0a3"/>
                    <path id="Trazado_147064" data-name="Trazado 147064" d="M207.587,424.947l-3.507,4.884A2.943,2.943,0,1,1,199.3,426.4l3.507-4.884a2.943,2.943,0,1,1,4.781,3.432Z" transform="translate(-189.186 -415.986)" fill="#fcd0a3"/>
                  </g>
                  <path id="Trazado_147065" data-name="Trazado 147065" d="M238.758,458.694l-1.166,1.624a2.943,2.943,0,1,1-4.781-3.432l1.166-1.624a2.943,2.943,0,1,1,4.781,3.432Z" transform="translate(-217.133 -444.131)" fill="#f3d2b0"/>
                </g>
              </g>
            </g>
            <g id="Grupo_84348" data-name="Grupo 84348">
              <path id="Trazado_147066" data-name="Trazado 147066" d="M110.238,262.176l-2.577-1.527a1.492,1.492,0,0,0-2.044.523l-10.6,17.886a1.492,1.492,0,0,0,.523,2.044l2.577,1.527a3.638,3.638,0,0,0,4.985-1.276l8.409-14.193A3.638,3.638,0,0,0,110.238,262.176Z" transform="translate(-94.812 -260.441)" fill="#675d84"/>
              <path id="Trazado_147067" data-name="Trazado 147067" d="M376.456,260.649l-2.577,1.527a3.638,3.638,0,0,0-1.276,4.985l8.409,14.193A3.638,3.638,0,0,0,386,282.63l2.577-1.527a1.492,1.492,0,0,0,.523-2.044l-10.6-17.886A1.492,1.492,0,0,0,376.456,260.649Z" transform="translate(-326.061 -260.441)" fill="#ff7758"/>
            </g>
          </g>
        </g>
      </g>
    </g>
    <g id="Grupo_84355" data-name="Grupo 84355" transform="translate(28.73 0)">
      <g id="Grupo_84354" data-name="Grupo 84354" transform="translate(0)">
        <g id="Grupo_84353" data-name="Grupo 84353">
          <path id="Trazado_147068" data-name="Trazado 147068" d="M124.189,137.8H83.483a1.25,1.25,0,0,0,0,2.5h40.705a1.25,1.25,0,1,0,0-2.5Z" transform="translate(-73.351 -114.926)"/>
          <path id="Trazado_147069" data-name="Trazado 147069" d="M83.483,88.058h20.353a1.25,1.25,0,1,0,0-2.5H83.483a1.25,1.25,0,0,0,0,2.5Z" transform="translate(-73.351 -71.353)"/>
          <path id="Trazado_147070" data-name="Trazado 147070" d="M124.189,184.1H83.483a1.25,1.25,0,1,0,0,2.5h40.705a1.25,1.25,0,1,0,0-2.5Z" transform="translate(-73.351 -153.533)"/>
          <path id="Trazado_147071" data-name="Trazado 147071" d="M48.135,76.312H35.108a3.882,3.882,0,0,1-3.878-3.878V6.378A3.882,3.882,0,0,1,35.108,2.5H72.637A2.675,2.675,0,0,1,73,2.528v7.8A6.386,6.386,0,0,0,79.374,16.7h7.8a2.654,2.654,0,0,1,.027.359V38.357a1.25,1.25,0,1,0,2.5,0V17.064a5.1,5.1,0,0,0-1.5-3.631L76.268,1.5A5.1,5.1,0,0,0,72.637,0H35.108A6.386,6.386,0,0,0,28.73,6.378V72.434a6.386,6.386,0,0,0,6.378,6.378H48.135a1.25,1.25,0,1,0,0-2.5ZM85.431,14.2H79.375A3.882,3.882,0,0,1,75.5,10.326V4.269Z" transform="translate(-28.73 0)"/>
          <path id="Trazado_147072" data-name="Trazado 147072" d="M152.65,272.131l-10.595-17.883a2.741,2.741,0,0,0-3.757-.962l-2.577,1.527a4.9,4.9,0,0,0-2.159,5.708,3.834,3.834,0,0,1-2.7-.029c-2.035-.64-3.582-1.928-6.136-1.282-4.338,1.1-4.206,1.049-4.6,1.184-2.54-1.446-4.067-1.876-6.763-.833l-2.4.929a3.846,3.846,0,0,1-3.367-.281l-.656-.387a4.885,4.885,0,0,0-2.331-5.008h0l-2.577-1.527a2.746,2.746,0,0,0-3.757.962l-10.6,17.883a2.741,2.741,0,0,0,.962,3.757l2.577,1.527a4.858,4.858,0,0,0,2.483.682,4.922,4.922,0,0,0,2.671-.789l.537.317L95.776,279.2a4.189,4.189,0,0,0,4.056,6.584,4.186,4.186,0,0,0,4.781,3.434,4.19,4.19,0,0,0,5.784,3.145,4.188,4.188,0,0,0,7.123,1.178l3.013,1.785a4.2,4.2,0,0,0,6.3-3.107l.007,0a4.193,4.193,0,0,0,6.319-3.3,4.194,4.194,0,0,0,5.2-3.627,4.2,4.2,0,0,0,4.741-6.6l1.661-.97a4.878,4.878,0,0,0,4.352-.311l2.577-1.527A2.74,2.74,0,0,0,152.65,272.131Zm-60.157,3.132-2.577-1.527a.242.242,0,0,1-.085-.331l10.6-17.884a.242.242,0,0,1,.331-.085l2.577,1.527a2.387,2.387,0,0,1,.837,3.271l-8.407,14.191a2.39,2.39,0,0,1-3.271.837Zm5.7,7.76a1.691,1.691,0,0,1-.387-2.361l1.667-2.322a1.692,1.692,0,0,1,2.749,1.973l-1.667,2.322A1.694,1.694,0,0,1,98.195,283.023Zm4.78,3.432a1.694,1.694,0,0,1-.388-2.361l1.667-2.321h0l1.839-2.562a1.68,1.68,0,0,1,1.1-.683,1.7,1.7,0,0,1,.278-.023,1.692,1.692,0,0,1,1.371,2.679l-3.506,4.884A1.691,1.691,0,0,1,102.975,286.455Zm4.78,3.432a1.694,1.694,0,0,1-.388-2.36h0l3.506-4.884a1.692,1.692,0,1,1,2.749,1.973l-1.558,2.17h0l-1.948,2.714A1.693,1.693,0,0,1,107.755,289.887Zm5.563,2.342a1.694,1.694,0,0,1-.389-2.36l1.167-1.625a1.692,1.692,0,0,1,2.749,1.973l-1.166,1.624A1.693,1.693,0,0,1,113.318,292.229Zm28.027-9.97a1.7,1.7,0,0,1-2.319.594L127.957,276.3a1.25,1.25,0,0,0-1.275,2.151l8.368,4.957h0a1.693,1.693,0,0,1-1.726,2.913l-8.372-4.96a1.25,1.25,0,1,0-1.275,2.151l6.165,3.653h0a1.693,1.693,0,0,1-1.727,2.912l-3.309-1.96h0l-2.415-1.431a1.25,1.25,0,1,0-1.275,2.151l2.415,1.431h0a1.693,1.693,0,1,1-1.726,2.913l-2.817-1.669a4.19,4.19,0,0,0-2.816-6.41,4.189,4.189,0,0,0-4.575-5.609,4.192,4.192,0,0,0-7.112-2.241,4.189,4.189,0,0,0-5.829-1.5l-.573-.338,7.864-13.274.374.221a6.331,6.331,0,0,0,5.541.461l2.4-.929a3.69,3.69,0,0,1,3.494.076,5.6,5.6,0,0,0-1.419,3.728v5.544a2.675,2.675,0,0,0,2.669,2.672h0a5.538,5.538,0,0,0,5.235-3.743l16.5,9.771a1.692,1.692,0,0,1,.593,2.318Zm9.069-8.523-2.577,1.527a2.39,2.39,0,0,1-3.271-.837l-3.941-6.651a1.25,1.25,0,0,0-2.152,1.274l3.941,6.652c.074.125.155.244.238.36l-1.1.64a6.343,6.343,0,0,0-.638.432l-16.987-10.06a1.251,1.251,0,0,0-1.887,1.076,3.193,3.193,0,0,1-.887,2.376,3.008,3.008,0,0,1-2.14.886h0a.171.171,0,0,1-.169-.172V265.7a3.111,3.111,0,0,1,2.344-3.011l4.153-1.051c1.507-.381,2.359.424,4.615,1.188a6.321,6.321,0,0,0,4.781-.077l.755,1.274a1.25,1.25,0,1,0,2.152-1.275l-1.486-2.509a2.387,2.387,0,0,1,.837-3.271l2.577-1.526a.241.241,0,0,1,.331.085L150.5,273.405A.241.241,0,0,1,150.414,273.737Z" transform="translate(-77.573 -210.916)"/>
        </g>
      </g>
    </g>
  </g>
</svg>
