<svg xmlns="http://www.w3.org/2000/svg" width="190" height="118" viewBox="0 0 190 118">
  <g id="Grupo_85497" data-name="Grupo 85497" transform="translate(-181 -1455.221)">
    <rect id="Rect치ngulo_31483" data-name="Rect치ngulo 31483" width="190" height="118" rx="10" transform="translate(181 1455.221)" fill="#ffe9cb"/>
    <rect id="Rect치ngulo_31484" data-name="Rect치ngulo 31484" width="11" height="118" transform="translate(360 1455.221)" fill="#ffba5b"/>
    <g id="transporte-privado-2" transform="translate(224.717 1469.938)">
      <path id="Trazado_146988" data-name="Trazado 146988" d="M87.183,44.283H75.618l-6.7-14.7-.022-.045a5.823,5.823,0,0,0-3.859-3.075V22.01q0-.033,0-.066a4.147,4.147,0,0,0-4.147-3.954H55.354V4.152A4.024,4.024,0,0,0,51.375,0h-9.86a1.384,1.384,0,0,0-1.384,1.384v9.341c0,3.312,3.719,5.881,6.919,5.881V17.99H40.132a4.156,4.156,0,0,0-4.152,4.152v4.152H28.8a5.9,5.9,0,0,0-4.993,2.79l-9.353,15.2H1.384A1.384,1.384,0,0,0,0,45.667V66.425a1.384,1.384,0,0,0,1.384,1.384h11.16a11.068,11.068,0,0,0,21.962,0h7.009V82.176l-2,1a1.384,1.384,0,0,0-.765,1.238v2.768a1.384,1.384,0,0,0,1.384,1.384H56.738a1.384,1.384,0,0,0,1.384-1.384V67.809h4.241a11.068,11.068,0,0,0,21.962,0h2.857a1.384,1.384,0,0,0,1.384-1.384V45.667A1.384,1.384,0,0,0,87.183,44.283ZM85.8,51.2H83.031V47.051H85.8ZM66.414,30.751l6.163,13.532H65.041v-14.9a3.081,3.081,0,0,1,1.373,1.365ZM60.889,52.586H58.122V51.2h2.768ZM51.375,2.768a1.258,1.258,0,0,1,1.211,1.384V6.865L49.455,4.441a1.384,1.384,0,0,0-.848-.29H42.9V2.768ZM42.9,10.725V6.919h5.235l4.452,3.446V17.99H49.819V15.222a1.384,1.384,0,0,0-1.384-1.384H47.051C45.238,13.839,42.9,12.329,42.9,10.725ZM38.748,34.6V22.142a1.385,1.385,0,0,1,1.384-1.384H60.893a1.382,1.382,0,0,1,1.381,1.291V48.435H59.506V24.909H56.738V45.667H44.283V24.909H41.516V38.748H29.061V35.98h8.3A1.384,1.384,0,0,0,38.748,34.6ZM26.16,30.534A3.115,3.115,0,0,1,28.8,29.061H35.98v4.152h-8.3A1.384,1.384,0,0,0,26.293,34.6v5.535a1.384,1.384,0,0,0,1.384,1.384H41.516v2.768H17.7ZM5.535,47.051V51.2H2.768V47.051Zm17.99,27.677a8.3,8.3,0,1,1,8.3-8.3A8.3,8.3,0,0,1,23.525,74.728Zm10.981-9.687a11.068,11.068,0,0,0-21.962,0H2.768V53.97H6.919A1.384,1.384,0,0,0,8.3,52.586V47.051H41.516v17.99ZM55.354,85.8H51.2V52.586H48.435V85.8H41.516V85.27l2-1a1.384,1.384,0,0,0,.765-1.238v-34.6H55.354Zm2.768-30.445h4.152v9.687H58.122ZM73.344,74.728a8.3,8.3,0,1,1,8.3-8.3A8.3,8.3,0,0,1,73.344,74.728Zm10.981-9.687a11.061,11.061,0,0,0-19.284-5.927V53.97a1.384,1.384,0,0,0-1.384-1.384V51.2a1.384,1.384,0,0,0,1.384-1.384V47.051H80.263v5.535a1.384,1.384,0,0,0,1.384,1.384H85.8V65.041Z" fill="#463c5f"/>
      <path id="Trazado_146989" data-name="Trazado 146989" d="M116.152,360a4.152,4.152,0,1,0,4.152,4.152A4.152,4.152,0,0,0,116.152,360Zm0,5.535a1.384,1.384,0,1,1,1.384-1.384A1.384,1.384,0,0,1,116.152,365.535Z" transform="translate(-92.626 -297.727)" fill="#463c5f"/>
      <path id="Trazado_146990" data-name="Trazado 146990" d="M404.152,360a4.152,4.152,0,1,0,4.152,4.152A4.152,4.152,0,0,0,404.152,360Zm0,5.535a1.384,1.384,0,1,1,1.384-1.384A1.384,1.384,0,0,1,404.152,365.535Z" transform="translate(-330.808 -297.727)" fill="#463c5f"/>
    </g>
  </g>
</svg>
