<svg xmlns="http://www.w3.org/2000/svg" width="610" height="370" viewBox="0 0 610 370">
  <g id="Grupo_85495" data-name="Grupo 85495" transform="translate(-810.008 -90.447)">
    <rect id="Rectángulo_6948" data-name="Rectángulo 6948" width="610" height="370" transform="translate(810.008 90.447)" fill="#c3b5ec"/>
    <g id="organizacion" transform="translate(1037.008 197.447)">
      <path id="Trazado_146935" data-name="Trazado 146935" d="M24,136H63v83.2H24Zm0,0" transform="translate(-16.2 -91.8)" fill="#ccdce5"/>
      <path id="Trazado_146936" data-name="Trazado 146936" d="M24,328H63v23.4H24Zm0,0" transform="translate(-16.2 -221.4)" fill="#ff7758"/>
      <path id="Trazado_146937" data-name="Trazado 146937" d="M8,104H52.2v10.4H8Zm0,0" transform="translate(-5.4 -70.2)" fill="#ff7758"/>
      <path id="Trazado_146941" data-name="Trazado 146941" d="M336,136h39v83.2H336Zm0,0" transform="translate(-226.8 -91.8)" fill="#ccdce5"/>
      <path id="Trazado_146942" data-name="Trazado 146942" d="M336,328h39v23.4H336Zm0,0" transform="translate(-226.8 -221.4)" fill="#ff7758"/>
      <path id="Trazado_146943" data-name="Trazado 146943" d="M336,104h44.2v10.4H336Zm0,0" transform="translate(-226.8 -70.2)" fill="#ff7758"/>
      <path id="Trazado_146947" data-name="Trazado 146947" d="M136,32h67.6V149H136Zm0,0" transform="translate(-91.8 -21.6)" fill="#ccdce5"/>
      <path id="Trazado_146948" data-name="Trazado 146948" d="M120,8h78V18.4H120Zm0,0" transform="translate(-81 -5.4)" fill="#ff7758"/>
      <path id="Trazado_146949" data-name="Trazado 146949" d="M228.8,186.4A10.4,10.4,0,1,1,218.4,176,10.4,10.4,0,0,1,228.8,186.4Zm0,0" transform="translate(-140.4 -118.8)" fill="#ffba5b"/>
      <path id="Trazado_146950" data-name="Trazado 146950" d="M176,258.2V253a13,13,0,0,1,13-13h15.6a13,13,0,0,1,13,13v5.2a5.2,5.2,0,0,1-5.2,5.2h-5.2v13H186.4v-13h-5.2A5.2,5.2,0,0,1,176,258.2Zm0,0" transform="translate(-118.8 -162)" fill="#ffba5b"/>
      <g id="Grupo_84320" data-name="Grupo 84320" transform="translate(2.6 137.8)">
        <path id="Trazado_146952" data-name="Trazado 146952" d="M8,424H44.4v15.6H8Zm0,0" transform="translate(-8 -424)" fill="#ffba5b"/>
        <path id="Trazado_146953" data-name="Trazado 146953" d="M184,424h36.4v15.6H184Zm0,0" transform="translate(-126.8 -424)" fill="#ffba5b"/>
        <path id="Trazado_146954" data-name="Trazado 146954" d="M360,424h36.4v15.6H360Zm0,0" transform="translate(-245.6 -424)" fill="#ffba5b"/>
      </g>
      <path id="Trazado_146955" data-name="Trazado 146955" d="M232,288h5.2v5.2H232Zm0,0" transform="translate(-156.6 -194.4)"/>
      <path id="Trazado_146956" data-name="Trazado 146956" d="M153.4,248.6H137.8v-7.8a2.6,2.6,0,0,0-2.6-2.6H80.6v-7.8h7.8a2.6,2.6,0,0,0,2.6-2.6V217.4h2.6a7.8,7.8,0,0,0,7.8-7.8v-5.2A15.6,15.6,0,0,0,88.169,189a13,13,0,1,0-20.338,0A15.6,15.6,0,0,0,54.6,204.4v5.2a7.8,7.8,0,0,0,7.8,7.8H65v10.4a2.6,2.6,0,0,0,2.6,2.6h7.8v7.8H20.8a2.6,2.6,0,0,0-2.6,2.6v7.8H2.6A2.6,2.6,0,0,0,0,251.2v15.6a2.6,2.6,0,0,0,2.6,2.6H39a2.6,2.6,0,0,0,2.6-2.6V251.2a2.6,2.6,0,0,0-2.6-2.6H23.4v-5.2h52v5.2H59.8a2.6,2.6,0,0,0-2.6,2.6v15.6a2.6,2.6,0,0,0,2.6,2.6H96.2a2.6,2.6,0,0,0,2.6-2.6V251.2a2.6,2.6,0,0,0-2.6-2.6H80.6v-5.2h52v5.2H117a2.6,2.6,0,0,0-2.6,2.6v15.6a2.6,2.6,0,0,0,2.6,2.6h36.4a2.6,2.6,0,0,0,2.6-2.6V251.2A2.6,2.6,0,0,0,153.4,248.6ZM78,173.2a7.8,7.8,0,1,1-7.8,7.8A7.8,7.8,0,0,1,78,173.2Zm-7.8,41.6V204.4H65v7.8H62.4a2.6,2.6,0,0,1-2.6-2.6v-5.2A10.4,10.4,0,0,1,70.2,194h5.2v7.8h5.2V194h5.2a10.4,10.4,0,0,1,10.4,10.4v5.2a2.6,2.6,0,0,1-2.6,2.6H91v-7.8H85.8v20.8H70.2ZM36.4,264.2H5.2V253.8H36.4Zm57.2,0H62.4V253.8H93.6Zm57.2,0H119.6V253.8h31.2Zm0,0" transform="translate(0 -113.4)"/>
      <path id="Trazado_146957" data-name="Trazado 146957" d="M56,168h5.2v5.2H56Zm0,0" transform="translate(-37.8 -113.4)"/>
      <path id="Trazado_146958" data-name="Trazado 146958" d="M88,168h5.2v5.2H88Zm0,0" transform="translate(-59.4 -113.4)"/>
      <path id="Trazado_146959" data-name="Trazado 146959" d="M56,200h5.2v5.2H56Zm0,0" transform="translate(-37.8 -135)"/>
      <path id="Trazado_146960" data-name="Trazado 146960" d="M88,200h5.2v5.2H88Zm0,0" transform="translate(-59.4 -135)"/>
      <path id="Trazado_146961" data-name="Trazado 146961" d="M168,72h5.2v5.2H168Zm0,0" transform="translate(-113.4 -48.6)"/>
      <path id="Trazado_146962" data-name="Trazado 146962" d="M200,72h5.2v5.2H200Zm0,0" transform="translate(-135 -48.6)"/>
      <path id="Trazado_146963" data-name="Trazado 146963" d="M168,104h5.2v5.2H168Zm0,0" transform="translate(-113.4 -70.2)"/>
      <path id="Trazado_146964" data-name="Trazado 146964" d="M200,104h5.2v5.2H200Zm0,0" transform="translate(-135 -70.2)"/>
      <path id="Trazado_146965" data-name="Trazado 146965" d="M168,144h5.2v5.2H168Zm0,0" transform="translate(-113.4 -97.2)"/>
      <path id="Trazado_146966" data-name="Trazado 146966" d="M200,144h5.2v5.2H200Zm0,0" transform="translate(-135 -97.2)"/>
      <path id="Trazado_146967" data-name="Trazado 146967" d="M168,176h5.2v5.2H168Zm0,0" transform="translate(-113.4 -118.8)"/>
      <path id="Trazado_146968" data-name="Trazado 146968" d="M296,144h5.2v5.2H296Zm0,0" transform="translate(-199.8 -97.2)"/>
      <path id="Trazado_146969" data-name="Trazado 146969" d="M264,144h5.2v5.2H264Zm0,0" transform="translate(-178.2 -97.2)"/>
      <path id="Trazado_146970" data-name="Trazado 146970" d="M296,176h5.2v5.2H296Zm0,0" transform="translate(-199.8 -118.8)"/>
      <path id="Trazado_146971" data-name="Trazado 146971" d="M296,72h5.2v5.2H296Zm0,0" transform="translate(-199.8 -48.6)"/>
      <path id="Trazado_146972" data-name="Trazado 146972" d="M264,72h5.2v5.2H264Zm0,0" transform="translate(-178.2 -48.6)"/>
      <path id="Trazado_146973" data-name="Trazado 146973" d="M296,104h5.2v5.2H296Zm0,0" transform="translate(-199.8 -70.2)"/>
      <path id="Trazado_146974" data-name="Trazado 146974" d="M264,104h5.2v5.2H264Zm0,0" transform="translate(-178.2 -70.2)"/>
      <path id="Trazado_146975" data-name="Trazado 146975" d="M56,240h5.2v5.2H56Zm0,0" transform="translate(-37.8 -162)"/>
      <path id="Trazado_146976" data-name="Trazado 146976" d="M88,240h5.2v5.2H88Zm0,0" transform="translate(-59.4 -162)"/>
      <path id="Trazado_146977" data-name="Trazado 146977" d="M56,272h5.2v5.2H56Zm0,0" transform="translate(-37.8 -183.6)"/>
      <path id="Trazado_146978" data-name="Trazado 146978" d="M88,272h5.2v5.2H88Zm0,0" transform="translate(-59.4 -183.6)"/>
      <path id="Trazado_146979" data-name="Trazado 146979" d="M408,168h5.2v5.2H408Zm0,0" transform="translate(-275.4 -113.4)"/>
      <path id="Trazado_146980" data-name="Trazado 146980" d="M376,168h5.2v5.2H376Zm0,0" transform="translate(-253.8 -113.4)"/>
      <path id="Trazado_146981" data-name="Trazado 146981" d="M408,200h5.2v5.2H408Zm0,0" transform="translate(-275.4 -135)"/>
      <path id="Trazado_146982" data-name="Trazado 146982" d="M376,200h5.2v5.2H376Zm0,0" transform="translate(-253.8 -135)"/>
      <path id="Trazado_146983" data-name="Trazado 146983" d="M408,240h5.2v5.2H408Zm0,0" transform="translate(-275.4 -162)"/>
      <path id="Trazado_146984" data-name="Trazado 146984" d="M376,240h5.2v5.2H376Zm0,0" transform="translate(-253.8 -162)"/>
      <path id="Trazado_146985" data-name="Trazado 146985" d="M408,272h5.2v5.2H408Zm0,0" transform="translate(-275.4 -183.6)"/>
      <path id="Trazado_146986" data-name="Trazado 146986" d="M376,272h5.2v5.2H376Zm0,0" transform="translate(-253.8 -183.6)"/>
      <path id="Trazado_146987" data-name="Trazado 146987" d="M153.4,31.2h-39V15.6H117a2.6,2.6,0,0,0,2.6-2.6V2.6A2.6,2.6,0,0,0,117,0H39a2.6,2.6,0,0,0-2.6,2.6V13A2.6,2.6,0,0,0,39,15.6h2.6V31.2H2.6A2.6,2.6,0,0,0,0,33.8V44.2a2.6,2.6,0,0,0,2.6,2.6H5.2V130h5.2V109.2H41.6v10.4h5.2V15.6h62.4v104h5.2V109.2h31.2V130h5.2V46.8h2.6a2.6,2.6,0,0,0,2.6-2.6V33.8A2.6,2.6,0,0,0,153.4,31.2ZM5.2,36.4H41.6v5.2H5.2ZM10.4,104V46.8H41.6V104ZM44.2,10.4H41.6V5.2h72.8v5.2ZM114.4,104V46.8h31.2V104Zm36.4-62.4H114.4V36.4h36.4Zm0,0"/>
    </g>
  </g>
</svg>
