<svg xmlns="http://www.w3.org/2000/svg" width="70.832" height="84.998" viewBox="0 0 70.832 84.998">
  <g id="acceso" transform="translate(-42.666)">
    <g id="Grupo_84322" data-name="Grupo 84322" transform="translate(44.437 1.771)">
      <g id="Grupo_84321" data-name="Grupo 84321" transform="translate(0 7.083)">
        <path id="Trazado_147009" data-name="Trazado 147009" d="M56.875,60.416H92.291V53.333H56.875a3.542,3.542,0,1,0,0,7.083Z" transform="translate(-53.333 -53.333)" fill="#ffe9cb"/>
        <path id="Trazado_147010" data-name="Trazado 147010" d="M139.414,96l-22.539,22.538a3.542,3.542,0,0,0,5.009,5.009l22.538-22.539V96Z" transform="translate(-105.465 -88.918)" fill="#ffe9cb"/>
      </g>
      <path id="Trazado_147011" data-name="Trazado 147011" d="M288,29.842V92.123h28.333V10.667H288V29.842Zm21.25-5.008H295.082V17.75h14.167Z" transform="translate(-249.042 -10.667)" fill="#675d84"/>
      <rect id="Rectángulo_31674" data-name="Rectángulo 31674" width="14.166" height="7.083" transform="translate(46.041 7.083)" fill="#f8e39e"/>
    </g>
    <g id="Grupo_84323" data-name="Grupo 84323" transform="translate(42.666)">
      <path id="Trazado_147012" data-name="Trazado 147012" d="M111.727,0H83.395a1.771,1.771,0,0,0-1.771,1.771V7.083H47.979a5.312,5.312,0,1,0,0,10.625H74.11L54.6,37.223a5.313,5.313,0,0,0,7.513,7.513L81.623,25.221V83.227A1.771,1.771,0,0,0,83.394,85h28.333a1.771,1.771,0,0,0,1.771-1.771V1.771A1.771,1.771,0,0,0,111.727,0ZM46.208,12.4a1.773,1.773,0,0,1,1.771-1.771H81.623v3.542H47.979A1.773,1.773,0,0,1,46.208,12.4ZM59.6,42.232a1.771,1.771,0,1,1-2.5-2.5l22.02-22.02h2.5v2.5Zm50.352,39.224h-3.542V70.834a1.771,1.771,0,1,0-3.542,0V81.457H99.331V70.834a1.771,1.771,0,0,0-3.542,0V81.457H92.249V70.834a1.771,1.771,0,0,0-3.542,0V81.457H85.165V3.542h24.791V81.457Z" transform="translate(-42.666)" fill="#000003"/>
      <path id="Trazado_147013" data-name="Trazado 147013" d="M321.77,53.291h14.167a1.771,1.771,0,0,0,1.771-1.771V44.437a1.771,1.771,0,0,0-1.771-1.771H321.77A1.771,1.771,0,0,0,320,44.437V51.52A1.771,1.771,0,0,0,321.77,53.291Zm1.771-7.083h10.625v3.542H323.541Z" transform="translate(-273.958 -35.583)" fill="#000003"/>
      <path id="Trazado_147014" data-name="Trazado 147014" d="M344.315,213.854a1.771,1.771,0,0,0-2.5,0l-7.6,7.6v-3.983a1.771,1.771,0,0,0-3.542,0v8.259s0,.005,0,.008c0,.055,0,.111.008.166,0,.027.008.053.011.08s.008.061.014.091.014.059.021.088.013.054.021.08.019.056.029.084.018.053.029.08.023.05.035.076.025.055.039.082.027.046.041.069.031.054.048.08.034.047.052.071.033.046.051.069c.032.039.066.076.1.111l.016.018.017.016c.036.035.073.069.112.1.021.018.044.033.066.049s.048.037.074.054.052.032.078.047.047.029.071.042.053.026.08.039.051.025.077.036.053.019.079.029.056.021.085.03.053.014.08.021.058.016.088.022.062.01.093.014.052.009.078.011c.058.006.116.009.175.009H340.7a1.771,1.771,0,0,0,0-3.542h-3.983l7.6-7.6A1.77,1.77,0,0,0,344.315,213.854Z" transform="translate(-282.855 -177.919)" fill="#000003"/>
      <path id="Trazado_147015" data-name="Trazado 147015" d="M407.1,384.343a1.771,1.771,0,0,0-1.771,1.771v.13a1.771,1.771,0,1,0,3.542,0v-.13A1.771,1.771,0,0,0,407.1,384.343Z" transform="translate(-345.125 -320.538)" fill="#000003"/>
    </g>
  </g>
</svg>
