<svg xmlns="http://www.w3.org/2000/svg" xmlns:xlink="http://www.w3.org/1999/xlink" width="335.161" height="334.249" viewBox="0 0 335.161 334.249">
  <defs>
    <clipPath id="clip-path">
      <path id="Trazado_147110" data-name="Trazado 147110" d="M889.329,831.66V587.746l87.646-5.891V837.727Z" transform="translate(-889.329 -581.855)" fill="none"/>
    </clipPath>
    <linearGradient id="linear-gradient" x1="0.395" y1="-0.032" x2="0.888" y2="1.349" gradientUnits="objectBoundingBox">
      <stop offset="0" stop-color="#fcb148"/>
      <stop offset="0.052" stop-color="#fdb946"/>
      <stop offset="0.142" stop-color="#fec144"/>
      <stop offset="0.318" stop-color="#ffc444"/>
      <stop offset="0.485" stop-color="#fdb946"/>
      <stop offset="0.775" stop-color="#f99c4c"/>
      <stop offset="0.866" stop-color="#f8924f"/>
      <stop offset="1" stop-color="#f8924f"/>
    </linearGradient>
    <clipPath id="clip-path-2">
      <rect id="Rectángulo_31679" data-name="Rectángulo 31679" width="227.757" height="101.801" transform="translate(101.801 0) rotate(90)" fill="none"/>
    </clipPath>
    <clipPath id="clip-path-3">
      <path id="Trazado_147120" data-name="Trazado 147120" d="M1630.99,837.727V581.855l64.788,14.156V823.786Z" transform="translate(-1630.99 -581.855)" fill="none"/>
    </clipPath>
    <linearGradient id="linear-gradient-2" y1="0.5" x2="1" y2="0.5" gradientUnits="objectBoundingBox">
      <stop offset="0" stop-color="#311944"/>
      <stop offset="1" stop-color="#a03976"/>
    </linearGradient>
    <linearGradient id="linear-gradient-5" x1="1.553" y1="0.577" x2="-0.085" y2="0.457" gradientUnits="objectBoundingBox">
      <stop offset="0.005" stop-color="#d8dee8"/>
      <stop offset="1" stop-color="#f4f7fa"/>
    </linearGradient>
    <linearGradient id="linear-gradient-6" x1="1.553" y1="0.577" x2="-0.085" y2="0.457" xlink:href="#linear-gradient-5"/>
    <linearGradient id="linear-gradient-10" x1="0" y1="0.5" x2="1" y2="0.5" xlink:href="#linear-gradient-5"/>
  </defs>
  <g id="Grupo_84397" data-name="Grupo 84397" transform="translate(-459.798 -426.582)">
    <path id="Trazado_147104" data-name="Trazado 147104" d="M713.232,446.006c11.443,16.02-1.5,42.323,15.355,54.284,16.407,11.643,36.207-7.933,51.659,2.076,22.923,14.847,19.492,83.925-13.339,127.168-9.874,13-18.184,18.111-21.735,32.739-7.624,31.409,20.525,49.749,15.369,65.3-11.611,35.01-195.51,66.22-270.525-37.841-35.035-48.6-40.944-119.25-10.666-173.275C534.061,418.832,687.555,410.061,713.232,446.006Z" transform="translate(0 0)" fill="#ffe9cb"/>
    <g id="Grupo_84378" data-name="Grupo 84378" transform="translate(503.216 432.09)">
      <g id="Grupo_84368" data-name="Grupo 84368" transform="translate(0 0)">
        <path id="Trazado_147105" data-name="Trazado 147105" d="M922.191,754.743,827.2,747.517v-267.3l94.988-7.035Z" transform="translate(-827.203 -473.187)" fill="#c6563d"/>
        <path id="Trazado_147106" data-name="Trazado 147106" d="M891.189,1357.506V1471.1h-1.86v29.073h87.646V1357.506Z" transform="translate(-881.987 -1253.001)" fill="#d8dee8"/>
        <g id="Grupo_84367" data-name="Grupo 84367" transform="translate(7.342 12.842)">
          <g id="Grupo_84366" data-name="Grupo 84366" clip-path="url(#clip-path)">
            <g id="Grupo_84365" data-name="Grupo 84365" transform="translate(-25.107 -32.323)">
              <path id="Trazado_147107" data-name="Trazado 147107" d="M818.056,308.336s.092,61.491,13.881,89.717,18.977,55.708,8.6,71.8-50.913-8.462-50.913-8.462-19.127,13.495-27.774,42.37S697,556.7,684.895,548.559,677.977,322.5,677.977,322.5Z" transform="translate(-676.872 -308.336)" fill="#fff"/>
              <path id="Trazado_147108" data-name="Trazado 147108" d="M722.809,1273.433s34.057,15.881,59.831,1.206,47.494-41.048,47.494-41.048,26.211,16.061,40.292,15.164,24.5-46.074,24.5-46.074S918.228,1191.1,928.6,1167.6s42.226-49.1,59.663-54.457,27.67,4.648,27.67,4.648l-4.323,204.846-269.126,14.093Z" transform="translate(-717.38 -1016.64)" fill="#fff"/>
              <path id="Trazado_147109" data-name="Trazado 147109" d="M1990.246,373.051s-9.183,42.133,0,53.3,16.18,43.131,18.734,51.793,22.442,27.621,32.818,10.359,25.941-29.853,33.723-35.663,57.069-11.777,59.663-16.143,4.323-53.913,4.323-53.913Z" transform="translate(-1831.439 -365.403)" fill="url(#linear-gradient)"/>
            </g>
          </g>
        </g>
      </g>
      <g id="Grupo_84372" data-name="Grupo 84372" transform="translate(129.227 15.73)">
        <rect id="Rectángulo_31678" data-name="Rectángulo 31678" width="110.783" height="250.467" transform="translate(141.332 250.467) rotate(180)" fill="#ff7758"/>
        <path id="Trazado_147111" data-name="Trazado 147111" d="M2053.071,929.4V701.647h-101.8l-30.549,86L1951.271,929.4Z" transform="translate(-1920.722 -690.378)" fill="#d8dee8"/>
        <g id="Grupo_84371" data-name="Grupo 84371" transform="translate(30.549 11.268)">
          <g id="Grupo_84370" data-name="Grupo 84370" transform="translate(0 0)" clip-path="url(#clip-path-2)">
            <g id="Grupo_84369" data-name="Grupo 84369" transform="translate(-177.541 -46.48)">
              <path id="Trazado_147112" data-name="Trazado 147112" d="M818.056,308.336s.092,61.491,13.881,89.717,18.977,55.708,8.6,71.8-50.913-8.462-50.913-8.462-19.127,13.495-27.774,42.37S697,556.7,684.895,548.559,677.977,322.5,677.977,322.5Z" transform="translate(-676.872 -308.336)" fill="#fff"/>
              <path id="Trazado_147113" data-name="Trazado 147113" d="M722.809,1273.433s34.057,15.881,59.831,1.206,47.494-41.048,47.494-41.048,26.211,16.061,40.292,15.164,24.5-46.074,24.5-46.074S918.228,1191.1,928.6,1167.6s42.226-49.1,59.663-54.457,27.67,4.648,27.67,4.648l-4.323,204.846-269.126,14.093Z" transform="translate(-717.38 -1016.64)" fill="#fff"/>
              <path id="Trazado_147114" data-name="Trazado 147114" d="M1990.246,373.051s-9.183,42.133,0,53.3,16.18,43.131,18.734,51.793,22.442,27.621,32.818,10.359,25.941-29.853,33.723-35.663,57.069-11.777,59.663-16.143,4.323-53.913,4.323-53.913Z" transform="translate(-1831.439 -365.403)" fill="#fff"/>
            </g>
          </g>
        </g>
      </g>
      <g id="Grupo_84376" data-name="Grupo 84376" transform="translate(94.988 0)">
        <path id="Trazado_147115" data-name="Trazado 147115" d="M1695.778,739.384l-64.788,15.359V473.187l64.788,15.73v11.268l-12.128,24.072-3.705,198.923,15.833,4.761Z" transform="translate(-1630.99 -473.187)" fill="#ff7758"/>
        <path id="Trazado_147116" data-name="Trazado 147116" d="M1695.778,834.44V647.764l-22.813-7.809-11.315-2.5-1.952-.229V751.118H1630.99V834.44Z" transform="translate(-1630.99 -617.84)" fill="#97a6b7"/>
        <g id="Grupo_84375" data-name="Grupo 84375" transform="translate(0 12.842)">
          <g id="Grupo_84374" data-name="Grupo 84374" clip-path="url(#clip-path-3)">
            <g id="Grupo_84373" data-name="Grupo 84373" transform="translate(-112.753 -32.323)">
              <path id="Trazado_147117" data-name="Trazado 147117" d="M818.056,308.336s.092,61.491,13.881,89.717,18.977,55.708,8.6,71.8-50.913-8.462-50.913-8.462-19.127,13.495-27.774,42.37S697,556.7,684.895,548.559,677.977,322.5,677.977,322.5Z" transform="translate(-676.872 -308.336)" fill="#d8dee8"/>
              <path id="Trazado_147118" data-name="Trazado 147118" d="M722.809,1273.433s34.057,15.881,59.831,1.206,47.494-41.048,47.494-41.048,26.211,16.061,40.292,15.164,24.5-46.074,24.5-46.074S918.228,1191.1,928.6,1167.6s42.226-49.1,59.663-54.457,27.67,4.648,27.67,4.648l-4.323,204.846-269.126,14.093Z" transform="translate(-717.38 -1016.64)" fill="#d8dee8"/>
              <path id="Trazado_147119" data-name="Trazado 147119" d="M1990.246,373.051s-9.183,42.133,0,53.3,16.18,43.131,18.734,51.793,22.442,27.621,32.818,10.359,25.941-29.853,33.723-35.663,57.069-11.777,59.663-16.143,4.323-53.913,4.323-53.913Z" transform="translate(-1831.439 -365.403)" fill="#d8dee8"/>
            </g>
          </g>
        </g>
      </g>
      <g id="Grupo_84377" data-name="Grupo 84377" transform="translate(7.269 15.787)">
        <rect id="Rectángulo_31680" data-name="Rectángulo 31680" width="1.729" height="239.199" transform="translate(202.542 11.211)" opacity="0.53" fill="url(#linear-gradient-2)"/>
        <rect id="Rectángulo_31681" data-name="Rectángulo 31681" width="1.729" height="250.41" transform="translate(43.031)" opacity="0.53" fill="url(#linear-gradient-2)"/>
        <path id="Trazado_147121" data-name="Trazado 147121" d="M1143.02,1251.162h-101.9l-.1-.024-64.653-15.367-87.508,7.391-.146-1.724,87.784-7.414.135.032,64.689,15.375h101.7Z" transform="translate(-888.713 -1159.9)" opacity="0.53" fill="url(#linear-gradient-2)"/>
      </g>
    </g>
    <g id="Grupo_84386" data-name="Grupo 84386" transform="translate(464.48 592.611)">
      <path id="Trazado_147122" data-name="Trazado 147122" d="M612.442,2760.036v15.875a2.879,2.879,0,0,0,2.587,2.864l162.534,15.4,21.877,14.478,30.21-40.186Z" transform="translate(-599.085 -2650.308)" fill="#594e76"/>
      <path id="Trazado_147123" data-name="Trazado 147123" d="M1666.661,2926.56v14.208a2.425,2.425,0,0,0,2.041,2.395l39.02,6.269-1.135-22.9-37.346-2.388A2.426,2.426,0,0,0,1666.661,2926.56Z" transform="translate(-1528.721 -2795.014)" fill="#978cb7"/>
      <g id="Grupo_84379" data-name="Grupo 84379" transform="translate(21.535 117.051)">
        <path id="Trazado_147124" data-name="Trazado 147124" d="M708.26,2822.009a3.5,3.5,0,0,0-.393.025l-2.063-.025.012.908c-2,1.563-3.387,4.981-3.387,8.949,0,4.125,1.5,7.655,3.626,9.125l.01.731h2.2c3.22,0,5.831-4.413,5.831-9.857S711.48,2822.009,708.26,2822.009Z" transform="translate(-699.972 -2822.009)" fill="#675d84"/>
        <path id="Trazado_147152" data-name="Trazado 147152" d="M5.831,0c3.22,0,5.831,4.413,5.831,9.857s-2.611,9.857-5.831,9.857S0,15.3,0,9.857,2.611,0,5.831,0Z" transform="translate(0 0)" fill="#463c5f"/>
        <ellipse id="Elipse_4378" data-name="Elipse 4378" cx="3.276" cy="5.538" rx="3.276" ry="5.538" transform="translate(1.736 4.319)" fill="#d8dee8"/>
        <ellipse id="Elipse_4379" data-name="Elipse 4379" cx="2.78" cy="5.141" rx="2.78" ry="5.141" transform="translate(2.727 4.716)" fill="url(#linear-gradient-5)"/>
      </g>
      <g id="Grupo_84380" data-name="Grupo 84380" transform="translate(34.522 118.16)">
        <path id="Trazado_147125" data-name="Trazado 147125" d="M820.7,2831.394a3.765,3.765,0,0,0-.43.027l-2.261-.027.013.995c-2.19,1.713-3.711,5.458-3.711,9.8,0,4.519,1.643,8.387,3.973,10l.011.8H820.7c3.528,0,6.389-4.835,6.389-10.8S824.232,2831.394,820.7,2831.394Z" transform="translate(-811.624 -2831.394)" fill="#675d84"/>
        <ellipse id="Elipse_4380" data-name="Elipse 4380" cx="6.389" cy="10.8" rx="6.389" ry="10.8" transform="translate(0 0)" fill="#463c5f"/>
        <ellipse id="Elipse_4381" data-name="Elipse 4381" cx="3.589" cy="6.067" rx="3.589" ry="6.067" transform="translate(1.902 4.732)" fill="#d8dee8"/>
        <path id="Trazado_147126" data-name="Trazado 147126" d="M822.916,2880.749c0,3.111-1.364,5.633-3.046,5.633s-3.046-2.522-3.046-5.633,1.364-5.633,3.046-5.633S822.916,2877.638,822.916,2880.749Z" transform="translate(-813.836 -2869.949)" fill="url(#linear-gradient-6)"/>
      </g>
      <g id="Grupo_84381" data-name="Grupo 84381" transform="translate(48.397 118.16)">
        <path id="Trazado_147127" data-name="Trazado 147127" d="M940.794,2831.394a4.126,4.126,0,0,0-.47.03l-2.469-.03.015,1.087c-2.392,1.87-4.052,5.958-4.052,10.705,0,4.934,1.793,9.158,4.338,10.917l.012.875h2.626c3.852,0,6.976-5.279,6.976-11.792S944.646,2831.394,940.794,2831.394Z" transform="translate(-930.879 -2831.394)" fill="#675d84"/>
        <ellipse id="Elipse_4382" data-name="Elipse 4382" cx="6.976" cy="11.792" rx="6.976" ry="11.792" transform="translate(0 0)" fill="#463c5f"/>
        <ellipse id="Elipse_4383" data-name="Elipse 4383" cx="3.919" cy="6.625" rx="3.919" ry="6.625" transform="translate(2.076 5.167)" fill="#d8dee8"/>
        <ellipse id="Elipse_4384" data-name="Elipse 4384" cx="3.326" cy="6.15" rx="3.326" ry="6.15" transform="translate(3.262 5.641)" fill="url(#linear-gradient-6)"/>
      </g>
      <g id="Grupo_84382" data-name="Grupo 84382" transform="translate(113.475 124.311)">
        <path id="Trazado_147128" data-name="Trazado 147128" d="M1500.292,2883.439a5.326,5.326,0,0,0-.6.038l-3.151-.038.018,1.387c-3.053,2.387-5.172,7.607-5.172,13.667,0,6.3,2.289,11.691,5.538,13.936l.015,1.117h3.353c4.918,0,8.905-6.739,8.905-15.053S1505.21,2883.439,1500.292,2883.439Z" transform="translate(-1487.635 -2883.439)" fill="#675d84"/>
        <path id="Trazado_147153" data-name="Trazado 147153" d="M8.905,0c4.918,0,8.905,6.74,8.905,15.053S13.823,30.107,8.905,30.107,0,23.367,0,15.053,3.987,0,8.905,0Z" fill="#463c5f"/>
        <ellipse id="Elipse_4386" data-name="Elipse 4386" cx="5.003" cy="8.457" rx="5.003" ry="8.457" transform="translate(2.651 6.596)" fill="#d8dee8"/>
        <ellipse id="Elipse_4387" data-name="Elipse 4387" cx="4.246" cy="7.852" rx="4.246" ry="7.852" transform="translate(4.165 7.202)" fill="url(#linear-gradient-5)"/>
      </g>
      <g id="Grupo_84383" data-name="Grupo 84383" transform="translate(169.223 126.691)">
        <path id="Trazado_147129" data-name="Trazado 147129" d="M1983.315,2903.577a6.844,6.844,0,0,0-.767.048l-4.026-.048.024,1.772c-3.9,3.049-6.608,9.718-6.608,17.46,0,8.046,2.925,14.935,7.075,17.8l.019,1.427h4.283c6.283,0,11.377-8.61,11.377-19.231S1989.6,2903.577,1983.315,2903.577Z" transform="translate(-1967.145 -2903.577)" fill="#c4bbe0"/>
        <ellipse id="Elipse_4388" data-name="Elipse 4388" cx="11.377" cy="19.231" rx="11.377" ry="19.231" fill="#463c5f"/>
        <ellipse id="Elipse_4389" data-name="Elipse 4389" cx="6.392" cy="10.804" rx="6.392" ry="10.804" transform="translate(3.386 8.427)" fill="#d8dee8"/>
        <ellipse id="Elipse_4390" data-name="Elipse 4390" cx="5.424" cy="10.031" rx="5.424" ry="10.031" transform="translate(5.32 9.201)" fill="url(#linear-gradient-5)"/>
      </g>
      <path id="Trazado_147130" data-name="Trazado 147130" d="M503.1,1856.746a4.412,4.412,0,0,0-3.689,4.352v80.469a4.412,4.412,0,0,0,4.166,4.405l151.25,8.439V1831.519Z" transform="translate(-499.413 -1831.519)" fill="#ffba5b"/>
      <path id="Trazado_147131" data-name="Trazado 147131" d="M1899.841,1834.389l-85.293-2.87v122.893h89.879v-115.28A4.746,4.746,0,0,0,1899.841,1834.389Z" transform="translate(-1659.132 -1831.519)" fill="#db993e"/>
      <path id="Trazado_147132" data-name="Trazado 147132" d="M622.872,2075.147c-19.423-8.946-37.654,4.708-55.425-8.489-15.563-11.557-10.545-28.686-22.969-48.934a65.975,65.975,0,0,0-11.861-14.259l-29.514,4.907a4.412,4.412,0,0,0-3.689,4.352v80.469a4.412,4.412,0,0,0,4.166,4.406l143.448,8C640.444,2087.594,631.5,2079.12,622.872,2075.147Z" transform="translate(-499.413 -1983.145)" fill="#db993e" opacity="0.3" style="mix-blend-mode: multiply;isolation: isolate"/>
      <path id="Trazado_147133" data-name="Trazado 147133" d="M2015.07,2122.384l-6.3-15.854-.187-13.107,6.368-1.273a1.1,1.1,0,0,0,.855-1.346c-.963-3.865-4.486-16.632-9.969-20.85-3.865-2.972-77.147-3.862-77.147-3.862l-35.271,2.293a5.267,5.267,0,0,0-4.925,5.255V2151.8a3.952,3.952,0,0,0,3.611,3.938l24.211,2.1,4.792,4.846s68.622,5.495,96.008.5a2.977,2.977,0,0,0,2.451-2.927V2125.88C2019.564,2120.886,2015.07,2122.384,2015.07,2122.384Z" transform="translate(-1724.336 -2038.372)" fill="#f4f7fa"/>
      <path id="Trazado_147134" data-name="Trazado 147134" d="M1940.67,2127.128s-.749-33.955,0-47.936a13.684,13.684,0,0,0-6.628-13.021c-3.351-.054-5.357-.078-5.357-.078l-35.271,2.293a5.267,5.267,0,0,0-4.925,5.255V2151.8a3.952,3.952,0,0,0,3.611,3.938l24.211,2.1,4.792,4.846s11.3.9,26.556,1.646v-28.962Z" transform="translate(-1724.336 -2038.372)" opacity="0.8" fill="url(#linear-gradient-10)" style="mix-blend-mode: multiply;isolation: isolate"/>
      <path id="Trazado_147135" data-name="Trazado 147135" d="M2288.918,2871.049l-2.714-.95v-5.5a2.685,2.685,0,0,0-2.685-2.685h-84.981a3.712,3.712,0,0,0-3.712,3.712v32.867a3.187,3.187,0,0,0,3.31,3.185l91-3.5a3.187,3.187,0,0,0,3.064-3.184V2875.67A4.9,4.9,0,0,0,2288.918,2871.049Z" transform="translate(-1994.471 -2740.147)" fill="#97a6b7"/>
      <path id="Trazado_147136" data-name="Trazado 147136" d="M2505.573,2700.255h-50.388a2.926,2.926,0,0,0-2.919,3.131l2.776,39.561a3.7,3.7,0,0,0,3.818,3.44l43.29-1.467a3.7,3.7,0,0,0,3.566-3.43l2.776-38.1A2.927,2.927,0,0,0,2505.573,2700.255Z" transform="translate(-2221.481 -2597.592)" fill="#463c5f"/>
      <g id="Grupo_84384" data-name="Grupo 84384" transform="translate(200.356 121.767)" opacity="0.3" style="mix-blend-mode: multiply;isolation: isolate">
        <path id="Trazado_147137" data-name="Trazado 147137" d="M2288.919,2871.049l-2.714-.95v-5.5a2.684,2.684,0,0,0-1.8-2.532l-5.171,24.315a6.47,6.47,0,0,1-6.077,5.119l-39.715,1.543a6.469,6.469,0,0,1-6.364-4.346l-9.282-26.784H2198.54a3.712,3.712,0,0,0-3.712,3.712v32.867a3.187,3.187,0,0,0,3.309,3.185l91-3.5a3.187,3.187,0,0,0,3.064-3.185V2875.67A4.9,4.9,0,0,0,2288.919,2871.049Z" transform="translate(-2194.828 -2861.914)" fill="#97a6b7"/>
      </g>
      <path id="Trazado_147138" data-name="Trazado 147138" d="M2266.753,3001.331l-9.449.472a10.885,10.885,0,0,1-11.392-9.975l-.38-4.593h18.917a2.3,2.3,0,0,1,2.3,2.3Z" transform="translate(-2039.184 -2850.658)" fill="#ffba5b"/>
      <path id="Trazado_147139" data-name="Trazado 147139" d="M2929.675,2984.063l-1.508,10.276s9.962-.349,9.713-12.905l-6.182.68A2.3,2.3,0,0,0,2929.675,2984.063Z" transform="translate(-2641.149 -2845.542)" fill="#ffba5b"/>
      <path id="Trazado_147140" data-name="Trazado 147140" d="M2271.519,2324.448a7.019,7.019,0,0,1-4.124-1.347l-3.888-2.847a5.6,5.6,0,0,1-2.283-4.5v-22.634a3.449,3.449,0,0,1,4.035-3.4l3.811.656,68.359,0,.036.16,6.5,29-.727,3.637-.165,0-71.434,1.27Zm-6.847-34.369a3.04,3.04,0,0,0-3.037,3.039v22.634a5.188,5.188,0,0,0,2.115,4.171l3.888,2.847a6.6,6.6,0,0,0,3.995,1.267l71.269-1.267.646-3.228-6.446-28.758h-68.065l-3.846-.66A3.025,3.025,0,0,0,2264.671,2290.078Z" transform="translate(-2053.022 -2235.527)" fill="gray"/>
      <path id="Trazado_147141" data-name="Trazado 147141" d="M2338.8,2292.1h-68.23l-3.81-.657a3.245,3.245,0,0,0-3.8,3.2v22.634a5.375,5.375,0,0,0,2.2,4.336l3.888,2.847a6.767,6.767,0,0,0,4.119,1.306l71.434-1.27.686-3.433Z" transform="translate(-2054.553 -2237.052)" fill="#5f4d90"/>
      <g id="Grupo_84385" data-name="Grupo 84385" transform="translate(234.435 47.187)">
        <rect id="Rectángulo_31682" data-name="Rectángulo 31682" width="8.988" height="5.617" rx="2.809" fill="#97a6b7"/>
        <rect id="Rectángulo_31683" data-name="Rectángulo 31683" width="8.988" height="5.617" rx="2.809" transform="translate(34.079)" fill="#97a6b7"/>
      </g>
      <path id="Trazado_147142" data-name="Trazado 147142" d="M2317.45,2308.206c-17.607-6.734-34.169,1.659-41.756-7.49a14.667,14.667,0,0,1-3.072-8.613h-2.055l-3.81-.657a3.245,3.245,0,0,0-3.8,3.2v22.634a5.375,5.375,0,0,0,2.2,4.336l3.888,2.847a6.766,6.766,0,0,0,4.119,1.306l64.708-1.15C2330.561,2314.756,2323.133,2310.379,2317.45,2308.206Z" transform="translate(-2054.553 -2237.051)" fill="#ddd4f8" opacity="0.3" style="mix-blend-mode: overlay;isolation: isolate"/>
    </g>
    <g id="Grupo_84390" data-name="Grupo 84390" transform="translate(527.921 531.153)">
      <g id="Grupo_84387" data-name="Grupo 84387" transform="translate(0 46.532)">
        <path id="Trazado_147143" data-name="Trazado 147143" d="M1038.1,1710.386a1.846,1.846,0,0,1-1.1-3.329s.711-.527,1.956-1.466a1.846,1.846,0,1,1,2.224,2.947c-1.265.954-1.981,1.485-1.981,1.485A1.838,1.838,0,0,1,1038.1,1710.386Z" transform="translate(-1036.252 -1705.218)" fill="#c3b5ec"/>
      </g>
      <g id="Grupo_84388" data-name="Grupo 84388" transform="translate(5.856)">
        <path id="Trazado_147144" data-name="Trazado 147144" d="M1253.916,1371c-.328,0-.674-.014-1.03-.041a1.846,1.846,0,1,1,.275-3.682,6.822,6.822,0,0,0,1.884-.073,21.868,21.868,0,0,0,2.184-.6,1.846,1.846,0,0,1,1.162,3.5,25.51,25.51,0,0,1-2.556.7A9.04,9.04,0,0,1,1253.916,1371Zm-5.69-.954a1.842,1.842,0,0,1-.489-.066c-1.441-.395-3.055-.912-4.8-1.539a1.846,1.846,0,0,1,1.249-3.474c1.653.595,3.176,1.083,4.524,1.453a1.846,1.846,0,0,1-.486,3.627Zm14.029-1.85a1.846,1.846,0,0,1-.932-3.441,23.61,23.61,0,0,0,3.665-2.653,1.846,1.846,0,0,1,2.437,2.774,27.33,27.33,0,0,1-4.24,3.068A1.837,1.837,0,0,1,1262.255,1368.193ZM1239,1366.781a1.839,1.839,0,0,1-.7-.139c-1.432-.588-2.963-1.245-4.551-1.953a1.846,1.846,0,1,1,1.5-3.372c1.554.693,3.051,1.335,4.449,1.91a1.846,1.846,0,0,1-.7,3.554Zm-8.95-3.976a1.841,1.841,0,0,1-.787-.177c-1.427-.674-2.919-1.395-4.437-2.142a1.846,1.846,0,0,1,1.632-3.312c1.5.739,2.973,1.45,4.382,2.116a1.846,1.846,0,0,1-.79,3.516Zm39.539-1a1.846,1.846,0,0,1-1.43-3.012,32.411,32.411,0,0,0,2.648-3.787,1.846,1.846,0,1,1,3.166,1.9,36.145,36.145,0,0,1-2.951,4.219A1.843,1.843,0,0,1,1269.584,1361.809Zm-181.929-3.083a1.846,1.846,0,0,1-1.125-3.31c1.16-.89,2.457-1.892,3.86-2.986a1.846,1.846,0,0,1,2.27,2.912c-1.411,1.1-2.716,2.108-3.882,3A1.839,1.839,0,0,1,1087.655,1358.725Zm133.6-.244a1.84,1.84,0,0,1-.837-.2c-1.42-.724-2.89-1.484-4.367-2.259a1.846,1.846,0,0,1,1.715-3.27c1.465.768,2.922,1.522,4.33,2.24a1.846,1.846,0,0,1-.841,3.491Zm-8.673-4.545a1.837,1.837,0,0,1-.872-.22q-2.165-1.162-4.318-2.344a1.846,1.846,0,1,1,1.775-3.237q2.137,1.171,4.29,2.328a1.846,1.846,0,0,1-.875,3.473Zm-117.212-1.227a1.846,1.846,0,0,1-1.147-3.293c1.228-.972,2.5-1.99,3.813-3.042a1.846,1.846,0,1,1,2.314,2.877c-1.317,1.059-2.6,2.083-3.835,3.06A1.839,1.839,0,0,1,1095.374,1352.71ZM1204,1349.23a1.839,1.839,0,0,1-.9-.234q-2.164-1.208-4.279-2.409a1.846,1.846,0,0,1,1.824-3.211q2.1,1.192,4.255,2.4a1.846,1.846,0,0,1-.9,3.458Zm-101-2.654a1.846,1.846,0,0,1-1.171-3.274c1.24-1.016,2.495-2.053,3.752-3.1a1.846,1.846,0,1,1,2.369,2.832c-1.267,1.06-2.531,2.105-3.781,3.129A1.838,1.838,0,0,1,1103,1346.576Zm92.487-2.181a1.835,1.835,0,0,1-.921-.247q-2.173-1.254-4.245-2.467a1.846,1.846,0,0,1,1.866-3.186q2.057,1.2,4.223,2.455a1.846,1.846,0,0,1-.924,3.445Zm-84.986-4.1a1.846,1.846,0,0,1-1.2-3.248c1.264-1.082,2.5-2.156,3.672-3.19a1.846,1.846,0,1,1,2.442,2.769c-1.187,1.046-2.436,2.131-3.712,3.225A1.84,1.84,0,0,1,1110.5,1340.3Zm76.534-.854a1.836,1.836,0,0,1-.942-.26c-1.471-.875-2.879-1.719-4.212-2.526a1.846,1.846,0,1,1,1.91-3.159c1.327.8,2.727,1.642,4.19,2.512a1.846,1.846,0,0,1-.945,3.433Zm-8.383-5.071a1.837,1.837,0,0,1-.967-.275c-1.515-.933-2.92-1.81-4.176-2.606a1.846,1.846,0,1,1,1.976-3.119c1.243.788,2.636,1.656,4.137,2.582a1.846,1.846,0,0,1-.97,3.418Zm-60.818-.549a1.846,1.846,0,0,1-1.246-3.208c1.25-1.143,2.441-2.257,3.54-3.311a1.846,1.846,0,0,1,2.556,2.664c-1.12,1.075-2.332,2.209-3.6,3.373A1.84,1.84,0,0,1,1117.829,1333.824Zm52.556-4.719a1.837,1.837,0,0,1-1.029-.315c-1.019-.686-2.065-1.4-3.132-2.136l-.919-.63a1.846,1.846,0,1,1,2.087-3.046l.921.632c1.058.726,2.094,1.437,3.1,2.117a1.846,1.846,0,0,1-1.033,3.378Zm-45.51-2.066a1.846,1.846,0,0,1-1.323-3.133c1.213-1.247,2.307-2.429,3.253-3.515a1.846,1.846,0,0,1,2.784,2.425c-.99,1.137-2.131,2.37-3.391,3.665A1.84,1.84,0,0,1,1124.875,1327.039Zm37.419-3.427a1.838,1.838,0,0,1-1.014-.3c-1.492-.983-2.822-1.823-4.067-2.57a1.846,1.846,0,0,1,1.9-3.167c1.291.774,2.665,1.642,4.2,2.654a1.846,1.846,0,0,1-1.017,3.388Zm-30.943-3.9a1.846,1.846,0,0,1-1.33-3.126,17.428,17.428,0,0,1,4.316-3.314,1.846,1.846,0,0,1,1.74,3.257,13.734,13.734,0,0,0-3.4,2.619A1.841,1.841,0,0,1,1131.351,1319.715Zm22.536-1.084a1.836,1.836,0,0,1-.83-.2,40.278,40.278,0,0,0-4.276-1.876,1.846,1.846,0,1,1,1.266-3.468,43.909,43.909,0,0,1,4.673,2.048,1.846,1.846,0,0,1-.833,3.495Zm-9.182-3.232a1.852,1.852,0,0,1-.3-.024,15,15,0,0,0-4.333-.116,1.846,1.846,0,0,1-.473-3.662,18.68,18.68,0,0,1,5.4.133,1.846,1.846,0,0,1-.3,3.668Z" transform="translate(-1085.808 -1311.46)" fill="#c3b5ec"/>
      </g>
      <g id="Grupo_84389" data-name="Grupo 84389" transform="translate(192.724 36.218)">
        <path id="Trazado_147145" data-name="Trazado 147145" d="M2668.932,1623.927a1.847,1.847,0,0,1-1.692-2.584c.556-1.275.813-2.1.816-2.1a1.846,1.846,0,0,1,3.527,1.091,26.066,26.066,0,0,1-.958,2.488A1.847,1.847,0,0,1,2668.932,1623.927Z" transform="translate(-2667.086 -1617.941)" fill="#c3b5ec"/>
      </g>
    </g>
    <g id="Grupo_84393" data-name="Grupo 84393" transform="translate(479.898 430.175)">
      <g id="Grupo_84392" data-name="Grupo 84392" transform="translate(0 0)">
        <path id="Trazado_147146" data-name="Trazado 147146" d="M729.625,506.856c0,21.31-29.854,60.195-43.364,76.7a8.407,8.407,0,0,1-13.009,0c-13.51-16.507-43.364-55.392-43.364-76.7a49.868,49.868,0,1,1,99.737,0Z" transform="translate(-629.888 -456.988)" fill="#c3b5ec"/>
        <circle id="Elipse_4391" data-name="Elipse 4391" cx="27.812" cy="27.812" r="27.812" transform="translate(10.536 49.868) rotate(-45)" fill="#fff"/>
        <g id="Grupo_84391" data-name="Grupo 84391" transform="translate(0 0.602)" opacity="0.3" style="mix-blend-mode: multiply;isolation: isolate">
          <path id="Trazado_147147" data-name="Trazado 147147" d="M679.536,567.573c3.164-20.836,16.923-27.5,14.561-47.179-2.724-22.689-22.813-28.732-23.3-48.926a32.055,32.055,0,0,1,1.2-9.388,49.88,49.88,0,0,0-42.11,49.267c0,21.309,29.854,60.195,43.364,76.7a8.384,8.384,0,0,0,7.782,2.982A57.026,57.026,0,0,1,679.536,567.573Z" transform="translate(-629.888 -462.08)" fill="#9c8cc9"/>
        </g>
      </g>
      <path id="Trazado_147151" data-name="Trazado 147151" d="M10.193,0A10.193,10.193,0,1,1,0,10.193,10.193,10.193,0,0,1,10.193,0Z" transform="translate(39.675 140.639)" fill="#c3b5ec"/>
    </g>
    <g id="Grupo_84396" data-name="Grupo 84396" transform="translate(697.223 488.541)">
      <g id="Grupo_84395" data-name="Grupo 84395" transform="translate(0 0)">
        <path id="Trazado_147148" data-name="Trazado 147148" d="M2521.2,977.034c0,11.177-15.658,31.571-22.744,40.229a4.409,4.409,0,0,1-6.823,0c-7.086-8.657-22.744-29.052-22.744-40.229a26.155,26.155,0,0,1,52.31,0Z" transform="translate(-2468.888 -950.879)" fill="#ff7758"/>
        <circle id="Elipse_4393" data-name="Elipse 4393" cx="14.587" cy="14.587" r="14.587" transform="translate(8.858 37.396) rotate(-78.019)" fill="#fff"/>
        <g id="Grupo_84394" data-name="Grupo 84394" transform="translate(0 0.316)" opacity="0.3" style="mix-blend-mode: multiply;isolation: isolate">
          <path id="Trazado_147149" data-name="Trazado 147149" d="M2494.927,1008.878c1.66-10.928,8.876-14.426,7.637-24.745-1.428-11.9-11.965-15.07-12.219-25.661a16.811,16.811,0,0,1,.628-4.924,26.161,26.161,0,0,0-22.086,25.84c0,11.177,15.658,31.571,22.744,40.229a4.4,4.4,0,0,0,4.082,1.564A29.909,29.909,0,0,1,2494.927,1008.878Z" transform="translate(-2468.888 -953.549)" fill="#c6563d"/>
        </g>
      </g>
      <path id="Trazado_147150" data-name="Trazado 147150" d="M5.346,0A5.346,5.346,0,1,1,0,5.346,5.346,5.346,0,0,1,5.346,0Z" transform="matrix(0.788, -0.615, 0.615, 0.788, 18.651, 78.185)" fill="#ff7758"/>
    </g>
  </g>
</svg>
