<svg xmlns="http://www.w3.org/2000/svg" width="239" height="115" viewBox="0 0 239 115">
  <g id="Grupo_85497" data-name="Grupo 85497" transform="translate(-236 -1311.221)">
    <path id="Rectángulo_31463" data-name="Rectángulo 31463" d="M72,0H239a0,0,0,0,1,0,0V72a0,0,0,0,1,0,0H0a0,0,0,0,1,0,0v0A72,72,0,0,1,72,0Z" transform="translate(236 1354.221)" fill="#c3b5ec"/>
    <g id="globalizacion" transform="translate(284 1310.221)">
      <g id="Grupo_84308" data-name="Grupo 84308" transform="translate(2.694 2.694)">
        <g id="Grupo_84298" data-name="Grupo 84298" transform="translate(23.71 23.71)">
          <path id="Trazado_146893" data-name="Trazado 146893" d="M27.5,0A27.5,27.5,0,1,1,0,27.5,27.5,27.5,0,0,1,27.5,0Z" transform="translate(-0.402 -0.402)" fill="#d2e1f1"/>
        </g>
        <g id="Grupo_84299" data-name="Grupo 84299" transform="translate(3.387 64.355)">
          <circle id="Elipse_4357" data-name="Elipse 4357" cx="18.5" cy="18.5" r="18.5" transform="translate(-0.08 -0.049)" fill="#f2edff"/>
        </g>
        <g id="Grupo_84300" data-name="Grupo 84300" transform="translate(0 0)">
          <circle id="Elipse_4358" data-name="Elipse 4358" cx="18.5" cy="18.5" r="18.5" transform="translate(0.307 0.307)" fill="#f2edff"/>
        </g>
        <g id="Grupo_84301" data-name="Grupo 84301" transform="translate(64.355 3.387)">
          <circle id="Elipse_4359" data-name="Elipse 4359" cx="18.5" cy="18.5" r="18.5" transform="translate(-0.049 -0.08)" fill="#f2edff"/>
        </g>
        <g id="Grupo_84302" data-name="Grupo 84302" transform="translate(8.671 84.677)">
          <path id="Trazado_146886" data-name="Trazado 146886" d="M33.81,63.3a18.61,18.61,0,0,1-26.69,0,13.531,13.531,0,0,1,26.69,0Z" transform="translate(-7.12 -52)" fill="#675d84"/>
        </g>
        <g id="Grupo_84303" data-name="Grupo 84303" transform="translate(5.284 20.323)">
          <path id="Trazado_146887" data-name="Trazado 146887" d="M31.76,25.042c-.627.61-1.219,1.253-1.778,1.914A18.628,18.628,0,0,1,5.12,25.3a13.528,13.528,0,0,1,26.64-.254Z" transform="translate(-5.12 -14)" fill="#ffba5b"/>
        </g>
        <g id="Grupo_84304" data-name="Grupo 84304" transform="translate(69.639 23.71)">
          <path id="Trazado_146888" data-name="Trazado 146888" d="M48.607,31.208a19.107,19.107,0,0,1-2.862-1.66A18.6,18.6,0,0,1,43.12,27.3a13.531,13.531,0,0,1,26.69,0,18.468,18.468,0,0,1-13.345,5.64,18.719,18.719,0,0,1-7.858-1.727Z" transform="translate(-43.12 -16)" fill="#ff7758"/>
        </g>
        <g id="Grupo_84305" data-name="Grupo 84305" transform="translate(76.21 10.161)">
          <circle id="Elipse_4360" data-name="Elipse 4360" cx="6.5" cy="6.5" r="6.5" transform="translate(0.098 0.145)" fill="#f0d0b4"/>
        </g>
        <g id="Grupo_84306" data-name="Grupo 84306" transform="translate(15.242 71.129)">
          <circle id="Elipse_4361" data-name="Elipse 4361" cx="6.5" cy="6.5" r="6.5" transform="translate(0.064 0.178)" fill="#f0d0b4"/>
        </g>
        <g id="Grupo_84307" data-name="Grupo 84307" transform="translate(11.855 6.774)">
          <ellipse id="Elipse_4362" data-name="Elipse 4362" cx="6.5" cy="7" rx="6.5" ry="7" transform="translate(0.451 -0.469)" fill="#f0d0b4"/>
        </g>
      </g>
      <g id="Grupo_84309" data-name="Grupo 84309" transform="translate(1 1)">
        <path id="Trazado_146889" data-name="Trazado 146889" d="M65.108,36.864,67.5,39.259l1.89-1.89A35.6,35.6,0,0,1,34.128,68.545a36.149,36.149,0,0,1-4.749-.315l-.447,3.357A38.972,38.972,0,0,0,72.885,36.874l2.385,2.385,2.395-2.395-6.278-6.278Z" transform="translate(18.372 19.519)"/>
        <path id="Trazado_146890" data-name="Trazado 146890" d="M35.461,15.956l-2.72-1.36a16.2,16.2,0,0,1,3.656-.511A35.637,35.637,0,0,1,46.015,15.4l.913-3.262A39.038,39.038,0,0,0,36.4,10.7a21.037,21.037,0,0,0-5.282.8l1.717-3.435L29.8,6.552l-4.144,8.29,8.29,4.144Z" transform="translate(16.102 2.851)"/>
        <path id="Trazado_146891" data-name="Trazado 146891" d="M6.553,42.271l8.29,4.144,4.144-8.29-3.03-1.516L14.5,39.519a15.8,15.8,0,0,1-.418-3.844,35.624,35.624,0,0,1,.95-8.2l-3.3-.777a39.056,39.056,0,0,0-1.04,8.972,18.836,18.836,0,0,0,.66,5.211L8.069,39.241Z" transform="translate(2.851 16.826)"/>
        <path id="Trazado_146892" data-name="Trazado 146892" d="M85.677,4.387A20.345,20.345,0,0,0,65.355,24.71a20.122,20.122,0,0,0,.2,2.669,28.518,28.518,0,0,0-24.988.437A20.383,20.383,0,1,0,27.816,40.563a28.518,28.518,0,0,0-.437,24.988,20.122,20.122,0,0,0-2.669-.2,20.429,20.429,0,1,0,19.7,15.42A28.344,28.344,0,0,0,53.5,82.29,28.823,28.823,0,0,0,82.29,53.5a28.344,28.344,0,0,0-1.516-9.091,20.313,20.313,0,1,0,4.9-40.022Zm0,3.387A16.925,16.925,0,0,1,99.742,34.129a15.153,15.153,0,0,0-8.341-8.3,8.468,8.468,0,1,0-11.448,0,15.143,15.143,0,0,0-8.341,8.3A16.925,16.925,0,0,1,85.677,7.774ZM80.6,19.629a5.081,5.081,0,1,1,5.081,5.081A5.087,5.087,0,0,1,80.6,19.629ZM70.573,38.258H66.479a28.165,28.165,0,0,0-4.357-8.635,25.554,25.554,0,0,1,4.539,2.19,20.309,20.309,0,0,0,3.912,6.446Zm8.244,16.935A25.2,25.2,0,0,1,75.95,65.355H67.424A51.51,51.51,0,0,0,68.7,55.194ZM63.931,65.355H43.069a48.034,48.034,0,0,1-1.382-10.161H65.314a48.031,48.031,0,0,1-1.384,10.161ZM53.5,78.9c-3.78,0-7.2-4.043-9.392-10.161H62.892C60.7,74.861,57.28,78.9,53.5,78.9ZM28.158,55.194H38.3a51.511,51.511,0,0,0,1.274,10.161H31.062A25.285,25.285,0,0,1,28.158,55.194Zm2.891-13.548h8.525A51.511,51.511,0,0,0,38.3,51.806H28.181A25.25,25.25,0,0,1,31.049,41.645ZM41.686,51.806a48.034,48.034,0,0,1,1.382-10.161H63.931a48.034,48.034,0,0,1,1.382,10.161Zm2.422-13.548C46.3,32.139,49.72,28.1,53.5,28.1s7.2,4.042,9.392,10.161Zm.759-8.618a28.205,28.205,0,0,0-4.346,8.618h-7.3c.312-.413.625-.823.96-1.216a20.519,20.519,0,0,0,2.857-2.857A25.412,25.412,0,0,1,44.866,29.64ZM21.323,4.387A16.925,16.925,0,0,1,35.388,30.742a15.153,15.153,0,0,0-8.341-8.3,8.468,8.468,0,1,0-11.448,0,15.143,15.143,0,0,0-8.341,8.3A16.925,16.925,0,0,1,21.323,4.387ZM16.242,16.242a5.081,5.081,0,1,1,5.081,5.081A5.087,5.087,0,0,1,16.242,16.242Zm5.081,22.016a16.856,16.856,0,0,1-11.491-4.53,11.833,11.833,0,0,1,22.946-.164c-.3.312-.588.635-.874.96a16.846,16.846,0,0,1-10.581,3.734Zm-8.1,59.825a11.83,11.83,0,0,1,22.981,0,16.838,16.838,0,0,1-22.981,0ZM19.629,80.6a5.081,5.081,0,1,1,5.081,5.081A5.087,5.087,0,0,1,19.629,80.6ZM38.775,95.1a15.154,15.154,0,0,0-8.341-8.3,8.468,8.468,0,1,0-11.448,0,15.143,15.143,0,0,0-8.341,8.3,16.935,16.935,0,1,1,28.13,0ZM35.919,68.742h4.6a28.171,28.171,0,0,0,4.349,8.622c-.694-.254-1.377-.555-2.056-.872A20.44,20.44,0,0,0,35.919,68.742ZM62.134,77.36a28.205,28.205,0,0,0,4.346-8.618h7.3A25.483,25.483,0,0,1,62.134,77.36ZM78.807,51.806H68.7a51.51,51.51,0,0,0-1.274-10.161h7.042a20.309,20.309,0,0,0,2.024,1.169A25.068,25.068,0,0,1,78.807,51.806Zm-4.62-14.692a11.83,11.83,0,0,1,22.981,0,16.838,16.838,0,0,1-22.981,0Z" transform="translate(-1 -1)"/>
      </g>
    </g>
  </g>
</svg>
