<svg xmlns="http://www.w3.org/2000/svg" width="239" height="108.609" viewBox="0 0 239 108.609">
  <g id="Grupo_85496" data-name="Grupo 85496" transform="translate(-236 -1110.611)">
    <path id="Rectángulo_31461" data-name="Rectángulo 31461" d="M72,0H239a0,0,0,0,1,0,0V72a0,0,0,0,1,0,0H0a0,0,0,0,1,0,0v0A72,72,0,0,1,72,0Z" transform="translate(236 1147.221)" fill="#c3b5ec"/>
    <g id="transporte" transform="translate(286.391 1110.611)">
      <path id="Trazado_146865" data-name="Trazado 146865" d="M63.083,283l-3.454-19H35.454L32,283l15.541-5.18Z" transform="translate(-25.093 -207.015)" fill="#ffba5b"/>
      <path id="Trazado_146866" data-name="Trazado 146866" d="M21.252,359.083c3.742,0,3.742-3.454,7.484-3.454s3.739,3.454,7.477,3.454c3.015,0,3.625-2.221,5.7-3.091l7.532-21.085L28.722,328,8,334.907l7.527,21.079c2.091.863,2.7,3.1,5.724,3.1Z" transform="translate(-6.273 -257.2)" fill="#3f4e56"/>
      <path id="Trazado_146867" data-name="Trazado 146867" d="M157.558,93.709A19.467,19.467,0,0,0,143.787,88H88L98.361,98.368l63.892.038Z" transform="translate(-69.005 -69.005)" fill="#f5fafc"/>
      <path id="Trazado_146868" data-name="Trazado 146868" d="M200.547,136.724l-.654-.654L136,136.032l.427.427a22.088,22.088,0,0,0,15.621,6.474h3.12l1.533-3.454h10.354l-2.416,3.454h33.336a3.637,3.637,0,0,0,2.571-6.208Z" transform="translate(-106.644 -106.669)" fill="#ff7758"/>
      <path id="Trazado_146869" data-name="Trazado 146869" d="M88,232h6.907v6.907H88Z" transform="translate(-69.005 -181.922)" fill="#ed4720"/>
      <path id="Trazado_146870" data-name="Trazado 146870" d="M232,304v31.083h8.634a5.18,5.18,0,0,1,10.361,0h15.541V304Z" transform="translate(-181.922 -238.381)" fill="#d3d3d3"/>
      <circle id="Elipse_4354" data-name="Elipse 4354" cx="5" cy="5" r="5" transform="translate(57.937 91.609)" fill="#3f4e56"/>
      <path id="Trazado_146871" data-name="Trazado 146871" d="M404.088,336H392v24.176a5.18,5.18,0,1,1,10.361,0h6.907V346.361Z" transform="translate(-307.386 -263.473)" fill="#ff7758"/>
      <circle id="Elipse_4355" data-name="Elipse 4355" cx="5" cy="5" r="5" transform="translate(84.937 91.609)" fill="#3f4e56"/>
      <g id="Grupo_84297" data-name="Grupo 84297" transform="translate(18.995 1.727)">
        <path id="Trazado_146872" data-name="Trazado 146872" d="M96.634,8H88V25.268h13.815Z" transform="translate(-88 -8)" fill="#ff7758"/>
        <path id="Trazado_146873" data-name="Trazado 146873" d="M216,24l3.454,13.815h10.361L221.18,24Z" transform="translate(-188.371 -20.546)" fill="#ff7758"/>
        <path id="Trazado_146874" data-name="Trazado 146874" d="M206.838,152l-6.9,15.541,5.177,1.727L217.194,152Z" transform="translate(-175.774 -120.917)" fill="#ff7758"/>
      </g>
      <path id="Trazado_146875" data-name="Trazado 146875" d="M44.9,454.907a6.7,6.7,0,0,1-4.911-2.184,3.232,3.232,0,0,0-5.134,0,6.609,6.609,0,0,1-9.822,0,3.235,3.235,0,0,0-5.137,0,6.623,6.623,0,0,1-9.831,0,3.349,3.349,0,0,0-2.573-1.269,3.355,3.355,0,0,0-2.575,1.269A6.7,6.7,0,0,1,0,454.907v-3.454a3.358,3.358,0,0,0,2.575-1.269,6.623,6.623,0,0,1,9.831,0,3.241,3.241,0,0,0,5.144,0,6.615,6.615,0,0,1,9.826,0,3.231,3.231,0,0,0,5.132,0,6.611,6.611,0,0,1,9.822,0,3.342,3.342,0,0,0,2.568,1.269v3.454Z" transform="translate(0 -351.298)" fill="#1493b0"/>
      <path id="Trazado_146876" data-name="Trazado 146876" d="M424,336v10.361h10.361L429.18,336Z" transform="translate(-332.478 -263.473)" fill="#f5fafc"/>
      <path id="Trazado_146877" data-name="Trazado 146877" d="M10.635,273.163l-6.69-18.727,16.776-5.59v23.73a6.883,6.883,0,0,1,3.454-.009V248.846l16.776,5.591L34.26,273.175a6.092,6.092,0,0,1,3.158-.824,6.988,6.988,0,0,1,.784.048L44.8,253.936a1.728,1.728,0,0,0-1.081-2.219l-4.21-1.4-3.271-17.988a1.726,1.726,0,0,0-1.7-1.418H27.629v-5.18A1.727,1.727,0,0,0,25.9,224H18.995a1.727,1.727,0,0,0-1.727,1.727v5.18H10.361a1.729,1.729,0,0,0-1.7,1.418L5.391,250.313l-4.21,1.4A1.728,1.728,0,0,0,.1,253.936L6.695,272.4a7.2,7.2,0,0,1,.794-.048,6.122,6.122,0,0,1,3.146.812Zm10.086-45.709h3.454v3.454H20.722Zm-1.727,6.907H33.1l2.673,14.707L23,244.81a1.755,1.755,0,0,0-.547-.088,1.736,1.736,0,0,0-.546.088L9.13,249.068,11.8,234.361Z" transform="translate(0 -175.649)"/>
      <path id="Trazado_146878" data-name="Trazado 146878" d="M80.114,19.56c.019.054.033.109.057.161a1.694,1.694,0,0,0,.335.5L91.293,31.01a23.659,23.659,0,0,0,16.842,6.98h.465l-4.291,9.66a1.727,1.727,0,0,0,1.033,2.34l5.177,1.727a1.762,1.762,0,0,0,.547.088,1.725,1.725,0,0,0,1.414-.737l9.149-13.077h32.438a5.364,5.364,0,0,0,3.79-9.156l-5.35-5.353a21.065,21.065,0,0,0-14.994-6.213H124.129L116,4.265a1.734,1.734,0,0,0-1.466-.812h-5.18A1.728,1.728,0,0,0,107.681,5.6L110.6,17.268H96.826L92.015,1.231A1.729,1.729,0,0,0,90.361,0H81.727A1.727,1.727,0,0,0,80,1.727V19c0,.038.019.069.021.107A1.739,1.739,0,0,0,80.114,19.56Zm3.34-16.106h5.623l4.144,13.815H83.454ZM113.58,6.907l6.476,10.361h-5.9l-2.59-10.361Zm-.77,13.815h24.7A17.588,17.588,0,0,1,148,24.176H135.258v3.454h16.51l1.768,1.77,1.877,1.877a1.909,1.909,0,0,1-1.347,3.26H124.044l.515-.737a1.727,1.727,0,0,0-1.414-2.716H112.791a1.829,1.829,0,0,0-1.578,1.026l-1.078,2.428h-2a20.184,20.184,0,0,1-13.523-5.174c-.294-.262-.6-.515-.876-.8l-7.845-7.845H112.81Zm-4.571,26.593,5.676-12.778h5.916l-9.441,13.5Z" transform="translate(-62.732)"/>
      <path id="Trazado_146879" data-name="Trazado 146879" d="M72,288H85.815v3.454H72Z" transform="translate(-56.459 -225.834)"/>
      <path id="Trazado_146880" data-name="Trazado 146880" d="M176,112h3.452v3.454H176Z" transform="translate(-138.01 -87.824)"/>
      <path id="Trazado_146881" data-name="Trazado 146881" d="M208,112h3.452v3.454H208Z" transform="translate(-163.103 -87.824)"/>
      <path id="Trazado_146882" data-name="Trazado 146882" d="M240,112h3.452v3.454H240Z" transform="translate(-188.195 -87.824)"/>
      <path id="Trazado_146883" data-name="Trazado 146883" d="M272,112h3.452v3.454H272Z" transform="translate(-213.288 -87.824)"/>
      <path id="Trazado_146884" data-name="Trazado 146884" d="M304.008,112h3.452v3.454h-3.452Z" transform="translate(-238.387 -87.824)"/>
      <path id="Trazado_146885" data-name="Trazado 146885" d="M279.077,314.223l-5.18-10.361a1.729,1.729,0,0,0-1.546-.955H261.99v-5.18A1.727,1.727,0,0,0,260.263,296H225.727A1.727,1.727,0,0,0,224,297.727V328.81a1.727,1.727,0,0,0,1.727,1.727h7.152a6.874,6.874,0,0,0,13.324,0h12.578a6.874,6.874,0,0,0,13.324,0h5.426a1.727,1.727,0,0,0,1.727-1.727V315c0-.019-.012-.035-.012-.054a1.746,1.746,0,0,0-.169-.718Zm-7.189,12.162c-.04-.1-.066-.212-.109-.313a6.816,6.816,0,0,0-.592-1.088c-.05-.074-.112-.138-.164-.211a7.269,7.269,0,0,0-.615-.746c-.1-.1-.211-.2-.318-.294a7.354,7.354,0,0,0-.62-.513c-.128-.091-.259-.176-.392-.261a6.873,6.873,0,0,0-.692-.376c-.142-.067-.281-.135-.428-.192a6.827,6.827,0,0,0-.819-.254c-.133-.035-.263-.078-.4-.1a6.713,6.713,0,0,0-1.3-.133,6.831,6.831,0,0,0-1.24.126c-.1.017-.193.036-.29.059a6.752,6.752,0,0,0-1.147.357c-.016.007-.028.016-.043.021a6.892,6.892,0,0,0-.732.364V306.361h3.454V315a1.727,1.727,0,0,0,1.727,1.727h8.634v10.361h-3.671a7.242,7.242,0,0,0-.247-.7Zm-6.445,5.878a3.454,3.454,0,1,1,3.454-3.454A3.457,3.457,0,0,1,265.444,332.263Zm-19.458-5.878c-.04-.1-.066-.212-.109-.313a6.822,6.822,0,0,0-.592-1.088c-.05-.074-.112-.138-.164-.211a7.268,7.268,0,0,0-.615-.746c-.1-.1-.211-.2-.318-.294a7.342,7.342,0,0,0-.62-.513c-.128-.091-.259-.176-.392-.261a6.868,6.868,0,0,0-.692-.376c-.142-.067-.281-.135-.428-.192a6.824,6.824,0,0,0-.819-.254c-.133-.035-.262-.078-.4-.1a6.712,6.712,0,0,0-1.3-.133,6.816,6.816,0,0,0-1.3.131c-.136.026-.264.071-.4.1a6.9,6.9,0,0,0-.818.254c-.147.057-.287.124-.428.192a6.872,6.872,0,0,0-.692.376c-.135.083-.266.168-.392.261a6.3,6.3,0,0,0-.62.513c-.107.1-.218.19-.318.294a6.878,6.878,0,0,0-.615.746c-.052.073-.116.136-.164.211a6.826,6.826,0,0,0-.592,1.088c-.043.1-.071.209-.109.313a6.932,6.932,0,0,0-.243.7h-5.4V299.454h31.083v27.629H246.231a6.814,6.814,0,0,0-.245-.7Zm-6.445,5.878A3.454,3.454,0,1,1,243,328.81,3.457,3.457,0,0,1,239.541,332.263Zm35.2-19H268.9v-6.907h2.386Z" transform="translate(-175.649 -232.107)"/>
    </g>
  </g>
</svg>
