<svg xmlns="http://www.w3.org/2000/svg" width="239" height="114" viewBox="0 0 239 114">
  <g id="Grupo_85498" data-name="Grupo 85498" transform="translate(-236 -1517.221)">
    <path id="Rectángulo_31464" data-name="Rectángulo 31464" d="M72,0H239a0,0,0,0,1,0,0V72a0,0,0,0,1,0,0H0a0,0,0,0,1,0,0v0A72,72,0,0,1,72,0Z" transform="translate(236 1559.221)" fill="#c3b5ec"/>
    <g id="Page-1" transform="translate(280.666 1517.221)">
      <g id="_008---Platform" data-name="008---Platform" transform="translate(0 0)">
        <path id="Shape" d="M1,51.933V41H46.556A3.655,3.655,0,0,1,50.2,44.644v3.644a3.655,3.655,0,0,1-3.644,3.644Z" transform="translate(0.822 33.712)" fill="#7f8e94"/>
        <path id="Shape-2" data-name="Shape" d="M1,47V67.045a1.822,1.822,0,0,0,1.822,1.822H37.445a1.822,1.822,0,0,0,1.822-1.822V47Z" transform="translate(0.822 38.645)" fill="#607d8b"/>
        <path id="Rectangle-path" d="M1,9H8.289V67.311H1Z" transform="translate(0.822 7.4)" fill="#607d8b"/>
        <path id="Shape-3" data-name="Shape" d="M4.644,1H48.378a3.644,3.644,0,0,1,3.644,3.644V15.578H1V4.644A3.644,3.644,0,0,1,4.644,1Z" transform="translate(0.822 0.822)" fill="#9e9e9e"/>
        <path id="Shape-4" data-name="Shape" d="M21,9l5.773,8.659a1.822,1.822,0,0,0,3.032,0L35.578,9Z" transform="translate(17.267 7.4)" fill="#7f8e94"/>
        <path id="Shape-5" data-name="Shape" d="M13,9l5.773,8.659a1.822,1.822,0,0,0,3.032,0L27.578,9Z" transform="translate(10.689 7.4)" fill="#607d8b"/>
        <path id="Shape-6" data-name="Shape" d="M5,9l5.773,8.659a1.822,1.822,0,0,0,3.032,0L19.578,9Z" transform="translate(4.111 7.4)" fill="#7f8e94"/>
        <ellipse id="Oval" cx="5.892" cy="6.383" rx="5.892" ry="6.383" transform="translate(17.023 32.407)" fill="#ffcbbf"/>
        <path id="Shape-7" data-name="Shape" d="M13.644,25h1.822a3.644,3.644,0,0,1,3.644,3.644V39.578H10V28.644A3.644,3.644,0,0,1,13.644,25Z" transform="translate(8.222 20.556)" fill="#ffba5b"/>
        <path id="Rectangle-path-2" data-name="Rectangle-path" d="M10,33h9.111V47.578H10Z" transform="translate(8.222 27.134)" fill="#463c5f"/>
        <circle id="Oval-2" data-name="Oval" cx="6.383" cy="6.383" r="6.383" transform="translate(34.699 32.407)" fill="#ffcbbf"/>
        <path id="Shape-8" data-name="Shape" d="M23.644,25h1.822a3.644,3.644,0,0,1,3.644,3.644V39.578H20V28.644A3.644,3.644,0,0,1,23.644,25Z" transform="translate(16.445 20.556)" fill="#675d84"/>
        <path id="Rectangle-path-3" data-name="Rectangle-path" d="M20,33h9.111V47.578H20Z" transform="translate(16.445 27.134)" fill="#463c5f"/>
        <path id="Rectangle-path-4" data-name="Rectangle-path" d="M2,0H49.066a2,2,0,0,1,2,2V57.9a2,2,0,0,1-2,2H2a2,2,0,0,1-2-2V2A2,2,0,0,1,2,0Z" transform="translate(56.304 19.641)" fill="#ff7758"/>
        <path id="Shape-9" data-name="Shape" d="M33,43H76.734v7.289a3.644,3.644,0,0,1-3.644,3.644H36.644A3.644,3.644,0,0,1,33,50.289Z" transform="translate(27.134 35.356)" fill="#7f8e94"/>
        <rect id="Rectangle-path-5" data-name="Rectangle-path" width="51.066" height="7.856" rx="2" transform="translate(56.304 100.168)" fill="#b17728"/>
        <path id="Shape-10" data-name="Shape" d="M35,49h7.289v7.289a3.644,3.644,0,0,1-7.289,0Z" transform="translate(28.778 40.289)" fill="#607d8b"/>
        <path id="Shape-11" data-name="Shape" d="M51,49h7.289v7.289a3.644,3.644,0,0,1-7.289,0Z" transform="translate(41.934 40.289)" fill="#607d8b"/>
        <path id="Rectangle-path-6" data-name="Rectangle-path" d="M31,16H82.023V37.867H31Z" transform="translate(25.489 13.156)" fill="#02a9f4"/>
        <path id="Shape-12" data-name="Shape" d="M31,33H41.933a1.822,1.822,0,0,1,1.822,1.822v5.467a1.822,1.822,0,0,1-1.822,1.822H31Z" transform="translate(25.489 27.134)" fill="#ffba5b"/>
        <path id="Shape-13" data-name="Shape" d="M53.822,33H64.756v9.111H53.822A1.822,1.822,0,0,1,52,40.289V34.822A1.822,1.822,0,0,1,53.822,33Z" transform="translate(42.756 27.134)" fill="#ffba5b"/>
        <g id="Grupo_84310" data-name="Grupo 84310">
          <path id="Shape-14" data-name="Shape" d="M3.644,109.334H38.267a3.644,3.644,0,0,0,3.644-3.644V87.467h5.467A5.467,5.467,0,0,0,52.845,82V78.356a5.467,5.467,0,0,0-5.467-5.467V49.2a5.425,5.425,0,0,0-1.367-3.579,8.2,8.2,0,1,0-10.022,0A5.425,5.425,0,0,0,34.622,49.2V72.889H29.156V49.2a5.425,5.425,0,0,0-1.367-3.579,8.2,8.2,0,1,0-10.022,0A5.425,5.425,0,0,0,16.4,49.2V72.889H10.933V22.413l2.435,3.644a3.644,3.644,0,0,0,6.064,0l4.257-6.378,4.257,6.378a3.644,3.644,0,0,0,6.064,0l4.257-6.378,4.257,6.378a3.644,3.644,0,0,0,6.064,0L54.361,17.4l-.027-.018a1.778,1.778,0,0,0,.333-.98V5.467A5.467,5.467,0,0,0,49.2,0H5.467A5.467,5.467,0,0,0,0,5.467V105.69A3.644,3.644,0,0,0,3.644,109.334ZM49.2,78.356V82a1.822,1.822,0,0,1-1.822,1.822H18.222a1.822,1.822,0,1,0,0,3.644H38.267V105.69H34.622v-3.644a1.822,1.822,0,0,0-3.644,0v3.644H10.933v-3.644a1.822,1.822,0,0,0-3.644,0v3.644H3.644V87.467H9.111a1.822,1.822,0,0,0,0-3.644H3.644V76.534H47.378A1.822,1.822,0,0,1,49.2,78.356ZM41,34.622a4.556,4.556,0,1,1-4.556,4.556A4.556,4.556,0,0,1,41,34.622Zm.911,12.756A1.822,1.822,0,0,1,43.734,49.2v9.111H38.267V49.2a1.822,1.822,0,0,1,1.822-1.822ZM38.267,61.956h5.467V72.889H38.267ZM22.778,34.622a4.556,4.556,0,1,1-4.556,4.556A4.556,4.556,0,0,1,22.778,34.622Zm.911,12.756A1.822,1.822,0,0,1,25.511,49.2v9.111H20.045V49.2a1.822,1.822,0,0,1,1.822-1.822ZM20.045,61.956h5.467V72.889H20.045ZM3.644,72.889V18.222H7.289V72.889ZM16.4,24.053l-3.885-5.831h7.77Zm14.578,0-3.885-5.831h7.77Zm14.578,0-3.885-5.831h7.77ZM5.467,3.644H49.2a1.822,1.822,0,0,1,1.822,1.822V7.289h-16.4a1.822,1.822,0,1,0,0,3.644h16.4v3.644H3.644V10.933H25.511a1.822,1.822,0,0,0,0-3.644H3.644V5.467A1.822,1.822,0,0,1,5.467,3.644Z" transform="translate(0 0)"/>
          <path id="Shape-15" data-name="Shape" d="M30,25.867V71.423a5.467,5.467,0,0,0,3.644,5.131v5.8a5.467,5.467,0,0,0,3.644,5.131v5.8a5.4,5.4,0,0,0,.335,1.822H35.467a5.467,5.467,0,0,0,0,10.933H79.2a5.467,5.467,0,0,0,0-10.933H77.043a5.4,5.4,0,0,0,.335-1.822v-5.8a5.467,5.467,0,0,0,3.644-5.131v-5.8a5.467,5.467,0,0,0,3.644-5.131V20.4A5.467,5.467,0,0,0,79.2,14.933H59.156V7.644h5.467a1.822,1.822,0,0,0,0-3.644H50.045a1.822,1.822,0,0,0,0,3.644h5.467v7.289H35.467A5.467,5.467,0,0,0,30,20.4Zm3.644,32.8h9.111v5.467H33.644Zm7.289,34.622V87.823h3.644v5.467a1.822,1.822,0,0,1-3.644,0Zm25.511-5.467v5.467a5.4,5.4,0,0,0,.335,1.822H47.887a5.4,5.4,0,0,0,.335-1.822V87.823Zm14.578,12.756A1.822,1.822,0,0,1,79.2,102.4H35.467a1.822,1.822,0,1,1,0-3.644H79.2A1.822,1.822,0,0,1,81.023,100.578ZM70.089,93.289V87.823h3.644v5.467a1.822,1.822,0,0,1-3.644,0Zm7.289-10.933a1.822,1.822,0,0,1-1.822,1.822H39.111a1.822,1.822,0,0,1-1.822-1.822V76.889H77.378ZM79.2,73.245H35.467a1.822,1.822,0,0,1-1.822-1.822V67.778h9.111A3.644,3.644,0,0,0,46.4,64.134V58.667a3.644,3.644,0,0,0-3.644-3.644H33.644V49.556H81.023v5.467H71.911a3.644,3.644,0,0,0-3.644,3.644v5.467a3.644,3.644,0,0,0,3.644,3.644h9.111v3.644A1.822,1.822,0,0,1,79.2,73.245ZM33.644,27.689H55.511V45.911H33.644Zm47.378,0V45.911H59.156V27.689Zm0,36.445H71.911V58.667h9.111ZM35.467,18.578H79.2A1.822,1.822,0,0,1,81.023,20.4v3.644H33.644V20.4A1.822,1.822,0,0,1,35.467,18.578Z" transform="translate(24.667 3.289)"/>
          <path id="Shape-16" data-name="Shape" d="M51.111,34H43.822a1.822,1.822,0,1,0,0,3.644h7.289a1.822,1.822,0,0,0,0-3.644Z" transform="translate(34.534 27.956)"/>
        </g>
      </g>
    </g>
  </g>
</svg>
