<svg xmlns="http://www.w3.org/2000/svg" width="190" height="118" viewBox="0 0 190 118">
  <g id="Grupo_85499" data-name="Grupo 85499" transform="translate(-181 -1609.221)">
    <g id="Grupo_85498" data-name="Grupo 85498">
      <rect id="Rect치ngulo_31485" data-name="Rect치ngulo 31485" width="190" height="118" rx="10" transform="translate(181 1609.221)" fill="#ffe9cb"/>
      <rect id="Rect치ngulo_31486" data-name="Rect치ngulo 31486" width="11" height="118" transform="translate(360 1609.221)" fill="#ffba5b"/>
      <g id="Outline" transform="translate(222.717 1614.938)">
        <path id="Trazado_146991" data-name="Trazado 146991" d="M92.971,336a4.971,4.971,0,1,0,4.971,4.971A4.971,4.971,0,0,0,92.971,336Zm0,7.457a2.486,2.486,0,1,1,2.486-2.486A2.486,2.486,0,0,1,92.971,343.457Z" transform="translate(-60.815 -270.289)" fill="#675d84"/>
        <path id="Trazado_146992" data-name="Trazado 146992" d="M364.971,336a4.971,4.971,0,1,0,4.971,4.971A4.971,4.971,0,0,0,364.971,336Zm0,7.457a2.486,2.486,0,1,1,2.486-2.486A2.486,2.486,0,0,1,364.971,343.457Z" transform="translate(-290.561 -270.289)" fill="#675d84"/>
        <path id="Trazado_146993" data-name="Trazado 146993" d="M168,344h27.341v2.486H168Z" transform="translate(-128.387 -277.046)" fill="#675d84"/>
        <path id="Trazado_146994" data-name="Trazado 146994" d="M168,376h27.341v2.486H168Z" transform="translate(-128.387 -304.075)" fill="#675d84"/>
        <path id="Trazado_146995" data-name="Trazado 146995" d="M88.081,38.37H84.353V24.7a8.709,8.709,0,0,0-8.7-8.7H30.913a8.709,8.709,0,0,0-8.7,8.7v4.971H52.04V59.5H42.155l4.915-5.461v2.975h2.486V44.584H47.069v5.737L38.811,59.5H24.7V32.156H22.214V38.37H18.486A2.488,2.488,0,0,0,16,40.855V53.283a2.489,2.489,0,0,0,2.486,2.486h3.728V76.9A3.734,3.734,0,0,0,24.7,80.41v7.67a2.488,2.488,0,0,0,2.486,2.486h7.457a2.488,2.488,0,0,0,2.486-2.486V80.624H79.381v7.457H71.925V83.11H69.439v4.971a2.489,2.489,0,0,0,2.486,2.486h7.457a2.488,2.488,0,0,0,2.486-2.486V80.41A3.734,3.734,0,0,0,84.353,76.9V55.769h3.728a2.488,2.488,0,0,0,2.486-2.486V40.855a2.488,2.488,0,0,0-2.486-2.486ZM24.7,24.7a6.221,6.221,0,0,1,6.214-6.214h44.74A6.221,6.221,0,0,1,81.867,24.7v2.486H24.7Zm29.827,4.971H81.867V59.5H67.756L59.5,50.321V44.584H57.012V57.012H59.5V54.036L64.412,59.5H54.526ZM18.486,53.283V40.855h3.728V53.283Zm16.156,34.8H27.185V80.624h7.457Zm45.983-9.942H25.942A1.244,1.244,0,0,1,24.7,76.9V61.983H36.574l-.37.411,1.847,1.662,1.867-2.074H66.649l1.867,2.074,1.847-1.662-.37-.412H81.867V76.9A1.244,1.244,0,0,1,80.624,78.139Zm7.457-24.855H84.353V40.855h3.728l0,12.428Z" fill="#675d84"/>
        <path id="Trazado_146996" data-name="Trazado 146996" d="M248,48h2.486v2.486H248Z" transform="translate(-195.96 -27.029)" fill="#675d84"/>
        <path id="Trazado_146997" data-name="Trazado 146997" d="M280,48h2.486v2.486H280Z" transform="translate(-222.988 -27.029)" fill="#675d84"/>
        <path id="Trazado_146998" data-name="Trazado 146998" d="M216,48h2.486v2.486H216Z" transform="translate(-168.931 -27.029)" fill="#675d84"/>
        <path id="Trazado_146999" data-name="Trazado 146999" d="M104,48h2.486v2.486H104Z" transform="translate(-74.329 -27.029)" fill="#675d84"/>
        <path id="Trazado_147000" data-name="Trazado 147000" d="M392,48h2.486v2.486H392Z" transform="translate(-317.59 -27.029)" fill="#675d84"/>
      </g>
    </g>
  </g>
</svg>
