<svg xmlns="http://www.w3.org/2000/svg" width="92.105" height="89.864" viewBox="0 0 92.105 89.864">
  <g id="cadena-de-valor" transform="translate(0 -6.229)">
    <g id="Grupo_85389" data-name="Grupo 85389" transform="translate(24.786 7.578)">
      <path id="Trazado_148435" data-name="Trazado 148435" d="M143.727,25.292v-10.7a.864.864,0,0,0-.862-.862h-4.217a.865.865,0,0,0-.867.862v10.7h5.946Z" transform="translate(-137.781 -13.729)" fill="#375e7d" fill-rule="evenodd"/>
    </g>
    <g id="Grupo_85390" data-name="Grupo 85390" transform="translate(27.493 7.578)">
      <path id="Trazado_148436" data-name="Trazado 148436" d="M156.071,25.292v-10.7a.864.864,0,0,0-.862-.862h-2.376a.864.864,0,0,1,.862.862v10.7h2.376Z" transform="translate(-152.833 -13.729)" fill="#2b4d66" fill-rule="evenodd"/>
    </g>
    <g id="Grupo_85391" data-name="Grupo 85391" transform="translate(77.658 31.302)">
      <path id="Trazado_148437" data-name="Trazado 148437" d="M438.122,178a1.348,1.348,0,0,1-1.349-1.348,1.364,1.364,0,0,1,.04-.328,36.2,36.2,0,0,0-4.9-28.626,1.349,1.349,0,0,1,2.254-1.484,38.9,38.9,0,0,1,5.268,30.734A1.35,1.35,0,0,1,438.122,178Z" transform="translate(-431.694 -145.606)"/>
    </g>
    <g id="Grupo_85392" data-name="Grupo 85392" transform="translate(66.289 8.185)">
      <path id="Trazado_148438" data-name="Trazado 148438" d="M392.96,40.525V18.154a1.056,1.056,0,0,0-1.05-1.051h-7.72l-3.462,8.016L377.265,17.1h-7.725a1.051,1.051,0,0,0-1.045,1.051V40.525a1.047,1.047,0,0,0,1.045,1.045H391.91A1.051,1.051,0,0,0,392.96,40.525Z" transform="translate(-368.494 -17.103)" fill="#c3b5ec" fill-rule="evenodd"/>
    </g>
    <g id="Grupo_85393" data-name="Grupo 85393" transform="translate(75.06 8.185)">
      <path id="Trazado_148439" data-name="Trazado 148439" d="M424.174,26.129V17.1h-6.925v9.026a.9.9,0,0,0,.9.9h5.12A.908.908,0,0,0,424.174,26.129Z" transform="translate(-417.249 -17.103)" fill="#eff6ff" fill-rule="evenodd"/>
    </g>
    <g id="Grupo_85395" data-name="Grupo 85395" transform="translate(29.268 35.013)">
      <path id="Trazado_148441" data-name="Trazado 148441" d="M180.973,202.786A18.274,18.274,0,1,0,162.7,184.515,18.27,18.27,0,0,0,180.973,202.786Z" transform="translate(-162.697 -166.238)" fill="#ffba5b" fill-rule="evenodd"/>
    </g>
    <g id="Grupo_85397" data-name="Grupo 85397" transform="translate(1.349 10.332)">
      <path id="Trazado_148443" data-name="Trazado 148443" d="M39.554,34.249H25.062V29.037l-8.781,5.212V29.037L7.5,34.249V51.357h6.864l4.579-8.093,4.584,8.093H39.554V34.249Z" transform="translate(-7.5 -29.037)" fill="#675d84" fill-rule="evenodd"/>
    </g>
    <g id="Grupo_85398" data-name="Grupo 85398" transform="translate(1.604 64.723)">
      <path id="Trazado_148444" data-name="Trazado 148444" d="M37.453,340.661,23.185,331.39l-5.043,3.274-9.225,6v19.832a.921.921,0,0,0,.918.918H17.02l6.165-9.546,6.165,9.546h7.18a.922.922,0,0,0,.923-.918V340.661Z" transform="translate(-8.917 -331.39)" fill="#ff7758" fill-rule="evenodd"/>
    </g>
    <g id="Grupo_85399" data-name="Grupo 85399" transform="translate(65.244 77.187)">
      <path id="Trazado_148445" data-name="Trazado 148445" d="M370.3,402.4a9.4,9.4,0,0,0-7.618,9.2v5.66a.977.977,0,0,0,.974.974h22.9a.977.977,0,0,0,.974-.974V411.6a9.4,9.4,0,0,0-7.618-9.2A7.564,7.564,0,0,0,370.3,402.4Z" transform="translate(-362.682 -400.674)" fill="#ffba5b" fill-rule="evenodd"/>
    </g>
    <g id="Grupo_85403" data-name="Grupo 85403" transform="translate(8.213 24.559)">
      <path id="Trazado_148449" data-name="Trazado 148449" d="M54.818,116.219v-7.17a.926.926,0,0,0-.923-.923H46.577a.923.923,0,0,0-.923.923v7.17h9.164Z" transform="translate(-45.654 -108.126)" fill="#375e7d" fill-rule="evenodd"/>
    </g>
    <g id="Grupo_85404" data-name="Grupo 85404" transform="translate(8.213 24.559)">
      <path id="Trazado_148450" data-name="Trazado 148450" d="M54.818,116.219v-7.17a.926.926,0,0,0-.923-.923H46.577a.923.923,0,0,0-.923.923v1.841h5.482a.923.923,0,0,1,.923.923v4.406h2.759Z" transform="translate(-45.654 -108.126)" fill="#2b4d66" fill-rule="evenodd"/>
    </g>
    <g id="Grupo_85405" data-name="Grupo 85405" transform="translate(9.707 80.832)">
      <path id="Trazado_148451" data-name="Trazado 148451" d="M66.29,421.954a1.016,1.016,0,0,0-1.01-1.015H54.97a1.016,1.016,0,0,0-1.01,1.015v5.7H66.29Z" transform="translate(-53.96 -420.939)" fill="#b6c4cf" fill-rule="evenodd"/>
    </g>
    <g id="Grupo_85406" data-name="Grupo 85406" transform="translate(9.707 88.038)">
      <path id="Trazado_148452" data-name="Trazado 148452" d="M53.96,460.994H66.29V467.7H53.96Z" transform="translate(-53.96 -460.994)" fill="#b6c4cf" fill-rule="evenodd"/>
    </g>
    <g id="Grupo_85407" data-name="Grupo 85407" transform="translate(68.359 67.292)">
      <path id="Trazado_148453" data-name="Trazado 148453" d="M380,349.323a9.309,9.309,0,0,0,18.618,0v-.806c-5.681.515-15.3-6.655-18.618,0Z" transform="translate(-380.002 -345.671)" fill="#ffe5c1" fill-rule="evenodd"/>
    </g>
    <g id="Grupo_85408" data-name="Grupo 85408" transform="translate(74.729 69.987)">
      <path id="Trazado_148454" data-name="Trazado 148454" d="M423.153,369.574a9.333,9.333,0,0,0,4.5-7.965V360.8a6.675,6.675,0,0,0-4.447.571,9.354,9.354,0,0,1-7.8,9.067,9.308,9.308,0,0,0,7.746-.867Z" transform="translate(-415.407 -360.652)" fill="#fed1a3" fill-rule="evenodd"/>
    </g>
    <g id="Grupo_85409" data-name="Grupo 85409" transform="translate(68.359 59.644)">
      <path id="Trazado_148455" data-name="Trazado 148455" d="M389.313,303.156c-4.656.076-9.311,3.58-9.311,10.495,3.223-4.411,12.85,2.7,18.618,0C398.62,306.736,393.964,303.233,389.313,303.156Z" transform="translate(-380.002 -303.156)" fill="#375e7d" fill-rule="evenodd"/>
    </g>
    <g id="Grupo_85410" data-name="Grupo 85410" transform="translate(76.126 59.644)">
      <path id="Trazado_148456" data-name="Trazado 148456" d="M434.025,313.651c0-6.915-4.656-10.418-9.306-10.495a9.24,9.24,0,0,0-1.545.153c3.452,1.183,6.313,4.426,6.4,9.73.005.087.005.168.005.255v.928A8.47,8.47,0,0,0,434.025,313.651Z" transform="translate(-423.174 -303.156)" fill="#2b4d66" fill-rule="evenodd"/>
    </g>
    <g id="Grupo_85411" data-name="Grupo 85411" transform="translate(0 6.229)">
      <path id="Trazado_148457" data-name="Trazado 148457" d="M236.1,201.989c-.423-.15-.856-.307-1.288-.47V194.74a4.379,4.379,0,0,1,1.829.862,1.349,1.349,0,0,0,1.822-1.991A7.226,7.226,0,0,0,234.811,192v-1.41a1.349,1.349,0,1,0-2.7,0V192.1c-.223.048-.451.1-.683.174a5.682,5.682,0,0,0-3.885,4.456,5,5,0,0,0,1.634,4.925,13.649,13.649,0,0,0,2.935,1.673v8.554a5.824,5.824,0,0,1-3.169-1.168,1.349,1.349,0,1,0-1.479,2.257,8.422,8.422,0,0,0,4.648,1.613v1.583a1.349,1.349,0,0,0,2.7,0v-1.687a6.845,6.845,0,0,0,5.419-5.624,6,6,0,0,0-4.13-6.868Zm-5.256-2.456a2.337,2.337,0,0,1-.648-2.3,3.03,3.03,0,0,1,1.917-2.338v5.442A8.717,8.717,0,0,1,230.843,199.533Zm6.725,8.876a4.2,4.2,0,0,1-2.758,3.283v-7.3l.388.139A3.345,3.345,0,0,1,237.569,208.41Z" transform="translate(-186.045 -156.318)"/>
      <path id="Trazado_148458" data-name="Trazado 148458" d="M174.823,158.738a19.623,19.623,0,1,0,19.62,19.626A19.648,19.648,0,0,0,174.823,158.738Zm0,36.548a16.925,16.925,0,1,1,16.922-16.922A16.944,16.944,0,0,1,174.823,195.286Z" transform="translate(-127.279 -131.303)"/>
      <path id="Trazado_148459" data-name="Trazado 148459" d="M90.756,18.622A1.349,1.349,0,0,0,92.1,17.272V9.236a2.4,2.4,0,0,0-2.4-2.4H67.334a2.4,2.4,0,0,0-2.395,2.4V18.4a38.887,38.887,0,0,0-30.187-1.95v-.9A1.349,1.349,0,0,0,33.4,14.195H32.081V8.44A2.214,2.214,0,0,0,29.87,6.229H25.653A2.216,2.216,0,0,0,23.437,8.44v5.754H20.261V10.332a1.349,1.349,0,0,0-2.038-1.16l-6.743,4V10.332a1.349,1.349,0,0,0-2.038-1.16L.661,14.383A1.35,1.35,0,0,0,0,15.544V32.652A1.349,1.349,0,0,0,1.349,34H13.668A38.892,38.892,0,0,0,10.82,66.4L.869,72.862a1.349,1.349,0,0,0-.614,1.131V81.2a1.349,1.349,0,1,0,2.7,0V74.726l12.919-8.394,12.919,8.394V93.394h-5.4V82.342a2.364,2.364,0,0,0-2.359-2.364H10.717a2.364,2.364,0,0,0-2.359,2.364V93.394h-5.4V87.905a1.349,1.349,0,1,0-2.7,0v5.92a2.27,2.27,0,0,0,2.267,2.267h26.7a2.272,2.272,0,0,0,2.272-2.267V88.818a38.869,38.869,0,0,0,32.405-.133V93.77a2.326,2.326,0,0,0,2.323,2.323h22.9a2.326,2.326,0,0,0,2.323-2.323v-5.66a10.726,10.726,0,0,0-6.175-9.7,10.619,10.619,0,0,0,3.059-7.463v-.806a12.073,12.073,0,0,0-3.3-8.765,10.53,10.53,0,0,0-7.33-3.079h-.044a10.536,10.536,0,0,0-7.334,3.079,12.071,12.071,0,0,0-3.3,8.765v.806a10.616,10.616,0,0,0,3.061,7.462,10.744,10.744,0,0,0-5.856,7.11,36.145,36.145,0,0,1-32.725.314V73.994a1.349,1.349,0,0,0-.614-1.131L16.607,63.591a1.35,1.35,0,0,0-1.47,0l-1.989,1.292A36.21,36.21,0,0,1,16.814,34H33.4a1.349,1.349,0,0,0,1.349-1.349V19.318a36.17,36.17,0,0,1,30.187,2.13V31.607A2.4,2.4,0,0,0,67.335,34H89.705a2.4,2.4,0,0,0,2.4-2.395V23.881a1.349,1.349,0,1,0-2.7,0V31.3H67.638V9.534h6.072v7.677a2.254,2.254,0,0,0,2.252,2.252h5.12a2.254,2.254,0,0,0,2.252-2.252V9.534h6.072v7.738a1.349,1.349,0,0,0,1.349,1.349ZM20.688,93.394H11.056v-4.5h9.632Zm0-7.2H11.056V82.676h9.632Zm56.983-25.2c3.639.07,7.533,2.674,7.925,8.216-2.215.59-5.123-.149-7.946-.866a25.316,25.316,0,0,0-5.884-1.031,7.218,7.218,0,0,0-1.779.2A7.977,7.977,0,0,1,77.671,60.993Zm-7.962,9.951v-.3c1.208-1.114,3.706-.593,7.276.314a28.578,28.578,0,0,0,6.8,1.158,10.467,10.467,0,0,0,1.773-.146,7.959,7.959,0,0,1-15.851-1.026ZM66.593,88.109a8.023,8.023,0,0,1,6.055-7.769,10.636,10.636,0,0,0,10.043,0,8.022,8.022,0,0,1,6.053,7.769v5.285H66.593ZM26.135,8.928h3.247v5.267H26.135ZM16.027,31.3H9.562V25.909h6.465Zm16.027,0H18.726V25.483a2.275,2.275,0,0,0-2.272-2.272H9.136a2.275,2.275,0,0,0-2.272,2.272V31.3H2.7V16.312L8.781,12.7v2.842a1.349,1.349,0,0,0,2.038,1.16l6.743-4v2.842a1.349,1.349,0,0,0,1.349,1.349H32.054V31.3ZM80.636,16.765H76.409V9.534h4.227v7.23Z" transform="translate(0 -6.229)"/>
    </g>
  </g>
</svg>
