<svg xmlns="http://www.w3.org/2000/svg" width="80.322" height="84.279" viewBox="0 0 80.322 84.279">
  <g id="road" transform="translate(-12.021)">
    <g id="Grupo_84328" data-name="Grupo 84328" transform="translate(13.256 1.279)">
      <path id="Trazado_147039" data-name="Trazado 147039" d="M105.961,40.35C70.618,28.272,94.449,13.8,106.444,8.1a.17.17,0,0,0-.073-.323H97.814a8.931,8.931,0,0,0-3.928.918C80.3,15.334,52.9,31.493,75.035,45.045c25.382,15.541-1.83,35.835-16.071,44.539h55.841c7.468-10.659,22.941-38.371-8.844-49.234Z" transform="translate(-52.472 -7.774)" fill="#665e68"/>
      <path id="Trazado_147041" data-name="Trazado 147041" d="M248.92,37.387c-33.681-10.409-14.248-22.263-1.778-28.369a.663.663,0,0,0-.24-1.246h-.463c-11.731,5.465-37.2,20.263-1.169,32.576,31.785,10.862,16.312,38.575,8.844,49.234h6.329a4.259,4.259,0,0,0,3.789-2.5C271.406,72.308,278.1,46.406,248.92,37.387Z" transform="translate(-192.603 -7.773)" fill="#ffba5b"/>
      <g id="Grupo_84327" data-name="Grupo 84327" transform="translate(0 7.837)">
        <g id="Grupo_84326" data-name="Grupo 84326">
          <path id="Trazado_147042" data-name="Trazado 147042" d="M42.417,84.818c-16.364-10.019-5.983-21.464,6.2-29.434C34.988,63.03,19.352,75.6,37.68,86.818c21.467,13.144-1.052,29.688-17.458,39.744a1.521,1.521,0,0,0,.658,2.8h5.466C40.588,120.652,67.8,100.359,42.417,84.818Z" transform="translate(-19.526 -55.384)" fill="#ffba5b"/>
        </g>
      </g>
    </g>
    <g id="Grupo_84329" data-name="Grupo 84329" transform="translate(12.02 0)">
      <path id="Trazado_147043" data-name="Trazado 147043" d="M214.425,59.186a1.235,1.235,0,0,0-1.685-.462c-.014.008-.358.2-.9.563a1.235,1.235,0,1,0,1.355,2.066c.471-.309.765-.478.773-.482A1.236,1.236,0,0,0,214.425,59.186Z" transform="translate(-178.478 -48.922)" fill="#fff"/>
      <path id="Trazado_147044" data-name="Trazado 147044" d="M284.38,412.768c-.416.488-.854.981-1.3,1.466a1.235,1.235,0,1,0,1.811,1.681c.473-.51.935-1.03,1.373-1.544a1.235,1.235,0,0,0-1.881-1.6Z" transform="translate(-238.183 -344.461)" fill="#fff"/>
      <path id="Trazado_147045" data-name="Trazado 147045" d="M317.269,368.5a1.236,1.236,0,0,0-1.648.581c-.267.559-.568,1.13-.9,1.7a1.235,1.235,0,0,0,2.142,1.232c.358-.622.688-1.249.982-1.864A1.236,1.236,0,0,0,317.269,368.5Z" transform="translate(-264.76 -307.744)" fill="#fff"/>
      <path id="Trazado_147046" data-name="Trazado 147046" d="M333.907,320.563c.031-.4.048-.8.048-1.19,0-.335-.012-.673-.035-1a1.235,1.235,0,1,0-2.465.173c.019.274.029.554.029.832,0,.327-.013.662-.04.995a1.235,1.235,0,1,0,2.463.2Z" transform="translate(-278.861 -265.003)" fill="#fff"/>
      <path id="Trazado_147047" data-name="Trazado 147047" d="M313.128,269.858a1.236,1.236,0,1,0-1.876,1.609,14.951,14.951,0,0,1,1.121,1.479,1.236,1.236,0,0,0,2.061-1.363A17.448,17.448,0,0,0,313.128,269.858Z" transform="translate(-261.748 -225.077)" fill="#fff"/>
      <path id="Trazado_147048" data-name="Trazado 147048" d="M273.141,238.1c-.566-.365-1.167-.727-1.784-1.077a1.236,1.236,0,1,0-1.216,2.151c.576.326,1.135.663,1.661,1a1.236,1.236,0,0,0,1.339-2.077Z" transform="translate(-227.128 -197.877)" fill="#fff"/>
      <path id="Trazado_147049" data-name="Trazado 147049" d="M224.026,213.26a1.236,1.236,0,1,0-1.2,2.159c.581.323,1.193.648,1.819.965a1.235,1.235,0,1,0,1.117-2.2C225.163,213.878,224.579,213.568,224.026,213.26Z" transform="translate(-187.594 -178.025)" fill="#fff"/>
      <path id="Trazado_147050" data-name="Trazado 147050" d="M181.487,185.51a1.235,1.235,0,0,0,1.6-1.881c-.5-.426-.965-.861-1.383-1.292a1.235,1.235,0,0,0-1.775,1.719C180.4,184.544,180.927,185.033,181.487,185.51Z" transform="translate(-152.001 -152.009)" fill="#fff"/>
      <path id="Trazado_147051" data-name="Trazado 147051" d="M159.6,135.034a1.238,1.238,0,0,0-1.269,1.2c0,.088,0,.176,0,.264a9.816,9.816,0,0,0,.212,2.024,1.235,1.235,0,0,0,2.418-.51,7.35,7.35,0,0,1-.159-1.515q0-.1,0-.195a1.236,1.236,0,0,0-1.2-1.269Z" transform="translate(-134.246 -112.806)" fill="#fff"/>
      <path id="Trazado_147052" data-name="Trazado 147052" d="M173.041,91.794a1.235,1.235,0,0,0,1.725-.276,17.591,17.591,0,0,1,1.185-1.458,1.236,1.236,0,0,0-1.834-1.656,20.044,20.044,0,0,0-1.353,1.665A1.236,1.236,0,0,0,173.041,91.794Z" transform="translate(-146.109 -73.512)" fill="#fff"/>
      <path id="Trazado_147053" data-name="Trazado 147053" d="M249.58,449.894c-.456.377-.728.584-.73.586a1.235,1.235,0,1,0,1.494,1.968c.012-.01.311-.236.811-.65a1.235,1.235,0,0,0-1.575-1.9Z" transform="translate(-209.457 -375.601)" fill="#fff"/>
      <path id="Trazado_147054" data-name="Trazado 147054" d="M57.047,84.279H81.1a5.478,5.478,0,0,0,4.9-3.2C97.185,58.044,94.615,37.3,69.938,29.669c-7.944-2.455-17.5-6.467-17.9-11.635C51.715,13.9,57.2,9.043,68.339,3.589A1.9,1.9,0,0,0,67.556,0H58.6a10.1,10.1,0,0,0-4.47,1.043,118.048,118.048,0,0,0-12.4,6.962C28.657,15.34,21.964,22.444,21.836,29.121c-.088,4.571,2.917,8.755,8.931,12.437,5.448,3.335,8.21,7.077,8.211,11.12,0,10.782-19.32,22.627-25.67,26.519-2.289,1.4-1.325,5.082,1.3,5.082H51.285a1.235,1.235,0,1,0,0-2.469H24C45.027,67.988,57.923,50.592,36.464,37.452c-13.378-8.191-7.813-17.521,5.176-26.419A111.45,111.45,0,0,1,55.213,3.262,7.654,7.654,0,0,1,58.6,2.469h3.277C55.335,6,45.742,12.281,46.138,19.7c.152,2.846,1.764,5.541,4.793,8.008,3.2,2.608,8.11,5.053,14.593,7.269,11.264,3.849,17.42,10.229,18.3,18.961a1.235,1.235,0,0,0,2.457-.246c-.981-9.779-7.695-16.862-19.954-21.052C54.98,28.767,48.853,24.246,48.6,19.57a7.993,7.993,0,0,1,1.555-4.809c-3.688,8.974,9.756,14.395,19.05,17.267,9.383,2.9,15.64,7.825,18.6,14.639C92.8,58.17,87.423,72.49,83.774,80A3.031,3.031,0,0,1,81.1,81.81h-4c4.27-6.483,8.132-14.4,9.078-22.08a1.234,1.234,0,1,0-2.45-.3C83.249,63.3,81.361,71.3,74.119,81.81H57.047a1.235,1.235,0,0,0,0,2.469ZM19.4,81.81H14.612a.106.106,0,0,1-.021,0h0a.361.361,0,0,1-.1-.262c0-.176.08-.227.107-.244C26.126,74.236,41.45,63.581,41.447,52.677c0-4.96-3.161-9.41-9.391-13.225-7.93-4.856-10.37-10.488-4.486-17.638-3.5,7.232.253,13.06,7.052,17.4.492.314.644.4,1.155.722C55.874,52.744,39.646,69.362,19.4,81.81Z" transform="translate(-12.02 0)" fill="#050402"/>
    </g>
  </g>
</svg>
