<svg xmlns="http://www.w3.org/2000/svg" width="48.909" height="48.932" viewBox="0 0 48.909 48.932">
  <g id="ley" transform="translate(-0.003)">
    <g id="Grupo_85418" data-name="Grupo 85418" transform="translate(0.958 0.955)">
      <path id="Trazado_148497" data-name="Trazado 148497" d="M48.787,51.267l-.073-38.192A3.823,3.823,0,0,0,44.966,10h-32.1A2.866,2.866,0,0,0,10,12.866v4.776h5.732V54.133A2.866,2.866,0,0,0,18.6,57H51.653a2.866,2.866,0,0,0,2.866-2.866V51.267Z" transform="translate(-10.003 -10)" fill="#eefaff"/>
      <path id="Trazado_148498" data-name="Trazado 148498" d="M260.918,42.586a26.809,26.809,0,0,0-10.826-.424,17.737,17.737,0,0,0-7.492,3.116c-9.419,6.963-6.8,24.164-6.837,24.312A55.074,55.074,0,0,0,245,63.475l-1.847-3.694h5.9a48.959,48.959,0,0,0,3.654-4.257,81.089,81.089,0,0,0,8.215-12.938Z" transform="translate(-213.92 -38.765)" fill="#ffba5b"/>
      <path id="Trazado_148502" data-name="Trazado 148502" d="M4.7,0A4.7,4.7,0,1,1,0,4.7,4.7,4.7,0,0,1,4.7,0Z" transform="translate(9.69 5.945)" fill="#ff7758"/>
    </g>
    <g id="Grupo_85419" data-name="Grupo 85419" transform="translate(0.003 0)">
      <path id="Trazado_148499" data-name="Trazado 148499" d="M.958,9.553H5.735V45.089A3.825,3.825,0,0,0,9.556,48.91h15.38a.955.955,0,0,0,0-1.911H12.863a3.8,3.8,0,0,0,.514-1.911V43.178H44.518v1.911A1.913,1.913,0,0,1,42.608,47H33.533a.955.955,0,1,0,0,1.911h9.075a3.825,3.825,0,0,0,3.821-3.821V42.223a.955.955,0,0,0-.955-.955H40.7V18.041a81.175,81.175,0,0,0,8.12-12.849.958.958,0,0,0-.62-1.341l-.008,0a28.044,28.044,0,0,0-7.813-.8A4.791,4.791,0,0,0,35.921,0H3.824A3.825,3.825,0,0,0,0,3.821V8.6a.955.955,0,0,0,.955.955ZM37.1,19.441c-.449.527-.927,1.055-1.423,1.575H30.189a.955.955,0,0,0-.854,1.383l1.5,3a57.444,57.444,0,0,1-6.9,4.669,27.823,27.823,0,0,1,5.338-12.877h6.75a.955.955,0,0,0,0-1.911H30.838a29.677,29.677,0,0,1,4.108-3.821h5.095a.955.955,0,1,0,0-1.911H37.749a29.763,29.763,0,0,1,8.435-3.444A80.338,80.338,0,0,1,37.1,19.441ZM23.541,23.8c.286-4.655,1.416-10.336,4.851-13.968l-.755,6.292c0,.028,0,.056-.006.084A30.173,30.173,0,0,0,23.541,23.8Zm6.335-10.3.66-5.5a16.179,16.179,0,0,1,4.89-2.277L33.361,10.1a.953.953,0,0,0-.076.237A31.589,31.589,0,0,0,29.876,13.5ZM41.39,4.943c.6,0,1.175.021,1.717.056A31.781,31.781,0,0,0,36.4,8.14L37.78,5.214a23.382,23.382,0,0,1,3.61-.271ZM35.921,1.911a2.874,2.874,0,0,1,2.4,1.3A18.6,18.6,0,0,0,27.628,7.9c-3.951,3.677-5.491,9.5-5.937,14.908a45.851,45.851,0,0,0,.15,9l-.184,2.579H10.511a.955.955,0,1,0,0,1.911H26.368a.955.955,0,1,0,0-1.911h-2.8l.143-2.007a57.351,57.351,0,0,0,8.924-5.977.955.955,0,0,0,.251-1.168l-1.156-2.311h4.353a.955.955,0,0,0,.684-.289C37.4,22,38,21.337,38.558,20.68l.228-.271V41.267H12.421a.955.955,0,0,0-.955.955v2.866a1.911,1.911,0,0,1-3.821,0V3.821a3.8,3.8,0,0,0-.514-1.911ZM1.913,3.821a1.911,1.911,0,0,1,3.821,0V7.642H1.913Z" transform="translate(-0.003 0)"/>
      <path id="Trazado_148500" data-name="Trazado 148500" d="M100.958,321.911h8.215a.955.955,0,0,0,0-1.911h-8.215a.955.955,0,0,0,0,1.911Z" transform="translate(-90.45 -289.431)"/>
      <path id="Trazado_148501" data-name="Trazado 148501" d="M108.735,71.463A5.732,5.732,0,1,0,103,65.732,5.738,5.738,0,0,0,108.735,71.463Zm0-9.553a3.821,3.821,0,1,1-3.821,3.821A3.825,3.825,0,0,1,108.735,61.911Z" transform="translate(-93.164 -54.268)"/>
      <circle id="Elipse_4430" data-name="Elipse 4430" cx="0.941" cy="0.941" r="0.941" transform="translate(28.211 47.05)"/>
    </g>
  </g>
</svg>
