<svg xmlns="http://www.w3.org/2000/svg" width="610" height="370" viewBox="0 0 610 370">
  <g id="Grupo_86288" data-name="Grupo 86288" transform="translate(-180 -971.221)">
    <path id="Trazado_151111" data-name="Trazado 151111" d="M0,0H610V370H0Z" transform="translate(180 971.221)" fill="#c3b5ec"/>
    <g id="edificio-del-gobierno" transform="translate(406.557 1034.475)">
      <g id="Grupo_84314" data-name="Grupo 84314" transform="translate(2.298 2.298)">
        <g id="Grupo_84312" data-name="Grupo 84312">
          <path id="Trazado_146916" data-name="Trazado 146916" d="M7.5,40.287H159.79L88.241,7.5H79.049Zm76.145-9.193a6.128,6.128,0,1,1,6.128-6.128A6.128,6.128,0,0,1,83.645,31.094Z" transform="translate(-7.5 -7.5)" fill="#ffba5b" fill-rule="evenodd"/>
          <circle id="Elipse_4366" data-name="Elipse 4366" cx="6.128" cy="6.128" r="6.128" transform="matrix(0.987, -0.16, 0.16, 0.987, 69.105, 12.41)" fill="#e5ecf5"/>
          <path id="Trazado_146917" data-name="Trazado 146917" d="M159.79,132.884V114.5H7.5v18.385ZM7.5,234H159.79V224.81h-4.6v-9.193H12.1v9.193H7.5Z" transform="translate(-7.5 -81.712)" fill="#e5ecf5" fill-rule="evenodd"/>
          <path id="Trazado_146918" data-name="Trazado 146918" d="M52.5,268.847H75.481V204.5H52.5Zm101.731,0h22.981V204.5H154.231Zm-50.866,0h22.981V204.5H103.366Z" transform="translate(-38.711 -144.135)" fill="#e5ecf5" fill-rule="evenodd"/>
          <path id="Trazado_146919" data-name="Trazado 146919" d="M37.5,257.232H69.673V248.04H37.5Zm101.732,0H171.4V248.04H139.231ZM171.4,183.692V174.5H139.231v9.193Zm-83.04,73.541h32.174V248.04H88.365Zm32.174-73.541V174.5H88.365v9.193Zm-50.866,0V174.5H37.5v9.193Z" transform="translate(-28.307 -123.327)" fill="#ffba5b" fill-rule="evenodd"/>
          <path id="Trazado_146920" data-name="Trazado 146920" d="M7.5,40.287h9.193L88.241,7.5H79.049Z" transform="translate(-7.5 -7.5)" fill="#d4b981" fill-rule="evenodd"/>
          <path id="Trazado_146921" data-name="Trazado 146921" d="M14.394,114.5H7.5v18.385h6.894ZM7.5,234h6.894V224.81h4.6v-9.193H12.1v9.193H7.5Z" transform="translate(-7.5 -81.712)" fill="#cad8eb" fill-rule="evenodd"/>
          <path id="Trazado_146922" data-name="Trazado 146922" d="M52.5,268.847h6.894V204.5H52.5Zm101.731,0h6.894V204.5h-6.894Zm-50.866,0h6.894V204.5h-6.894Z" transform="translate(-38.711 -144.135)" fill="#cad8eb" fill-rule="evenodd"/>
          <path id="Trazado_146923" data-name="Trazado 146923" d="M37.5,257.232h6.894V248.04H37.5Zm101.732,0h6.894V248.04h-6.894v9.193Zm6.894-82.733h-6.894v9.193h6.894Zm-57.76,82.733H95.26V248.04H88.366ZM95.26,174.5H88.366v9.193H95.26Zm-50.866,0H37.5v9.193h6.894Z" transform="translate(-28.307 -123.327)" fill="#d4b981" fill-rule="evenodd"/>
          <path id="Trazado_146924" data-name="Trazado 146924" d="M132.1,257.232h18.692V248.04h4.6V183.692h-4.6V174.5H132.1v9.193h-4.6V248.04h4.6Zm50.866,0h18.692V248.04h4.6V183.692h-4.6V174.5H182.961v9.193h-4.6V248.04h4.6Z" transform="translate(-90.729 -123.327)" fill="#594e76" fill-rule="evenodd"/>
          <path id="Trazado_146925" data-name="Trazado 146925" d="M132.1,185.99v59.752h4.6v11.491h-4.6V248.04h-4.6V183.692h4.6V174.5h4.6V185.99Zm50.866,0v59.752h4.6v11.491h-4.6V248.04h-4.6V183.692h4.6V174.5h4.6V185.99Z" transform="translate(-90.729 -123.327)" fill="#463c5f" fill-rule="evenodd"/>
          <path id="Trazado_146926" data-name="Trazado 146926" d="M236,50.621a6.137,6.137,0,0,0,8.427,5.683,6.13,6.13,0,0,1,0-11.365A6.137,6.137,0,0,0,236,50.621Z" transform="translate(-165.983 -33.155)" fill="#cad8eb" fill-rule="evenodd"/>
        </g>
      </g>
      <g id="Grupo_84315" data-name="Grupo 84315" transform="translate(0)">
        <path id="Trazado_146928" data-name="Trazado 146928" d="M24.193,227v55.156H19.6v9.193H15v4.6H162.694v-4.6h-4.6v-9.193h-4.6V227h-4.6v55.156h-6.894v4.6H153.5v4.6H125.924v-4.6h11.49v-4.6H130.52V227h-4.6v55.156h-4.6v9.193h-14.1v-9.193h-4.6V227h-4.6v55.156H91.145v4.6h11.491v4.6H75.058v-4.6H86.549v-4.6H79.654V227h-4.6v55.156h-4.6v9.193h-14.1v-9.193h-4.6V227h-4.6v55.156H40.28v4.6H51.77v4.6H24.193v-4.6H35.683v-4.6H28.789V227Z" transform="translate(-10.404 -157.442)"/>
        <path id="Trazado_146929" data-name="Trazado 146929" d="M4.6,471.6H76.145V467H0v13.789H133.906v-4.6H4.6Z" transform="translate(0 -323.902)"/>
        <path id="Trazado_146930" data-name="Trazado 146930" d="M263.5,471.6h71.549v4.6H321.26v4.6h18.385V467H263.5Z" transform="translate(-182.758 -323.902)"/>
        <path id="Trazado_146931" data-name="Trazado 146931" d="M83.541,0h-10.2L39.2,15.645l1.915,4.178L74.349,4.6h8.19l61.519,28.19H12.83L36.94,21.738,35.026,17.56,0,33.61V55.768H9.193v9.193h36.77V55.768h14.1v9.193h36.77V55.768h14.1v9.193h36.77V55.768h9.193V33.61ZM41.366,60.364H13.789v-4.6H41.366Zm101.732,0H115.52v-4.6H143.1ZM80.741,51.172v4.6H92.232v4.6H64.654v-4.6H76.145v-4.6H4.6V37.383H152.29V51.172Z" transform="translate(0)"/>
        <path id="Trazado_146932" data-name="Trazado 146932" d="M233.5,137h4.6v4.6h-4.6Z" transform="translate(-161.951 -95.02)"/>
        <path id="Trazado_146933" data-name="Trazado 146933" d="M221.321,53.853a8.442,8.442,0,0,0,8.108-6.128h7.213v-4.6h-7.213a8.428,8.428,0,0,0-16.216,0H206v4.6h7.213A8.443,8.443,0,0,0,221.321,53.853Zm0-12.257a3.83,3.83,0,1,1-3.83,3.83A3.834,3.834,0,0,1,221.321,41.6Z" transform="translate(-142.878 -25.662)"/>
        <path id="Trazado_146934" data-name="Trazado 146934" d="M263.5,137h4.6v4.6h-4.6Z" transform="translate(-182.758 -95.02)"/>
      </g>
    </g>
    <path id="Trazado_151112" data-name="Trazado 151112" d="M39.5,19.947H31.41v5.1h9.551V29H26.269V7.672H40.99v3.97H31.41v4.5H39.5Zm7.866-6.8.161,1.86a5.375,5.375,0,0,1,4.526-2.153,4.522,4.522,0,0,1,3.7,1.479,7.044,7.044,0,0,1,1.267,4.453V29H52.064V19a2.675,2.675,0,0,0-.483-1.765,2.236,2.236,0,0,0-1.758-.564,2.354,2.354,0,0,0-2.153,1.143V29H42.733V13.15ZM65.5,9.21v3.94H68.1v3.428H65.5v7.251a1.851,1.851,0,0,0,.322,1.245,1.729,1.729,0,0,0,1.274.352,7.242,7.242,0,0,0,1.23-.088v3.53a9.11,9.11,0,0,1-2.783.425,5.171,5.171,0,0,1-3.765-1.2,4.923,4.923,0,0,1-1.216-3.647V16.578H58.539V13.15h2.021V9.21ZM75.253,29H70.3V13.15h4.951ZM70.009,9.049a2.223,2.223,0,0,1,.762-1.739,3.223,3.223,0,0,1,3.955,0,2.223,2.223,0,0,1,.762,1.739,2.223,2.223,0,0,1-.762,1.739,3.223,3.223,0,0,1-3.955,0A2.223,2.223,0,0,1,70.009,9.049ZM77.67,20.958A9.682,9.682,0,0,1,79.3,15.025a5.352,5.352,0,0,1,4.541-2.168,4.552,4.552,0,0,1,3.574,1.67V6.5h4.951V29H87.924l-.249-1.7a4.674,4.674,0,0,1-3.867,1.992,5.342,5.342,0,0,1-4.482-2.168A9.989,9.989,0,0,1,77.67,20.958Zm4.937.308q0,4.219,2.461,4.219a2.43,2.43,0,0,0,2.344-1.377V18.072A2.365,2.365,0,0,0,85.1,16.666q-2.285,0-2.476,3.691ZM104.1,29a5.574,5.574,0,0,1-.469-1.421,4.59,4.59,0,0,1-3.809,1.714,5.623,5.623,0,0,1-3.809-1.355,4.313,4.313,0,0,1-1.567-3.406,4.433,4.433,0,0,1,1.9-3.9,9.7,9.7,0,0,1,5.537-1.318h1.523v-.839q0-2.193-1.89-2.193a1.545,1.545,0,0,0-1.758,1.737H94.823a4.425,4.425,0,0,1,1.956-3.731,8.218,8.218,0,0,1,4.988-1.434,7.205,7.205,0,0,1,4.79,1.479,5.144,5.144,0,0,1,1.8,4.058v7.017a7.186,7.186,0,0,0,.674,3.34V29ZM101,25.777a2.754,2.754,0,0,0,1.531-.4,2.479,2.479,0,0,0,.872-.894V21.954h-1.436q-2.578,0-2.578,2.314a1.413,1.413,0,0,0,.454,1.091A1.643,1.643,0,0,0,101,25.777Zm9.463-4.819a9.682,9.682,0,0,1,1.626-5.933,5.352,5.352,0,0,1,4.541-2.168,4.552,4.552,0,0,1,3.574,1.67V6.5h4.951V29h-4.438l-.249-1.7a4.674,4.674,0,0,1-3.867,1.992,5.342,5.342,0,0,1-4.482-2.168A9.989,9.989,0,0,1,110.468,20.958Zm4.937.308q0,4.219,2.461,4.219a2.43,2.43,0,0,0,2.344-1.377V18.072a2.365,2.365,0,0,0-2.314-1.406q-2.285,0-2.476,3.691Zm20.229,8.027a8.148,8.148,0,0,1-5.9-2.175,7.512,7.512,0,0,1-2.256-5.662v-.41a9.734,9.734,0,0,1,.9-4.292A6.592,6.592,0,0,1,131,13.875a7.938,7.938,0,0,1,4.1-1.018,6.861,6.861,0,0,1,5.273,2.073,8.145,8.145,0,0,1,1.934,5.779v1.919H132.5a3.558,3.558,0,0,0,1.157,2.095,3.443,3.443,0,0,0,2.314.762,4.437,4.437,0,0,0,3.662-1.641l2.256,2.666a6.306,6.306,0,0,1-2.615,2.029A8.836,8.836,0,0,1,135.634,29.293Zm-.557-12.627q-2.168,0-2.578,2.871h4.98v-.381a2.445,2.445,0,0,0-.6-1.838A2.39,2.39,0,0,0,135.077,16.666Zm17.52,7.881a1.14,1.14,0,0,0-.659-1.011,10.027,10.027,0,0,0-2.5-.791,11.422,11.422,0,0,1-3.047-1.077,5.1,5.1,0,0,1-1.831-1.619,3.865,3.865,0,0,1-.63-2.183,4.381,4.381,0,0,1,1.8-3.6,7.422,7.422,0,0,1,4.717-1.414,8.223,8.223,0,0,1,5.039,1.421,4.443,4.443,0,0,1,1.9,3.735h-4.951q0-1.9-2.007-1.9a1.989,1.989,0,0,0-1.3.432,1.338,1.338,0,0,0-.527,1.077,1.228,1.228,0,0,0,.645,1.069,6.09,6.09,0,0,0,2.058.674,17.785,17.785,0,0,1,2.483.63q3.574,1.23,3.574,4.409a4.151,4.151,0,0,1-1.926,3.53,8.447,8.447,0,0,1-4.988,1.362,8.62,8.62,0,0,1-3.633-.732,6.075,6.075,0,0,1-2.49-1.992,4.511,4.511,0,0,1-.894-2.651h4.614a1.908,1.908,0,0,0,.732,1.6,3.013,3.013,0,0,0,1.8.505,2.37,2.37,0,0,0,1.516-.41A1.312,1.312,0,0,0,152.6,24.547ZM176.063,29a5.574,5.574,0,0,1-.469-1.421,4.59,4.59,0,0,1-3.809,1.714,5.623,5.623,0,0,1-3.809-1.355,4.313,4.313,0,0,1-1.567-3.406,4.433,4.433,0,0,1,1.9-3.9,9.7,9.7,0,0,1,5.537-1.318h1.523v-.839q0-2.193-1.89-2.193a1.545,1.545,0,0,0-1.758,1.737h-4.937a4.425,4.425,0,0,1,1.956-3.731,8.218,8.218,0,0,1,4.988-1.434,7.205,7.205,0,0,1,4.79,1.479,5.144,5.144,0,0,1,1.8,4.058v7.017a7.186,7.186,0,0,0,.674,3.34V29Zm-3.091-3.223a2.754,2.754,0,0,0,1.531-.4,2.479,2.479,0,0,0,.872-.894V21.954h-1.436q-2.578,0-2.578,2.314a1.413,1.413,0,0,0,.454,1.091A1.643,1.643,0,0,0,172.973,25.777Zm9.463-4.819a9.682,9.682,0,0,1,1.626-5.933,5.352,5.352,0,0,1,4.541-2.168,4.552,4.552,0,0,1,3.574,1.67V6.5h4.951V29h-4.438l-.249-1.7a4.674,4.674,0,0,1-3.867,1.992,5.342,5.342,0,0,1-4.482-2.168A9.989,9.989,0,0,1,182.436,20.958Zm4.937.308q0,4.219,2.461,4.219a2.43,2.43,0,0,0,2.344-1.377V18.072a2.365,2.365,0,0,0-2.314-1.406q-2.285,0-2.476,3.691Zm20.859,3.281a1.14,1.14,0,0,0-.659-1.011,10.027,10.027,0,0,0-2.5-.791,11.422,11.422,0,0,1-3.047-1.077,5.1,5.1,0,0,1-1.831-1.619,3.865,3.865,0,0,1-.63-2.183,4.381,4.381,0,0,1,1.8-3.6,7.422,7.422,0,0,1,4.717-1.414,8.223,8.223,0,0,1,5.039,1.421,4.443,4.443,0,0,1,1.9,3.735H208.07q0-1.9-2.007-1.9a1.989,1.989,0,0,0-1.3.432,1.338,1.338,0,0,0-.527,1.077,1.228,1.228,0,0,0,.645,1.069,6.09,6.09,0,0,0,2.058.674,17.785,17.785,0,0,1,2.483.63q3.574,1.23,3.574,4.409a4.151,4.151,0,0,1-1.926,3.53,8.447,8.447,0,0,1-4.988,1.362,8.62,8.62,0,0,1-3.633-.732,6.075,6.075,0,0,1-2.49-1.992,4.511,4.511,0,0,1-.894-2.651h4.614a1.908,1.908,0,0,0,.732,1.6,3.013,3.013,0,0,0,1.8.505,2.37,2.37,0,0,0,1.516-.41A1.312,1.312,0,0,0,208.231,24.547Zm13.77.938a2.2,2.2,0,0,0,1.611-.564,2.068,2.068,0,0,0,.557-1.575H228.8a5.48,5.48,0,0,1-1.868,4.277,6.947,6.947,0,0,1-4.812,1.67,7.034,7.034,0,0,1-5.449-2.168,8.542,8.542,0,0,1-1.992-6.006v-.205a9.654,9.654,0,0,1,.886-4.241,6.453,6.453,0,0,1,2.556-2.827,7.622,7.622,0,0,1,3.955-.989,6.86,6.86,0,0,1,4.907,1.714,6.079,6.079,0,0,1,1.816,4.644h-4.629a2.71,2.71,0,0,0-.6-1.89,2.073,2.073,0,0,0-1.611-.659q-1.919,0-2.241,2.446a17.262,17.262,0,0,0-.1,2.139,6.78,6.78,0,0,0,.571,3.311A1.978,1.978,0,0,0,222,25.484Zm18.472-7.866-1.626-.117q-2.329,0-2.988,1.465V29h-4.937V13.15h4.629l.161,2.036a3.823,3.823,0,0,1,3.472-2.329,4.814,4.814,0,0,1,1.377.176ZM247.46,29h-4.951V13.15h4.951ZM242.216,9.049a2.223,2.223,0,0,1,.762-1.739,3.223,3.223,0,0,1,3.955,0,2.223,2.223,0,0,1,.762,1.739,2.223,2.223,0,0,1-.762,1.739,3.223,3.223,0,0,1-3.955,0A2.223,2.223,0,0,1,242.216,9.049Zm14.033.161v3.94h2.607v3.428h-2.607v7.251a1.851,1.851,0,0,0,.322,1.245,1.729,1.729,0,0,0,1.274.352,7.242,7.242,0,0,0,1.23-.088v3.53a9.11,9.11,0,0,1-2.783.425,5.171,5.171,0,0,1-3.765-1.2,4.923,4.923,0,0,1-1.216-3.647V16.578h-2.021V13.15h2.021V9.21ZM269.726,29a5.574,5.574,0,0,1-.469-1.421,4.59,4.59,0,0,1-3.809,1.714,5.623,5.623,0,0,1-3.809-1.355,4.313,4.313,0,0,1-1.567-3.406,4.433,4.433,0,0,1,1.9-3.9,9.7,9.7,0,0,1,5.537-1.318h1.523v-.839q0-2.193-1.89-2.193a1.545,1.545,0,0,0-1.758,1.737h-4.937a4.425,4.425,0,0,1,1.956-3.731,8.218,8.218,0,0,1,4.988-1.434,7.205,7.205,0,0,1,4.79,1.479,5.144,5.144,0,0,1,1.8,4.058v7.017a7.186,7.186,0,0,0,.674,3.34V29Zm-3.091-3.223a2.754,2.754,0,0,0,1.531-.4,2.479,2.479,0,0,0,.872-.894V21.954H267.6q-2.578,0-2.578,2.314a1.413,1.413,0,0,0,.454,1.091A1.643,1.643,0,0,0,266.635,25.777Zm18.384-1.23a1.14,1.14,0,0,0-.659-1.011,10.027,10.027,0,0,0-2.5-.791,11.422,11.422,0,0,1-3.047-1.077,5.1,5.1,0,0,1-1.831-1.619,3.865,3.865,0,0,1-.63-2.183,4.381,4.381,0,0,1,1.8-3.6,7.422,7.422,0,0,1,4.717-1.414,8.223,8.223,0,0,1,5.039,1.421,4.443,4.443,0,0,1,1.9,3.735h-4.951q0-1.9-2.007-1.9a1.989,1.989,0,0,0-1.3.432,1.338,1.338,0,0,0-.527,1.077,1.228,1.228,0,0,0,.645,1.069,6.09,6.09,0,0,0,2.058.674,17.785,17.785,0,0,1,2.483.63q3.574,1.23,3.574,4.409a4.151,4.151,0,0,1-1.926,3.53,8.447,8.447,0,0,1-4.988,1.362,8.62,8.62,0,0,1-3.633-.732,6.075,6.075,0,0,1-2.49-1.992,4.511,4.511,0,0,1-.894-2.651h4.614a1.908,1.908,0,0,0,.732,1.6,3.013,3.013,0,0,0,1.8.505,2.37,2.37,0,0,0,1.516-.41A1.312,1.312,0,0,0,285.019,24.547ZM308.485,29a5.574,5.574,0,0,1-.469-1.421,4.59,4.59,0,0,1-3.809,1.714,5.623,5.623,0,0,1-3.809-1.355,4.313,4.313,0,0,1-1.567-3.406,4.433,4.433,0,0,1,1.9-3.9,9.7,9.7,0,0,1,5.537-1.318H307.8v-.839q0-2.193-1.89-2.193a1.545,1.545,0,0,0-1.758,1.737h-4.937a4.425,4.425,0,0,1,1.956-3.731,8.218,8.218,0,0,1,4.988-1.434,7.205,7.205,0,0,1,4.79,1.479,5.144,5.144,0,0,1,1.8,4.058v7.017a7.186,7.186,0,0,0,.674,3.34V29Zm-3.091-3.223a2.754,2.754,0,0,0,1.531-.4,2.479,2.479,0,0,0,.872-.894V21.954h-1.436q-2.578,0-2.578,2.314a1.413,1.413,0,0,0,.454,1.091A1.643,1.643,0,0,0,305.395,25.777ZM320.688,29h-4.951V6.5h4.951ZM14.367,41.672l4.761,14.839,4.746-14.839h6.768V63H25.485V58.02l.5-10.2L20.827,63h-3.4L12.257,47.81l.5,10.21V63H7.614V41.672ZM38.888,63H33.937V47.15h4.951ZM33.644,43.049a2.223,2.223,0,0,1,.762-1.739,3.223,3.223,0,0,1,3.955,0,2.366,2.366,0,0,1,0,3.478,3.223,3.223,0,0,1-3.955,0A2.223,2.223,0,0,1,33.644,43.049Zm12.817,4.1.161,1.86a5.375,5.375,0,0,1,4.526-2.153,4.522,4.522,0,0,1,3.7,1.479,7.044,7.044,0,0,1,1.267,4.453V63H51.164V53a2.675,2.675,0,0,0-.483-1.765,2.236,2.236,0,0,0-1.758-.564,2.354,2.354,0,0,0-2.153,1.143V63H41.833V47.15ZM64.054,63H59.1V47.15h4.951ZM58.81,43.049a2.223,2.223,0,0,1,.762-1.739,3.223,3.223,0,0,1,3.955,0,2.366,2.366,0,0,1,0,3.478,3.223,3.223,0,0,1-3.955,0A2.223,2.223,0,0,1,58.81,43.049Zm16.582,15.5a1.14,1.14,0,0,0-.659-1.011,10.027,10.027,0,0,0-2.5-.791,11.422,11.422,0,0,1-3.047-1.077A5.1,5.1,0,0,1,67.35,54.05a3.865,3.865,0,0,1-.63-2.183,4.381,4.381,0,0,1,1.8-3.6,7.422,7.422,0,0,1,4.717-1.414,8.223,8.223,0,0,1,5.039,1.421,4.443,4.443,0,0,1,1.9,3.735H75.231q0-1.9-2.007-1.9a1.989,1.989,0,0,0-1.3.432,1.338,1.338,0,0,0-.527,1.077,1.228,1.228,0,0,0,.645,1.069,6.09,6.09,0,0,0,2.058.674,17.785,17.785,0,0,1,2.483.63q3.574,1.23,3.574,4.409a4.151,4.151,0,0,1-1.926,3.53,8.447,8.447,0,0,1-4.988,1.362,8.62,8.62,0,0,1-3.633-.732,6.075,6.075,0,0,1-2.49-1.992,4.511,4.511,0,0,1-.894-2.651h4.614a1.908,1.908,0,0,0,.732,1.6,3.013,3.013,0,0,0,1.8.505,2.37,2.37,0,0,0,1.516-.41A1.312,1.312,0,0,0,75.392,58.547ZM88.209,43.21v3.94h2.607v3.428H88.209v7.251a1.851,1.851,0,0,0,.322,1.245,1.729,1.729,0,0,0,1.274.352,7.242,7.242,0,0,0,1.23-.088v3.53a9.11,9.11,0,0,1-2.783.425,5.171,5.171,0,0,1-3.765-1.2,4.923,4.923,0,0,1-1.216-3.647V50.578H81.251V47.15h2.021V43.21Zm12.217,20.083a8.148,8.148,0,0,1-5.9-2.175,7.512,7.512,0,0,1-2.256-5.662v-.41a9.734,9.734,0,0,1,.9-4.292A6.592,6.592,0,0,1,95.8,47.875a7.938,7.938,0,0,1,4.1-1.018,6.861,6.861,0,0,1,5.273,2.073,8.145,8.145,0,0,1,1.934,5.779v1.919H97.292a3.558,3.558,0,0,0,1.157,2.095,3.443,3.443,0,0,0,2.314.762,4.437,4.437,0,0,0,3.662-1.641l2.256,2.666a6.306,6.306,0,0,1-2.615,2.029A8.836,8.836,0,0,1,100.426,63.293ZM99.87,50.666q-2.168,0-2.578,2.871h4.98v-.381a2.445,2.445,0,0,0-.6-1.838A2.39,2.39,0,0,0,99.87,50.666Zm18.809.952-1.626-.117q-2.329,0-2.988,1.465V63h-4.937V47.15h4.629l.161,2.036a3.823,3.823,0,0,1,3.472-2.329,4.814,4.814,0,0,1,1.377.176ZM125.666,63h-4.951V47.15h4.951Zm-5.244-19.951a2.223,2.223,0,0,1,.762-1.739,3.223,3.223,0,0,1,3.955,0,2.366,2.366,0,0,1,0,3.478,3.223,3.223,0,0,1-3.955,0A2.223,2.223,0,0,1,120.421,43.049Zm7.661,11.88a9.355,9.355,0,0,1,.923-4.226,6.6,6.6,0,0,1,2.651-2.849,7.985,7.985,0,0,1,4.058-1,7.288,7.288,0,0,1,5.61,2.2,8.46,8.46,0,0,1,2.051,6v.176a8.208,8.208,0,0,1-2.058,5.881,7.307,7.307,0,0,1-5.574,2.175,7.39,7.39,0,0,1-5.435-2.029,7.935,7.935,0,0,1-2.212-5.5Zm4.937.308a5.9,5.9,0,0,0,.688,3.223,2.294,2.294,0,0,0,2.036,1.025q2.637,0,2.7-4.058v-.5q0-4.263-2.725-4.263-2.476,0-2.681,3.677Zm19.38-.278a9.682,9.682,0,0,1,1.626-5.933,5.352,5.352,0,0,1,4.541-2.168,4.552,4.552,0,0,1,3.574,1.67V40.5h4.951V63h-4.438l-.249-1.7a4.674,4.674,0,0,1-3.867,1.992,5.342,5.342,0,0,1-4.482-2.168A9.989,9.989,0,0,1,152.4,54.958Zm4.937.308q0,4.219,2.461,4.219a2.43,2.43,0,0,0,2.344-1.377V52.072a2.365,2.365,0,0,0-2.314-1.406q-2.285,0-2.476,3.691Zm20.229,8.027a8.148,8.148,0,0,1-5.9-2.175,7.512,7.512,0,0,1-2.256-5.662v-.41a9.734,9.734,0,0,1,.9-4.292,6.592,6.592,0,0,1,2.629-2.878,7.938,7.938,0,0,1,4.1-1.018,6.861,6.861,0,0,1,5.273,2.073,8.145,8.145,0,0,1,1.934,5.779v1.919H174.43a3.558,3.558,0,0,0,1.157,2.095,3.443,3.443,0,0,0,2.314.762,4.437,4.437,0,0,0,3.662-1.641l2.256,2.666a6.306,6.306,0,0,1-2.615,2.029A8.836,8.836,0,0,1,177.565,63.293Zm-.557-12.627q-2.168,0-2.578,2.871h4.98v-.381a2.445,2.445,0,0,0-.6-1.838A2.39,2.39,0,0,0,177.008,50.666Zm32.783-5.024h-6.4V63h-5.142V45.642h-6.284v-3.97h17.827Zm10.576,5.977-1.626-.117q-2.329,0-2.988,1.465V63h-4.937V47.15h4.629l.161,2.036a3.823,3.823,0,0,1,3.472-2.329,4.814,4.814,0,0,1,1.377.176ZM230.636,63a5.574,5.574,0,0,1-.469-1.421,4.59,4.59,0,0,1-3.809,1.714,5.623,5.623,0,0,1-3.809-1.355,4.313,4.313,0,0,1-1.567-3.406,4.433,4.433,0,0,1,1.9-3.9,9.7,9.7,0,0,1,5.537-1.318h1.523v-.839q0-2.193-1.89-2.193a1.545,1.545,0,0,0-1.758,1.737h-4.937a4.425,4.425,0,0,1,1.956-3.731,8.218,8.218,0,0,1,4.988-1.434,7.205,7.205,0,0,1,4.79,1.479,5.144,5.144,0,0,1,1.8,4.058v7.017a7.186,7.186,0,0,0,.674,3.34V63Zm-3.091-3.223a2.754,2.754,0,0,0,1.531-.4,2.479,2.479,0,0,0,.872-.894V55.954h-1.436q-2.578,0-2.578,2.314a1.413,1.413,0,0,0,.454,1.091A1.643,1.643,0,0,0,227.545,59.777ZM242.165,47.15l.161,1.86a5.375,5.375,0,0,1,4.526-2.153,4.522,4.522,0,0,1,3.7,1.479,7.044,7.044,0,0,1,1.267,4.453V63h-4.951V53a2.675,2.675,0,0,0-.483-1.765,2.236,2.236,0,0,0-1.758-.564,2.354,2.354,0,0,0-2.153,1.143V63h-4.937V47.15Zm20.684,11.4a1.14,1.14,0,0,0-.659-1.011,10.027,10.027,0,0,0-2.5-.791,11.422,11.422,0,0,1-3.047-1.077,5.1,5.1,0,0,1-1.831-1.619,3.865,3.865,0,0,1-.63-2.183,4.381,4.381,0,0,1,1.8-3.6,7.422,7.422,0,0,1,4.717-1.414,8.223,8.223,0,0,1,5.039,1.421,4.443,4.443,0,0,1,1.9,3.735h-4.951q0-1.9-2.007-1.9a1.989,1.989,0,0,0-1.3.432,1.338,1.338,0,0,0-.527,1.077,1.228,1.228,0,0,0,.645,1.069,6.09,6.09,0,0,0,2.058.674,17.785,17.785,0,0,1,2.483.63q3.574,1.23,3.574,4.409a4.151,4.151,0,0,1-1.926,3.53,8.447,8.447,0,0,1-4.988,1.362,8.62,8.62,0,0,1-3.633-.732,6.075,6.075,0,0,1-2.49-1.992,4.511,4.511,0,0,1-.894-2.651h4.614a1.908,1.908,0,0,0,.732,1.6,3.013,3.013,0,0,0,1.8.505,2.37,2.37,0,0,0,1.516-.41A1.312,1.312,0,0,0,262.848,58.547Zm21.782-3.354a9.558,9.558,0,0,1-1.663,5.9,5.331,5.331,0,0,1-4.49,2.2,4.569,4.569,0,0,1-3.589-1.6v7.4h-4.937V47.15h4.614l.146,1.465a4.57,4.57,0,0,1,3.735-1.758A5.374,5.374,0,0,1,283,49.018a9.676,9.676,0,0,1,1.626,5.94Zm-4.937-.308q0-4.219-2.461-4.219a2.323,2.323,0,0,0-2.344,1.26v6.24a2.4,2.4,0,0,0,2.373,1.318q2.358,0,2.432-4.072Zm6.489.044a9.355,9.355,0,0,1,.923-4.226,6.6,6.6,0,0,1,2.651-2.849,7.985,7.985,0,0,1,4.058-1,7.288,7.288,0,0,1,5.61,2.2,8.46,8.46,0,0,1,2.051,6v.176a8.208,8.208,0,0,1-2.058,5.881,7.307,7.307,0,0,1-5.574,2.175,7.39,7.39,0,0,1-5.435-2.029,7.935,7.935,0,0,1-2.212-5.5Zm4.937.308a5.9,5.9,0,0,0,.688,3.223,2.294,2.294,0,0,0,2.036,1.025q2.637,0,2.7-4.058v-.5q0-4.263-2.725-4.263-2.476,0-2.681,3.677Zm22.119-3.618-1.626-.117q-2.329,0-2.988,1.465V63h-4.937V47.15h4.629l.161,2.036a3.823,3.823,0,0,1,3.472-2.329,4.814,4.814,0,0,1,1.377.176ZM321.5,43.21v3.94h2.607v3.428H321.5v7.251a1.851,1.851,0,0,0,.322,1.245,1.729,1.729,0,0,0,1.274.352,7.242,7.242,0,0,0,1.23-.088v3.53a9.11,9.11,0,0,1-2.783.425,5.171,5.171,0,0,1-3.765-1.2,4.923,4.923,0,0,1-1.216-3.647V50.578h-2.021V47.15h2.021V43.21Zm12.217,20.083a8.148,8.148,0,0,1-5.9-2.175,7.512,7.512,0,0,1-2.256-5.662v-.41a9.734,9.734,0,0,1,.9-4.292,6.592,6.592,0,0,1,2.629-2.878,7.938,7.938,0,0,1,4.1-1.018,6.861,6.861,0,0,1,5.273,2.073,8.145,8.145,0,0,1,1.934,5.779v1.919h-9.814a3.558,3.558,0,0,0,1.157,2.095,3.443,3.443,0,0,0,2.314.762,4.437,4.437,0,0,0,3.662-1.641l2.256,2.666a6.306,6.306,0,0,1-2.615,2.029A8.836,8.836,0,0,1,333.717,63.293Zm-.557-12.627q-2.168,0-2.578,2.871h4.98v-.381a2.445,2.445,0,0,0-.6-1.838A2.39,2.39,0,0,0,333.161,50.666Z" transform="translate(311.5 1216.291)" fill="#12263f"/>
  </g>
</svg>
