<svg xmlns="http://www.w3.org/2000/svg" xmlns:xlink="http://www.w3.org/1999/xlink" width="497.754" height="390.623" viewBox="0 0 497.754 390.623">
  <defs>
    <linearGradient id="linear-gradient" x1="1.687" y1="-0.922" x2="-0.432" y2="1.64" gradientUnits="objectBoundingBox">
      <stop offset="0" stop-color="#ff928e"/>
      <stop offset="1" stop-color="#feb3b1"/>
    </linearGradient>
    <linearGradient id="linear-gradient-2" x1="0" y1="0.5" x2="1" y2="0.5" xlink:href="#linear-gradient"/>
    <linearGradient id="linear-gradient-4" x1="105.884" y1="1.101" x2="106.592" y2="-0.302" xlink:href="#linear-gradient"/>
    <linearGradient id="linear-gradient-5" x1="94.311" y1="-0.179" x2="-14.738" y2="0.61" xlink:href="#linear-gradient"/>
    <linearGradient id="linear-gradient-6" x1="-165.799" y1="-0.166" x2="-183.844" y2="3.358" gradientUnits="objectBoundingBox">
      <stop offset="0" stop-color="#09005d"/>
      <stop offset="1" stop-color="#1a0f91"/>
    </linearGradient>
    <linearGradient id="linear-gradient-7" x1="-207.21" y1="-0.086" x2="-229.975" y2="3.376" xlink:href="#linear-gradient-6"/>
    <linearGradient id="linear-gradient-8" x1="-181.826" y1="-0.015" x2="-202.047" y2="3.448" xlink:href="#linear-gradient-6"/>
    <linearGradient id="linear-gradient-9" x1="-120.466" y1="0.121" x2="-134.159" y2="3.397" xlink:href="#linear-gradient-6"/>
    <linearGradient id="linear-gradient-10" x1="-278.302" y1="0.175" x2="-310.307" y2="3.699" xlink:href="#linear-gradient-6"/>
    <linearGradient id="linear-gradient-11" x1="-174.04" y1="0.227" x2="-194.253" y2="3.744" xlink:href="#linear-gradient-6"/>
    <linearGradient id="linear-gradient-12" x1="-111.65" y1="-0.19" x2="-123.646" y2="2.95" xlink:href="#linear-gradient-6"/>
    <linearGradient id="linear-gradient-13" x1="-308.988" y1="-0.166" x2="-327.03" y2="3.358" xlink:href="#linear-gradient-6"/>
    <linearGradient id="linear-gradient-14" x1="-387.943" y1="-0.086" x2="-410.709" y2="3.376" xlink:href="#linear-gradient-6"/>
    <linearGradient id="linear-gradient-15" x1="-342.353" y1="-0.015" x2="-362.574" y2="3.448" xlink:href="#linear-gradient-6"/>
    <linearGradient id="linear-gradient-16" x1="-229.214" y1="0.121" x2="-242.91" y2="3.397" xlink:href="#linear-gradient-6"/>
    <linearGradient id="linear-gradient-17" x1="-532.143" y1="0.174" x2="-564.134" y2="3.699" xlink:href="#linear-gradient-6"/>
    <linearGradient id="linear-gradient-18" x1="-334.56" y1="0.227" x2="-354.776" y2="3.744" xlink:href="#linear-gradient-6"/>
    <linearGradient id="linear-gradient-19" x1="-206.877" y1="-0.19" x2="-218.873" y2="2.95" xlink:href="#linear-gradient-6"/>
    <linearGradient id="linear-gradient-20" x1="-194.967" y1="-0.166" x2="-213.012" y2="3.358" xlink:href="#linear-gradient-6"/>
    <linearGradient id="linear-gradient-21" x1="-244.082" y1="-0.086" x2="-266.853" y2="3.376" xlink:href="#linear-gradient-6"/>
    <linearGradient id="linear-gradient-22" x1="-214.488" y1="-0.015" x2="-234.706" y2="3.448" xlink:href="#linear-gradient-6"/>
    <linearGradient id="linear-gradient-23" x1="-142.587" y1="0.121" x2="-156.279" y2="3.396" xlink:href="#linear-gradient-6"/>
    <linearGradient id="linear-gradient-24" x1="-329.954" y1="0.175" x2="-361.95" y2="3.699" xlink:href="#linear-gradient-6"/>
    <linearGradient id="linear-gradient-25" x1="-206.754" y1="0.227" x2="-226.97" y2="3.744" xlink:href="#linear-gradient-6"/>
    <linearGradient id="linear-gradient-26" x1="-131.036" y1="-0.19" x2="-143.031" y2="2.95" xlink:href="#linear-gradient-6"/>
    <linearGradient id="linear-gradient-27" x1="-375.36" y1="-0.167" x2="-396.27" y2="3.363" xlink:href="#linear-gradient-6"/>
    <linearGradient id="linear-gradient-28" x1="-471.766" y1="-0.086" x2="-498.079" y2="3.373" xlink:href="#linear-gradient-6"/>
    <linearGradient id="linear-gradient-29" x1="-416.854" y1="-0.016" x2="-440.257" y2="3.449" xlink:href="#linear-gradient-6"/>
    <linearGradient id="linear-gradient-30" x1="-279.711" y1="0.123" x2="-295.478" y2="3.382" xlink:href="#linear-gradient-6"/>
    <linearGradient id="linear-gradient-31" x1="-650.865" y1="0.176" x2="-687.771" y2="3.687" xlink:href="#linear-gradient-6"/>
    <linearGradient id="linear-gradient-32" x1="-409.373" y1="0.227" x2="-432.776" y2="3.745" xlink:href="#linear-gradient-6"/>
    <linearGradient id="linear-gradient-33" x1="-250.997" y1="-0.189" x2="-264.843" y2="2.944" xlink:href="#linear-gradient-6"/>
    <linearGradient id="linear-gradient-34" x1="-521.199" y1="-0.167" x2="-542.109" y2="3.363" xlink:href="#linear-gradient-6"/>
    <linearGradient id="linear-gradient-35" x1="-655.464" y1="-0.086" x2="-681.765" y2="3.373" xlink:href="#linear-gradient-6"/>
    <linearGradient id="linear-gradient-36" x1="-580.302" y1="-0.016" x2="-603.705" y2="3.449" xlink:href="#linear-gradient-6"/>
    <linearGradient id="linear-gradient-37" x1="-390.479" y1="0.123" x2="-406.249" y2="3.383" xlink:href="#linear-gradient-6"/>
    <linearGradient id="linear-gradient-38" x1="-909.671" y1="0.176" x2="-946.577" y2="3.687" xlink:href="#linear-gradient-6"/>
    <linearGradient id="linear-gradient-39" x1="-572.668" y1="0.227" x2="-596.064" y2="3.745" xlink:href="#linear-gradient-6"/>
    <linearGradient id="linear-gradient-40" x1="-347.977" y1="-0.189" x2="-361.823" y2="2.944" xlink:href="#linear-gradient-6"/>
    <linearGradient id="linear-gradient-41" x1="-63.089" y1="-239.811" x2="-62.089" y2="-239.811" gradientUnits="objectBoundingBox">
      <stop offset="0" stop-color="#febbba"/>
      <stop offset="1" stop-color="#ff928e"/>
    </linearGradient>
    <linearGradient id="linear-gradient-42" x1="-4.986" y1="0.5" x2="-3.986" y2="0.5" xlink:href="#linear-gradient-41"/>
    <linearGradient id="linear-gradient-43" x1="-8.107" y1="0.833" x2="-8.387" y2="-0.234" xlink:href="#linear-gradient-41"/>
    <linearGradient id="linear-gradient-44" x1="0.112" y1="0.34" x2="1.184" y2="0.762" xlink:href="#linear-gradient-41"/>
    <linearGradient id="linear-gradient-45" x1="-1.807" y1="-0.608" x2="1.164" y2="0.819" xlink:href="#linear-gradient-41"/>
    <linearGradient id="linear-gradient-46" x1="1.543" y1="0.5" x2="2.543" y2="0.5" gradientUnits="objectBoundingBox">
      <stop offset="0" stop-color="#4042e2"/>
      <stop offset="1" stop-color="#4f52ff"/>
    </linearGradient>
    <linearGradient id="linear-gradient-47" x1="3.584" y1="0.5" x2="4.584" y2="0.5" xlink:href="#linear-gradient-41"/>
    <linearGradient id="linear-gradient-48" x1="-7.477" y1="0.5" x2="-6.477" y2="0.5" xlink:href="#linear-gradient-41"/>
    <linearGradient id="linear-gradient-49" x1="-38.461" y1="29.455" x2="-38.504" y2="26.694" gradientUnits="objectBoundingBox">
      <stop offset="0" stop-color="#e1473d"/>
      <stop offset="1" stop-color="#e9605a"/>
    </linearGradient>
    <linearGradient id="linear-gradient-50" x1="-105.183" y1="14.007" x2="-104.608" y2="18.135" xlink:href="#linear-gradient-49"/>
    <linearGradient id="linear-gradient-51" x1="-38.443" y1="30.116" x2="-38.485" y2="27.355" xlink:href="#linear-gradient-49"/>
    <linearGradient id="linear-gradient-52" x1="-102.962" y1="13.191" x2="-102.399" y2="16.994" xlink:href="#linear-gradient-49"/>
    <linearGradient id="linear-gradient-53" x1="-10.64" y1="7.186" x2="-10.722" y2="8.773" xlink:href="#linear-gradient-49"/>
    <linearGradient id="linear-gradient-54" x1="0.472" y1="0.233" x2="-0.48" y2="-6.85" xlink:href="#linear-gradient-41"/>
    <linearGradient id="linear-gradient-55" x1="-23.809" y1="5.802" x2="-24.067" y2="8.02" xlink:href="#linear-gradient-49"/>
    <linearGradient id="linear-gradient-56" x1="-32.172" y1="9.751" x2="-31.188" y2="9.751" gradientUnits="objectBoundingBox">
      <stop offset="0" stop-color="#ff928e"/>
      <stop offset="1" stop-color="#fe7062"/>
    </linearGradient>
    <linearGradient id="linear-gradient-57" x1="0.727" y1="0.159" x2="-0.108" y2="1.39" xlink:href="#linear-gradient-41"/>
    <linearGradient id="linear-gradient-58" x1="4.166" y1="-1.731" x2="-3.294" y2="2.809" xlink:href="#linear-gradient-46"/>
    <linearGradient id="linear-gradient-59" x1="-8.259" y1="-12.944" x2="-11.958" y2="11.133" xlink:href="#linear-gradient-46"/>
    <linearGradient id="linear-gradient-60" x1="-27.442" y1="-0.843" x2="-27.949" y2="2.39" gradientUnits="objectBoundingBox">
      <stop offset="0" stop-color="#a22b25"/>
      <stop offset="1" stop-color="#c0423c"/>
    </linearGradient>
    <linearGradient id="linear-gradient-61" x1="-6.215" y1="-5.387" x2="-8.731" y2="17.678" xlink:href="#linear-gradient-46"/>
    <linearGradient id="linear-gradient-62" x1="-23.828" y1="-0.913" x2="-24.307" y2="1.802" xlink:href="#linear-gradient-60"/>
    <linearGradient id="linear-gradient-63" x1="0.02" y1="1.393" x2="0.926" y2="-0.305" xlink:href="#linear-gradient-60"/>
    <linearGradient id="linear-gradient-64" x1="-0.469" y1="-0.915" x2="0.78" y2="0.778" xlink:href="#linear-gradient-60"/>
    <linearGradient id="linear-gradient-65" x1="-3.31" y1="-3.669" x2="1.8" y2="1.856" xlink:href="#linear-gradient-60"/>
    <linearGradient id="linear-gradient-66" x1="9.038" y1="-4.746" x2="1.06" y2="0.025" xlink:href="#linear-gradient-56"/>
    <linearGradient id="linear-gradient-67" x1="1.314" y1="-0.073" x2="0.004" y2="0.944" xlink:href="#linear-gradient-60"/>
    <linearGradient id="linear-gradient-68" x1="1.01" y1="-1.182" x2="-0.407" y2="2.854" xlink:href="#linear-gradient-60"/>
    <linearGradient id="linear-gradient-69" x1="0.7" y1="0.019" x2="-1.5" y2="3.348" xlink:href="#linear-gradient-60"/>
    <linearGradient id="linear-gradient-70" x1="1.378" y1="0.9" x2="-0.812" y2="-0.019" xlink:href="#linear-gradient-60"/>
    <linearGradient id="linear-gradient-71" x1="3.877" y1="-4.839" x2="-5.407" y2="9.839" xlink:href="#linear-gradient-49"/>
    <linearGradient id="linear-gradient-72" x1="2.128" y1="-3.068" x2="-3.261" y2="8.865" xlink:href="#linear-gradient-49"/>
  </defs>
  <g id="Grupo_85453" data-name="Grupo 85453" transform="translate(-864.896 -1701.754)">
    <path id="Trazado_148617" data-name="Trazado 148617" d="M844.292,766.689A139.462,139.462,0,0,1,819.8,786.57c-63.432,42.354-135.943,30.147-158.361,25.974-36.169-6.732-66.7-11.481-92.933-35.181-59.608-53.853-56.708-166.2-11.161-235.786,5.4-8.252,50.879-75.665,123.546-85.164,1.777-.232,3.1-.365,4.265-.488,11.241-1.19,80.9-7.472,137.7,40.116a169.452,169.452,0,0,1,33.35,37.839C900.576,602.4,900.717,708.528,844.292,766.689Z" transform="translate(401.04 1246.754)" fill="#ffe9cb"/>
    <path id="Trazado_148618" data-name="Trazado 148618" d="M2445.058,1362.583l32.355-7.532s21.633-1.945,24.558,17.283,2.078,133.142,1.162,156.635a150.5,150.5,0,0,0,.394,21.137,22.3,22.3,0,0,1-21.833,24.573l-60.234,1.042Z" transform="translate(-1234.123 471.403)" fill="#c3b5ec"/>
    <path id="Trazado_148635" data-name="Trazado 148635" d="M2573.555,2272.542a.992.992,0,0,1-.991-.973c0-.03-.061-3.154-.361-13.859a.991.991,0,0,1,1.982-.056c.3,10.719.361,13.847.362,13.877a.992.992,0,0,1-.973,1.01Z" transform="translate(-1363.988 -305.412)" fill="#fff" style="mix-blend-mode: soft-light;isolation: isolate"/>
    <g id="Grupo_85308" data-name="Grupo 85308" transform="translate(1070.769 1885.963)">
      <g id="Grupo_85297" data-name="Grupo 85297">
        <path id="Trazado_148186" data-name="Trazado 148186" d="M0,0H210.7V19.33H0Z" transform="translate(10.052 119.072)" fill="#594e76"/>
        <path id="Trazado_148192" data-name="Trazado 148192" d="M0,0H6.186V23.969H0Z" transform="translate(5.412 119.072)" fill="#ff7758"/>
        <path id="Trazado_148115" data-name="Trazado 148115" d="M454.13,1056.309c0-4.606-4.867-8.463-10.145-8.463H245.163c-5.279,0-9.461,3.857-9.461,8.463v104.782c0,4.606,4.182,8.533,9.461,8.533H443.985c5.279,0,10.145-3.927,10.145-8.533Z" transform="translate(-235.702 -1047.846)" fill="#5f4d90"/>
        <path id="Trazado_148116" data-name="Trazado 148116" d="M457.838,1070.436c0-4.214-3.632-7.66-8.61-7.66H261.665c-4.978,0-9.884,3.446-9.884,7.66v95.78c0,4.214,4.906,8.286,9.884,8.286H449.228a8.543,8.543,0,0,0,8.61-8.286Z" transform="translate(-246.369 -1057.75)" fill="#463c5f"/>
        <path id="Trazado_148117" data-name="Trazado 148117" d="M955.934,1217.224l-13.061-40.284a2.38,2.38,0,0,0-2.334-1.613h-52.5v95.49h70.991Z" transform="translate(-668.448 -1132.414)" fill="#ff7758"/>
        <path id="Trazado_148118" data-name="Trazado 148118" d="M986.8,1414.162a4.389,4.389,0,0,0-2.537-.693l-54.713,1.054-.242,15.546,54.664,1.343c2,0,3.738-.966,3.738-2.321v-13.169A1.955,1.955,0,0,0,986.8,1414.162Z" transform="translate(-695.826 -1290.393)" fill="#c6563d"/>
        <g id="Grupo_85289" data-name="Grupo 85289" transform="translate(233.689 48.467)">
          <path id="Trazado_148119" data-name="Trazado 148119" d="M973.528,1225.853l-7.894-31.316a2.576,2.576,0,0,0-2.378-1.984H932.381a2.688,2.688,0,0,0-2.452,2.725l.74,25.072a2.47,2.47,0,0,0,2.061,2.366l38.029,6.152a2.448,2.448,0,0,0,2.769-3.016Z" transform="translate(-929.928 -1192.31)" fill="#463c5f"/>
          <path id="Trazado_148120" data-name="Trazado 148120" d="M1049.929,1191.829l-.4.067a2.453,2.453,0,0,0-1.968,3.057l8.605,32a2.453,2.453,0,0,0,2.821,1.774l2.717-.51Z" transform="translate(-1007.906 -1191.829)" fill="#463c5f"/>
        </g>
        <rect id="Rect치ngulo_31880" data-name="Rect치ngulo 31880" width="14.304" height="5.799" rx="2.899" transform="translate(234.278 86.985)" fill="#963c28"/>
        <path id="Trazado_148121" data-name="Trazado 148121" d="M891.7,1091.543a3.511,3.511,0,0,0-2.474.757,3.171,3.171,0,0,0-1.186,2.146v25.295h32.018S918.333,1093.487,891.7,1091.543Z" transform="translate(-668.448 -1076.828)" fill="#ffa08b"/>
        <g id="Grupo_85291" data-name="Grupo 85291" transform="translate(227.534 115.237)">
          <g id="Grupo_85290" data-name="Grupo 85290">
            <path id="Trazado_148190" data-name="Trazado 148190" d="M24.879,0A24.879,24.879,0,1,1,0,24.879,24.879,24.879,0,0,1,24.879,0Z" fill="#463c5f"/>
            <path id="Trazado_148189" data-name="Trazado 148189" d="M20.2,0A20.2,20.2,0,1,1,0,20.2,20.2,20.2,0,0,1,20.2,0Z" transform="translate(2.59 7) rotate(-6.264)" fill="#ff7758"/>
            <path id="Trazado_148122" data-name="Trazado 148122" d="M985.513,1435.426a.387.387,0,0,1-.356-.538,17.509,17.509,0,0,0-24.67-22.091.387.387,0,0,1-.378-.675,18.284,18.284,0,0,1,25.761,23.067A.388.388,0,0,1,985.513,1435.426Z" transform="translate(-943.663 -1403.197)" fill="url(#linear-gradient)"/>
          </g>
          <path id="Trazado_148191" data-name="Trazado 148191" d="M9.266,0A9.266,9.266,0,1,1,0,9.266,9.266,9.266,0,0,1,9.266,0Z" transform="translate(13.326 31.062) rotate(-73.155)" fill="#463c5f"/>
        </g>
        <g id="Grupo_85293" data-name="Grupo 85293" transform="translate(74.145 115.237)">
          <g id="Grupo_85292" data-name="Grupo 85292">
            <circle id="Elipse_4404" data-name="Elipse 4404" cx="24.879" cy="24.879" r="24.879" fill="#463c5f"/>
            <circle id="Elipse_4405" data-name="Elipse 4405" cx="20.204" cy="20.204" r="20.204" transform="matrix(0.993, -0.122, 0.122, 0.993, 2.357, 7.295)" fill="#ff7758"/>
            <path id="Trazado_148123" data-name="Trazado 148123" d="M529.837,1435.426a.392.392,0,0,1-.151-.031.387.387,0,0,1-.205-.507,17.509,17.509,0,0,0-24.67-22.091.387.387,0,0,1-.378-.675,18.284,18.284,0,0,1,25.761,23.067A.388.388,0,0,1,529.837,1435.426Z" transform="translate(-487.987 -1403.197)" fill="url(#linear-gradient-2)"/>
          </g>
          <path id="Trazado_148188" data-name="Trazado 148188" d="M9.266,0A9.266,9.266,0,1,1,0,9.266,9.266,9.266,0,0,1,9.266,0Z" transform="translate(11.775 24.879) rotate(-45)" fill="#463c5f"/>
        </g>
        <g id="Grupo_85295" data-name="Grupo 85295" transform="translate(17.232 115.237)">
          <g id="Grupo_85294" data-name="Grupo 85294">
            <circle id="Elipse_4407" data-name="Elipse 4407" cx="24.879" cy="24.879" r="24.879" fill="#463c5f"/>
            <path id="Trazado_148187" data-name="Trazado 148187" d="M20.2,0A20.2,20.2,0,1,1,0,20.2,20.2,20.2,0,0,1,20.2,0Z" transform="translate(2.59 7) rotate(-6.264)" fill="#ff7758"/>
            <path id="Trazado_148124" data-name="Trazado 148124" d="M360.763,1435.426a.391.391,0,0,1-.15-.031.387.387,0,0,1-.206-.507,17.509,17.509,0,0,0-24.67-22.091.387.387,0,1,1-.378-.675,18.283,18.283,0,0,1,25.76,23.067A.387.387,0,0,1,360.763,1435.426Z" transform="translate(-318.913 -1403.197)" fill="url(#linear-gradient-2)"/>
          </g>
          <circle id="Elipse_4409" data-name="Elipse 4409" cx="9.266" cy="9.266" r="9.266" transform="translate(13.326 31.062) rotate(-73.155)" fill="#463c5f"/>
        </g>
        <g id="Grupo_85296" data-name="Grupo 85296" transform="translate(279.51 109.021)">
          <rect id="Rect치ngulo_31881" data-name="Rect치ngulo 31881" width="11.211" height="13.531" rx="5.606" fill="url(#linear-gradient-4)"/>
          <path id="Trazado_148125" data-name="Trazado 148125" d="M1071.076,1371.716v12.758h-2.018a3.375,3.375,0,0,1-3.007-2.879v-8.079c0-1.355,1.653-1.8,3.007-1.8Z" transform="translate(-1066.05 -1371.716)" fill="#fff" opacity="0.8"/>
        </g>
        <path id="Trazado_148126" data-name="Trazado 148126" d="M899.907,1249.009a.386.386,0,0,1-.386-.386v-56.83a.387.387,0,0,1,.773,0v56.83A.387.387,0,0,1,899.907,1249.009Z" transform="translate(-676.067 -1143.081)" fill="url(#linear-gradient-5)"/>
        <path id="Trazado_148127" data-name="Trazado 148127" d="M919.215,1126.158a.387.387,0,0,1-.365-.261c-2.137-6.191-6.341-14.351-14.24-18.064a17.368,17.368,0,0,0-8.547-1.783.387.387,0,0,1-.091-.768,17.868,17.868,0,0,1,8.967,1.851c8.143,3.828,12.456,12.18,14.641,18.512a.388.388,0,0,1-.365.513Z" transform="translate(-673.486 -1085.919)" fill="#fff"/>
      </g>
      <g id="Grupo_85299" data-name="Grupo 85299" transform="translate(8.728 49.916)">
        <path id="Trazado_148128" data-name="Trazado 148128" d="M352.292,1259.193a9.667,9.667,0,0,0,9.85-9.665v-43.011a10.305,10.305,0,0,0-10.192-10.311c-16.959-.185-51.936-.194-80.555,2.218a7.747,7.747,0,0,0-7.084,7.446l-2.675,41.583a9.846,9.846,0,0,0,9.653,10.2Z" transform="translate(-261.63 -1196.134)" fill="#ffba5b"/>
        <path id="Trazado_148129" data-name="Trazado 148129" d="M490.232,1234.419c.072,3.66-.037,9.467-.126,13.218a3.313,3.313,0,0,1-3.7,3.212l-13.957-1.635a3.314,3.314,0,0,1-2.892-3.783L471.272,1234a3.314,3.314,0,0,1,3.278-2.823h12.369A3.31,3.31,0,0,1,490.232,1234.419Z" transform="translate(-399.541 -1219.383)" fill="#fff" opacity="0.84"/>
        <path id="Trazado_148130" data-name="Trazado 148130" d="M394.021,1233.163l-11.642,1.256a2.625,2.625,0,0,1-2.9-2.8l2.545-34.633c4.881-.155,9.694-.268,14.34-.347v33.916A2.625,2.625,0,0,1,394.021,1233.163Z" transform="translate(-339.804 -1196.467)" fill="#fff" opacity="0.37"/>
        <path id="Trazado_148131" data-name="Trazado 148131" d="M403.906,1227.371a1.17,1.17,0,0,1-1.168,1.1l-.069,0a1.17,1.17,0,0,1-1.1-1.237l1.755-30.226c.787-.02,1.568-.037,2.349-.055Z" transform="translate(-354.461 -1196.678)" fill="#fff"/>
        <g id="Grupo_85298" data-name="Grupo 85298" transform="translate(75.276 15.254)">
          <path id="Trazado_148132" data-name="Trazado 148132" d="M511.1,1252.911a.391.391,0,0,0,.39-.366l.6-9.52a.39.39,0,0,0-.365-.414.381.381,0,0,0-.414.365l-.6,9.52a.39.39,0,0,0,.365.414Z" transform="translate(-502.142 -1242.219)" fill="url(#linear-gradient-6)"/>
          <path id="Trazado_148133" data-name="Trazado 148133" d="M507.41,1252.552a.391.391,0,0,0,.391-.378l.316-9.7a.391.391,0,0,0-.377-.4.37.37,0,0,0-.4.377l-.316,9.7a.391.391,0,0,0,.377.4Z" transform="translate(-499.692 -1241.86)" fill="url(#linear-gradient-7)"/>
          <path id="Trazado_148134" data-name="Trazado 148134" d="M502.441,1252.553a.389.389,0,0,1-.371-.408c.154-3.259.45-9.476.454-9.688a.39.39,0,0,1,.781,0c0,.161-.38,8.126-.456,9.721a.39.39,0,0,1-.39.372Zm.075-10.092h0Z" transform="translate(-496.409 -1241.861)" fill="url(#linear-gradient-8)"/>
          <path id="Trazado_148135" data-name="Trazado 148135" d="M493.958,1252.533a.78.78,0,0,0,.779-.753c.33-9.4.272-9.613.234-9.753a.781.781,0,0,0-1.527.309c.025.565-.149,6.035-.267,9.389a.78.78,0,0,0,.753.808Z" transform="translate(-490.509 -1241.45)" fill="url(#linear-gradient-9)"/>
          <path id="Trazado_148136" data-name="Trazado 148136" d="M489.7,1252.912a.39.39,0,0,0,.39-.39V1243a.39.39,0,1,0-.781,0v9.521A.39.39,0,0,0,489.7,1252.912Z" transform="translate(-487.946 -1242.22)" fill="url(#linear-gradient-10)"/>
          <path id="Trazado_148137" data-name="Trazado 148137" d="M485.643,1252.868a.391.391,0,0,0,.39-.381c.075-3.308.249-8.712.406-9.361a.391.391,0,0,0-.555-.517c-.213.139-.415.271-.631,9.86a.391.391,0,0,0,.381.4Z" transform="translate(-485.253 -1242.176)" fill="url(#linear-gradient-11)"/>
          <path id="Trazado_148138" data-name="Trazado 148138" d="M516.571,1253.008a.782.782,0,0,0,.779-.74l.521-10a.782.782,0,0,0-.74-.821.791.791,0,0,0-.82.74l-.521,10a.781.781,0,0,0,.74.82Z" transform="translate(-505.51 -1241.449)" fill="url(#linear-gradient-12)"/>
        </g>
      </g>
      <g id="Grupo_85301" data-name="Grupo 85301" transform="translate(107.894 53.525)">
        <path id="Trazado_148139" data-name="Trazado 148139" d="M646.889,1269.912a9.667,9.667,0,0,0,9.85-9.665v-43.011a10.305,10.305,0,0,0-10.192-10.311c-16.959-.185-51.936-.194-80.555,2.218a7.748,7.748,0,0,0-7.085,7.447l-2.675,41.583a9.846,9.846,0,0,0,9.652,10.2Z" transform="translate(-556.227 -1206.854)" fill="#db993e"/>
        <path id="Trazado_148140" data-name="Trazado 148140" d="M784.829,1245.139c.072,3.66-.037,9.467-.126,13.218a3.313,3.313,0,0,1-3.7,3.212l-13.956-1.636a3.315,3.315,0,0,1-2.892-3.783l1.713-11.428a3.314,3.314,0,0,1,3.277-2.823h12.369A3.31,3.31,0,0,1,784.829,1245.139Z" transform="translate(-694.138 -1230.102)" fill="#fff" opacity="0.84"/>
        <path id="Trazado_148141" data-name="Trazado 148141" d="M688.618,1243.882l-11.642,1.256a2.625,2.625,0,0,1-2.9-2.8l2.545-34.633c4.881-.155,9.695-.267,14.34-.347v33.916A2.625,2.625,0,0,1,688.618,1243.882Z" transform="translate(-634.401 -1207.188)" fill="#fff" opacity="0.37"/>
        <path id="Trazado_148142" data-name="Trazado 148142" d="M698.5,1238.09a1.17,1.17,0,0,1-1.168,1.1l-.069,0a1.17,1.17,0,0,1-1.1-1.237l1.755-30.226c.787-.02,1.568-.037,2.349-.055Z" transform="translate(-649.058 -1207.398)" fill="#fff"/>
        <g id="Grupo_85300" data-name="Grupo 85300" transform="translate(75.276 15.254)">
          <path id="Trazado_148143" data-name="Trazado 148143" d="M805.7,1263.632a.391.391,0,0,0,.39-.366l.6-9.52a.39.39,0,0,0-.365-.414.381.381,0,0,0-.414.365l-.6,9.52a.39.39,0,0,0,.365.414Z" transform="translate(-796.739 -1252.939)" fill="url(#linear-gradient-13)"/>
          <path id="Trazado_148144" data-name="Trazado 148144" d="M802.007,1263.272a.39.39,0,0,0,.39-.377l.316-9.7a.391.391,0,0,0-.377-.4.369.369,0,0,0-.4.377l-.316,9.7a.391.391,0,0,0,.377.4Z" transform="translate(-794.29 -1252.58)" fill="url(#linear-gradient-14)"/>
          <path id="Trazado_148145" data-name="Trazado 148145" d="M797.038,1263.273a.389.389,0,0,1-.371-.408c.155-3.259.45-9.476.455-9.688a.39.39,0,0,1,.781,0c0,.161-.38,8.126-.456,9.721a.39.39,0,0,1-.39.372Zm.075-10.092h0Z" transform="translate(-791.006 -1252.581)" fill="url(#linear-gradient-15)"/>
          <path id="Trazado_148146" data-name="Trazado 148146" d="M788.556,1263.253a.78.78,0,0,0,.779-.753c.33-9.4.272-9.613.234-9.753a.781.781,0,0,0-1.527.309c.025.565-.149,6.034-.267,9.389a.78.78,0,0,0,.752.807Z" transform="translate(-785.107 -1252.17)" fill="url(#linear-gradient-16)"/>
          <path id="Trazado_148147" data-name="Trazado 148147" d="M784.3,1263.632a.39.39,0,0,0,.391-.391v-9.52a.391.391,0,0,0-.781,0v9.52A.39.39,0,0,0,784.3,1263.632Z" transform="translate(-782.543 -1252.94)" fill="url(#linear-gradient-17)"/>
          <path id="Trazado_148148" data-name="Trazado 148148" d="M780.241,1263.588a.39.39,0,0,0,.39-.381c.075-3.308.249-8.712.406-9.361a.39.39,0,0,0-.555-.517c-.213.139-.415.271-.631,9.859a.391.391,0,0,0,.381.4Z" transform="translate(-779.851 -1252.896)" fill="url(#linear-gradient-18)"/>
          <path id="Trazado_148149" data-name="Trazado 148149" d="M811.168,1263.728a.781.781,0,0,0,.779-.74l.521-10a.781.781,0,0,0-.74-.82.79.79,0,0,0-.82.74l-.521,10a.781.781,0,0,0,.74.82Z" transform="translate(-800.107 -1252.169)" fill="url(#linear-gradient-19)"/>
        </g>
      </g>
      <g id="Grupo_85303" data-name="Grupo 85303" transform="translate(13.102 6.737)">
        <path id="Trazado_148150" data-name="Trazado 148150" d="M345.212,1105.355V1075.15a7.237,7.237,0,0,0-7.158-7.241c-11.91-.13-36.474-.136-56.572,1.557a5.441,5.441,0,0,0-4.975,5.229l-1.878,29.2a6.914,6.914,0,0,0,6.779,7.163l56.887,1.081A6.789,6.789,0,0,0,345.212,1105.355Z" transform="translate(-274.624 -1067.858)" fill="#db993e"/>
        <path id="Trazado_148151" data-name="Trazado 148151" d="M435.166,1094.745c.051,2.57-.026,6.648-.088,9.283a2.327,2.327,0,0,1-2.6,2.256l-9.8-1.149a2.328,2.328,0,0,1-2.031-2.657l1.2-8.026a2.328,2.328,0,0,1,2.3-1.982h8.686A2.324,2.324,0,0,1,435.166,1094.745Z" transform="translate(-371.476 -1084.185)" fill="#fff" opacity="0.84"/>
        <path id="Trazado_148152" data-name="Trazado 148152" d="M367.6,1093.863l-8.176.882a1.843,1.843,0,0,1-2.036-1.968l1.787-24.322c3.427-.109,6.808-.188,10.07-.244v23.818A1.843,1.843,0,0,1,367.6,1093.863Z" transform="translate(-329.525 -1068.093)" fill="#fff" opacity="0.37"/>
        <path id="Trazado_148153" data-name="Trazado 148153" d="M374.542,1089.8a.822.822,0,0,1-.82.775l-.048,0a.822.822,0,0,1-.773-.868l1.233-21.227,1.649-.038Z" transform="translate(-339.818 -1068.241)" fill="#fff"/>
        <g id="Grupo_85302" data-name="Grupo 85302" transform="translate(52.864 10.713)">
          <path id="Trazado_148154" data-name="Trazado 148154" d="M449.823,1107.732a.274.274,0,0,0,.274-.257l.424-6.686a.274.274,0,0,0-.257-.291.268.268,0,0,0-.291.256l-.424,6.686a.274.274,0,0,0,.257.291Z" transform="translate(-443.53 -1100.223)" fill="url(#linear-gradient-20)"/>
          <path id="Trazado_148155" data-name="Trazado 148155" d="M447.23,1107.479a.274.274,0,0,0,.274-.265l.222-6.814a.274.274,0,0,0-.265-.283.26.26,0,0,0-.283.265l-.222,6.814a.274.274,0,0,0,.265.283Z" transform="translate(-441.81 -1099.97)" fill="url(#linear-gradient-21)"/>
          <path id="Trazado_148156" data-name="Trazado 148156" d="M443.74,1107.48a.274.274,0,0,1-.261-.286c.109-2.289.316-6.655.319-6.8a.274.274,0,0,1,.548,0c0,.113-.267,5.707-.32,6.827a.274.274,0,0,1-.274.261Zm.053-7.088h0Z" transform="translate(-439.504 -1099.971)" fill="url(#linear-gradient-22)"/>
          <path id="Trazado_148157" data-name="Trazado 148157" d="M437.783,1107.466a.548.548,0,0,0,.547-.529c.232-6.6.191-6.751.164-6.849a.548.548,0,0,0-1.072.217c.018.4-.105,4.238-.188,6.594a.548.548,0,0,0,.529.567Z" transform="translate(-435.361 -1099.683)" fill="url(#linear-gradient-23)"/>
          <path id="Trazado_148158" data-name="Trazado 148158" d="M434.794,1107.732a.274.274,0,0,0,.274-.274v-6.686a.274.274,0,1,0-.548,0v6.686A.274.274,0,0,0,434.794,1107.732Z" transform="translate(-433.561 -1100.223)" fill="url(#linear-gradient-24)"/>
          <path id="Trazado_148159" data-name="Trazado 148159" d="M431.944,1107.7a.274.274,0,0,0,.274-.268c.053-2.323.175-6.118.285-6.574a.274.274,0,0,0-.39-.363c-.149.1-.291.191-.443,6.924a.274.274,0,0,0,.268.28Z" transform="translate(-431.67 -1100.193)" fill="url(#linear-gradient-25)"/>
          <path id="Trazado_148160" data-name="Trazado 148160" d="M453.663,1107.8a.549.549,0,0,0,.547-.52l.366-7.021a.549.549,0,0,0-.519-.576.555.555,0,0,0-.576.519l-.366,7.021a.548.548,0,0,0,.519.576Z" transform="translate(-445.895 -1099.682)" fill="url(#linear-gradient-26)"/>
        </g>
      </g>
      <g id="Grupo_85305" data-name="Grupo 85305" transform="translate(84.09 7.637)">
        <path id="Trazado_148161" data-name="Trazado 148161" d="M546.515,1108.031v-30.205c0-3.968-2.756-7.2-6.186-7.241-10.293-.13-31.521-.136-48.891,1.558-2.37.231-4.214,2.479-4.3,5.229l-1.623,29.2c-.121,3.863,2.519,7.089,5.858,7.163l49.163,1.081C543.819,1114.891,546.515,1111.831,546.515,1108.031Z" transform="translate(-485.511 -1070.534)" fill="#ffba5b"/>
        <path id="Trazado_148162" data-name="Trazado 148162" d="M624.255,1097.421c.044,2.57-.022,6.648-.076,9.283a2.133,2.133,0,0,1-2.245,2.255l-8.471-1.149a2.288,2.288,0,0,1-1.755-2.657l1.04-8.026a2.13,2.13,0,0,1,1.989-1.983h7.507A2.176,2.176,0,0,1,624.255,1097.421Z" transform="translate(-569.213 -1086.861)" fill="#fff" opacity="0.84"/>
        <path id="Trazado_148163" data-name="Trazado 148163" d="M565.863,1096.539l-7.066.882a1.72,1.72,0,0,1-1.76-1.968l1.545-24.322c2.962-.109,5.884-.188,8.7-.244v23.818A1.767,1.767,0,0,1,565.863,1096.539Z" transform="translate(-532.957 -1070.769)" fill="#fff" opacity="0.37"/>
        <path id="Trazado_148164" data-name="Trazado 148164" d="M571.862,1092.471a.765.765,0,0,1-.709.775l-.042,0a.788.788,0,0,1-.668-.869l1.065-21.227,1.425-.038Z" transform="translate(-541.853 -1070.917)" fill="#fff"/>
        <g id="Grupo_85304" data-name="Grupo 85304" transform="translate(45.687 10.713)">
          <path id="Trazado_148165" data-name="Trazado 148165" d="M636.921,1110.408a.255.255,0,0,0,.237-.257l.367-6.686a.264.264,0,0,0-.222-.291.246.246,0,0,0-.251.256l-.367,6.686a.263.263,0,0,0,.222.291Z" transform="translate(-631.484 -1102.899)" fill="url(#linear-gradient-27)"/>
          <path id="Trazado_148166" data-name="Trazado 148166" d="M634.681,1110.155a.256.256,0,0,0,.237-.265l.192-6.814a.261.261,0,0,0-.229-.283c-.151-.008-.24.114-.245.265l-.192,6.814a.261.261,0,0,0,.229.283Z" transform="translate(-629.997 -1102.646)" fill="url(#linear-gradient-28)"/>
          <path id="Trazado_148167" data-name="Trazado 148167" d="M631.665,1110.156a.262.262,0,0,1-.226-.286c.094-2.289.273-6.655.276-6.8a.239.239,0,1,1,.474,0c0,.113-.23,5.707-.277,6.827a.255.255,0,0,1-.236.261Zm.046-7.087h0Z" transform="translate(-628.004 -1102.647)" fill="url(#linear-gradient-29)"/>
          <path id="Trazado_148168" data-name="Trazado 148168" d="M626.516,1110.142a.512.512,0,0,0,.473-.529c.2-6.6.165-6.751.142-6.849a.471.471,0,0,0-.582-.385.553.553,0,0,0-.345.6c.015.4-.091,4.238-.162,6.594a.521.521,0,0,0,.457.567Z" transform="translate(-624.424 -1102.359)" fill="url(#linear-gradient-30)"/>
          <path id="Trazado_148169" data-name="Trazado 148169" d="M623.934,1110.408a.257.257,0,0,0,.237-.274v-6.686a.239.239,0,1,0-.474,0v6.686A.257.257,0,0,0,623.934,1110.408Z" transform="translate(-622.868 -1102.899)" fill="url(#linear-gradient-31)"/>
          <path id="Trazado_148170" data-name="Trazado 148170" d="M621.471,1110.377a.256.256,0,0,0,.237-.268c.045-2.323.151-6.118.246-6.574a.31.31,0,0,0-.009-.284.217.217,0,0,0-.328-.079c-.129.1-.252.191-.383,6.924a.26.26,0,0,0,.231.28Z" transform="translate(-621.234 -1102.869)" fill="url(#linear-gradient-32)"/>
          <path id="Trazado_148171" data-name="Trazado 148171" d="M640.241,1110.476a.511.511,0,0,0,.473-.52l.316-7.021a.525.525,0,0,0-.449-.576.511.511,0,0,0-.5.52l-.316,7.021a.525.525,0,0,0,.449.576Z" transform="translate(-633.528 -1102.358)" fill="url(#linear-gradient-33)"/>
        </g>
      </g>
      <g id="Grupo_85307" data-name="Grupo 85307" transform="translate(145.377 9.501)">
        <path id="Trazado_148172" data-name="Trazado 148172" d="M728.582,1113.568v-30.205c0-3.969-2.757-7.2-6.186-7.241-10.293-.13-31.521-.136-48.891,1.557-2.37.231-4.214,2.479-4.3,5.229l-1.623,29.2c-.121,3.863,2.519,7.09,5.858,7.163l49.163,1.081C725.887,1120.428,728.582,1117.368,728.582,1113.568Z" transform="translate(-667.578 -1076.071)" fill="#ffd69f"/>
        <path id="Trazado_148173" data-name="Trazado 148173" d="M806.323,1102.958c.044,2.57-.022,6.648-.076,9.283A2.133,2.133,0,0,1,804,1114.5l-8.471-1.149a2.288,2.288,0,0,1-1.755-2.657l1.04-8.026a2.129,2.129,0,0,1,1.989-1.983h7.507A2.176,2.176,0,0,1,806.323,1102.958Z" transform="translate(-751.28 -1092.398)" fill="#fff" opacity="0.84"/>
        <path id="Trazado_148174" data-name="Trazado 148174" d="M747.93,1102.076l-7.066.882a1.72,1.72,0,0,1-1.76-1.968l1.545-24.322c2.962-.109,5.884-.188,8.7-.243v23.818A1.767,1.767,0,0,1,747.93,1102.076Z" transform="translate(-715.024 -1076.306)" fill="#fff" opacity="0.37"/>
        <path id="Trazado_148175" data-name="Trazado 148175" d="M753.929,1098.007a.765.765,0,0,1-.709.775l-.042,0a.788.788,0,0,1-.668-.869l1.066-21.227c.478-.014.952-.026,1.425-.038Z" transform="translate(-723.92 -1076.453)" fill="#fff"/>
        <g id="Grupo_85306" data-name="Grupo 85306" transform="translate(45.687 10.712)">
          <path id="Trazado_148176" data-name="Trazado 148176" d="M818.974,1115.944h.015a.255.255,0,0,0,.237-.257l.366-6.686a.262.262,0,0,0-.222-.29.246.246,0,0,0-.251.256l-.366,6.686A.263.263,0,0,0,818.974,1115.944Z" transform="translate(-813.551 -1108.436)" fill="url(#linear-gradient-34)"/>
          <path id="Trazado_148177" data-name="Trazado 148177" d="M816.748,1115.692a.256.256,0,0,0,.237-.265l.192-6.814a.261.261,0,0,0-.229-.283c-.151-.009-.24.114-.245.265l-.192,6.814a.261.261,0,0,0,.229.284Z" transform="translate(-812.064 -1108.183)" fill="url(#linear-gradient-35)"/>
          <path id="Trazado_148178" data-name="Trazado 148178" d="M813.733,1115.692a.261.261,0,0,1-.225-.286c.094-2.289.273-6.655.276-6.8a.239.239,0,1,1,.474,0c0,.113-.231,5.707-.277,6.827a.255.255,0,0,1-.237.261Zm.046-7.087h0Z" transform="translate(-810.071 -1108.184)" fill="url(#linear-gradient-36)"/>
          <path id="Trazado_148179" data-name="Trazado 148179" d="M808.567,1115.678h.017a.512.512,0,0,0,.473-.529c.2-6.6.165-6.751.142-6.849a.471.471,0,0,0-.581-.385.554.554,0,0,0-.345.6c.015.4-.09,4.238-.162,6.594A.521.521,0,0,0,808.567,1115.678Z" transform="translate(-806.491 -1107.896)" fill="url(#linear-gradient-37)"/>
          <path id="Trazado_148180" data-name="Trazado 148180" d="M806,1115.945a.257.257,0,0,0,.237-.274v-6.686a.239.239,0,1,0-.474,0v6.686A.257.257,0,0,0,806,1115.945Z" transform="translate(-804.935 -1108.436)" fill="url(#linear-gradient-38)"/>
          <path id="Trazado_148181" data-name="Trazado 148181" d="M803.538,1115.914a.256.256,0,0,0,.237-.267c.046-2.324.151-6.118.246-6.574a.313.313,0,0,0-.009-.285.218.218,0,0,0-.328-.078c-.129.1-.252.191-.383,6.924a.26.26,0,0,0,.231.28Z" transform="translate(-803.301 -1108.405)" fill="url(#linear-gradient-39)"/>
          <path id="Trazado_148182" data-name="Trazado 148182" d="M822.284,1116.012h.025a.511.511,0,0,0,.473-.52l.316-7.021a.525.525,0,0,0-.449-.576.512.512,0,0,0-.5.52l-.316,7.021A.525.525,0,0,0,822.284,1116.012Z" transform="translate(-815.596 -1107.894)" fill="url(#linear-gradient-40)"/>
        </g>
      </g>
    </g>
    <g id="Grupo_85434" data-name="Grupo 85434" transform="translate(908.334 1910.062)">
      <path id="Trazado_148619" data-name="Trazado 148619" d="M2530.225,2105.4s-6.463-90.63-52.436-145.876a1.111,1.111,0,0,0-1.955.346C2470.825,1973.864,2442.668,2063.863,2530.225,2105.4Z" transform="translate(-2467.561 -1959.078)" fill="#978cb7"/>
      <path id="Trazado_148620" data-name="Trazado 148620" d="M2480.543,2148.385c.387,5.288,1.153,10.505,2.04,15.713q1.376,7.8,3.263,15.5a235.489,235.489,0,0,0,9.588,30.222c1.963,4.915,4.044,9.787,6.373,14.544,1.129,2.395,2.39,4.727,3.6,7.082,1.283,2.318,2.536,4.651,3.925,6.908a147.071,147.071,0,0,0,18.878,25.45.57.57,0,0,0,.871-.735l-.006-.007a199.372,199.372,0,0,1-17.173-26.18c-1.29-2.266-2.437-4.612-3.665-6.91-1.141-2.345-2.333-4.665-3.4-7.047-.533-1.19-1.112-2.358-1.628-3.557l-1.575-3.581c-.516-1.2-1-2.409-1.5-3.613s-.982-2.417-1.451-3.634c-.972-2.421-1.876-4.87-2.787-7.315-.87-2.461-1.74-4.923-2.553-7.4-1.677-4.947-3.167-9.956-4.605-14.983-1.408-5.035-2.718-10.1-3.894-15.2-1.2-5.093-2.264-10.235-3.167-15.379l0-.016a.57.57,0,0,0-1.13.14Z" transform="translate(-2468.33 -2121.639)" fill="#c4bbe0"/>
    </g>
    <g id="Grupo_85435" data-name="Grupo 85435" transform="translate(864.896 1965.497)">
      <path id="Trazado_148621" data-name="Trazado 148621" d="M2609.107,2440.31s-47.391-79.716-98.951-80.965a1.42,1.42,0,0,0-1.421,1.714C2510.929,2371.479,2526.28,2426.025,2609.107,2440.31Z" transform="translate(-2508.703 -2359.344)" fill="#675d84"/>
      <path id="Trazado_148622" data-name="Trazado 148622" d="M2519.255,2444.681c3.124,3.28,6.341,6.437,9.6,9.56,1.647,1.542,3.295,3.084,4.959,4.609,1.679,1.507,3.339,3.037,5.035,4.526q10.149,8.963,20.9,17.211c3.553,2.785,7.234,5.4,10.865,8.082l5.556,3.872c.928.643,1.849,1.294,2.788,1.922l2.836,1.851c7.493,5.043,15.321,9.563,23.206,13.954a.57.57,0,0,0,.566-.989l-.015-.009-5.818-3.413-2.908-1.706c-.961-.583-1.9-1.195-2.858-1.791l-5.716-3.579c-1.884-1.226-3.745-2.488-5.618-3.73l-2.805-1.871-2.762-1.934-5.52-3.873c-3.609-2.682-7.266-5.3-10.8-8.085-3.578-2.723-7.076-5.549-10.577-8.37l-5.186-4.313-5.122-4.39c-1.706-1.465-3.375-2.972-5.065-4.455-1.674-1.5-3.333-3.02-4.991-4.538-3.3-3.05-6.581-6.14-9.732-9.326l-.008-.008a.57.57,0,0,0-.818.794Z" transform="translate(-2506.887 -2432.033)" fill="#c4bbe0"/>
    </g>
    <path id="Trazado_148623" data-name="Trazado 148623" d="M2081.315,1364.454s58.913,3.237,98.131-9.1c0,0-26.071-1.786-26.071,58.407,0,46.021,6.825,133.861.866,150.535s-28.242,39.089-60.185,19.826S2081.315,1364.454,2081.315,1364.454Z" transform="translate(-936.156 471.095)" fill="#f2edff"/>
    <path id="Trazado_148624" data-name="Trazado 148624" d="M2003.819,629.483s65,7.085,73.375-3.932c0,0-6.661-19.829-26.442-18.509S2003.819,629.483,2003.819,629.483Z" transform="translate(-874.323 1115.823)" fill="#ddd4f8"/>
    <path id="Trazado_148625" data-name="Trazado 148625" d="M476.475,648.68c5.668,63.7,17.574,198.438,22.753,264.072a29.51,29.51,0,0,0,27.53,27.13c52.176,3.349,169.6,9.847,214.661,3.8h0a29.991,29.991,0,0,1-16.729-27.144l2.393-294.519c.085-10.407,10.45-17.885,20.2-14.233,6.14,2.3,10.789,7.2,13.978,14.651-4.255-12.4-10.945-21.468-26.442-18.509,0,0-151.565,1.515-225.113,6.075A35.58,35.58,0,0,0,476.475,648.68Z" transform="translate(441.615 1118.937)" fill="#f2edff"/>
    <g id="Grupo_85436" data-name="Grupo 85436" transform="translate(952.841 1822.651)">
      <path id="Trazado_148626" data-name="Trazado 148626" d="M728.333,1342.621l2.377,22.812a8.45,8.45,0,0,0,8.08,7.568l13.282.51a8.45,8.45,0,0,0,8.774-8.444v-24.609a8.45,8.45,0,0,0-9.142-8.421l-15.658,1.287A8.45,8.45,0,0,0,728.333,1342.621Z" transform="translate(-728.286 -1331.444)" fill="#c3b5ec"/>
      <path id="Trazado_148627" data-name="Trazado 148627" d="M1037.027,1332.079c22.106-.687,106.964-3.446,128.392-4.143a4.782,4.782,0,0,1,4.937,4.784h0a4.786,4.786,0,0,1-4.608,4.783l-128.309,4.763a4.786,4.786,0,0,1-4.924-4.167l-.08-.62A4.783,4.783,0,0,1,1037.027,1332.079Z" transform="translate(-990.276 -1327.933)" fill="#c3b5ec"/>
      <path id="Trazado_148628" data-name="Trazado 148628" d="M1051.371,1507.828h0a2.036,2.036,0,0,0,1.793.993l88.1-1.914a2.036,2.036,0,0,0,1.991-2.035v-5.808a2.036,2.036,0,0,0-2.112-2.034l-85.647,3.2A5.026,5.026,0,0,0,1051.371,1507.828Z" transform="translate(-1006.009 -1473.609)" fill="#c3b5ec"/>
    </g>
    <g id="Grupo_85437" data-name="Grupo 85437" transform="translate(952.841 1885.963)">
      <path id="Trazado_148629" data-name="Trazado 148629" d="M728.333,1799.765l2.377,22.812a8.45,8.45,0,0,0,8.08,7.568l13.282.51a8.45,8.45,0,0,0,8.774-8.444V1797.6a8.45,8.45,0,0,0-9.142-8.422l-15.658,1.287A8.45,8.45,0,0,0,728.333,1799.765Z" transform="translate(-728.286 -1788.588)" fill="#c3b5ec"/>
      <path id="Trazado_148630" data-name="Trazado 148630" d="M1037.027,1789.224c22.106-.687,106.964-3.446,128.392-4.143a4.782,4.782,0,0,1,4.937,4.784h0a4.786,4.786,0,0,1-4.608,4.783l-128.309,4.764a4.786,4.786,0,0,1-4.924-4.167l-.08-.621A4.783,4.783,0,0,1,1037.027,1789.224Z" transform="translate(-990.276 -1785.078)" fill="#c3b5ec"/>
      <path id="Trazado_148631" data-name="Trazado 148631" d="M1051.371,1964.972h0a2.036,2.036,0,0,0,1.793.993l88.1-1.914a2.036,2.036,0,0,0,1.991-2.035v-5.808a2.036,2.036,0,0,0-2.112-2.034l-85.647,3.2A5.026,5.026,0,0,0,1051.371,1964.972Z" transform="translate(-1006.009 -1930.753)" fill="#c3b5ec" opacity="0.78"/>
    </g>
    <g id="Grupo_85438" data-name="Grupo 85438" transform="translate(952.841 1949.275)">
      <path id="Trazado_148632" data-name="Trazado 148632" d="M728.333,2256.91l2.377,22.812a8.45,8.45,0,0,0,8.08,7.568l13.282.51a8.449,8.449,0,0,0,8.774-8.443v-24.609a8.45,8.45,0,0,0-9.142-8.421l-15.658,1.287A8.45,8.45,0,0,0,728.333,2256.91Z" transform="translate(-728.286 -2245.733)" fill="#c3b5ec"/>
      <path id="Trazado_148633" data-name="Trazado 148633" d="M1037.027,2246.368c22.106-.687,106.964-3.446,128.392-4.143a4.782,4.782,0,0,1,4.937,4.784h0a4.786,4.786,0,0,1-4.608,4.783l-128.309,4.763a4.786,4.786,0,0,1-4.924-4.167l-.08-.621A4.783,4.783,0,0,1,1037.027,2246.368Z" transform="translate(-990.276 -2242.222)" fill="#c3b5ec"/>
      <path id="Trazado_148634" data-name="Trazado 148634" d="M1051.371,2422.117h0a2.036,2.036,0,0,0,1.793.993l88.1-1.914a2.036,2.036,0,0,0,1.991-2.035v-5.809a2.036,2.036,0,0,0-2.112-2.034l-85.647,3.2A5.026,5.026,0,0,0,1051.371,2422.117Z" transform="translate(-1006.009 -2387.898)" fill="#c3b5ec"/>
    </g>
    <path id="Trazado_148636" data-name="Trazado 148636" d="M2556.987,1536.416a.991.991,0,0,1-.99-.961c-.213-6.968-.546-14.671-.9-22.827-.474-11.019-.966-22.414-1.226-33.39-.684-28.969,4.094-40.089,8.223-44.317,2.244-2.3,4.125-2.365,4.332-2.365a.992.992,0,0,1,.02,1.983c-.226.016-11.618,1.268-10.592,44.652.259,10.957.749,22.341,1.224,33.352.352,8.162.684,15.871.9,22.852a.991.991,0,0,1-.96,1.021Z" transform="translate(-1348.14 404.585)" fill="#fff" style="mix-blend-mode: soft-light;isolation: isolate"/>
    <path id="Trazado_148637" data-name="Trazado 148637" d="M1447.646,2592.21a4.606,4.606,0,0,1-3.074-1.451c-3.9-3.587-4.913-9.1-5.187-14.344-1.8,2.016-3.645,3.98-5.468,5.923l-1.009-.947c2.14-2.281,4.309-4.592,6.4-6.98a155.509,155.509,0,0,1,.985-21.58,44.7,44.7,0,0,1,3.136-13.235,10.712,10.712,0,0,1,3.336-4.486,5.212,5.212,0,0,1,5.745-.335c1.777,1.194,2.256,3.457,2.461,5.055,1.208,9.394-2.457,18-5.743,23.571a78.616,78.616,0,0,1-8.522,11.514c.162,5.368.906,11.249,4.8,14.826a3.235,3.235,0,0,0,2.2,1.085c1.1-.04,1.986-1.1,2.71-2.141a58.764,58.764,0,0,0,7.643-15.252,16.086,16.086,0,0,1,1.359-4.726l1.3.455q-.564,2.322-1.3,4.577a14.7,14.7,0,0,0,.178,4.619c.162.807.843,3.472,2.81,3.847,1.468.277,3-.833,4.687-3.4l6.925-10.526-.875,3.769c-.308,1.331-.826,4.507,1.03,5.271,1.057.435,2.174-.194,3.468-.923a6.7,6.7,0,0,1,4.126-1.272l.713.095-.122.708c-.07.406-.63,3.969,1.219,4.377.847.188,1.554-.4,2.621-1.384a6.7,6.7,0,0,1,2.846-1.853l.325,1.345a5.647,5.647,0,0,0-2.232,1.523c-1.052.973-2.243,2.075-3.859,1.72-2.1-.465-2.622-2.837-2.394-5.151a8.008,8.008,0,0,0-2.564,1.1c-1.4.791-3,1.688-4.673,1-1.383-.569-2.132-1.943-2.19-3.91l-3.208,4.877c-1.3,1.969-3.334,4.529-6.1,4-1.9-.362-3.361-2.207-3.908-4.934-.076-.38-.138-.763-.186-1.147a60.225,60.225,0,0,1-6.5,11.994c-.865,1.24-2.079,2.67-3.793,2.732Zm2.407-56.775a4.513,4.513,0,0,0-2.494.808,9.439,9.439,0,0,0-2.866,3.919,43.477,43.477,0,0,0-3.024,12.828,154.19,154.19,0,0,0-1.006,19.851,73.836,73.836,0,0,0,7.375-10.144c3.177-5.382,6.721-13.687,5.563-22.691-.272-2.115-.864-3.413-1.862-4.083A2.983,2.983,0,0,0,1450.054,2535.435Z" transform="translate(-382.48 -544.368)" fill="#5f4d90"/>
    <path id="Trazado_148638" data-name="Trazado 148638" d="M896.13,946.561l-162.241,4.814A10.7,10.7,0,0,1,722.881,941.2l-.6-12.137a10.7,10.7,0,0,1,10.407-11.224l163.047-4.311a10.7,10.7,0,0,1,10.984,10.893l-.21,11.633A10.7,10.7,0,0,1,896.13,946.561Z" transform="translate(229.736 851.733)" fill="#c3b5ec" opacity="0.78"/>
    <g id="Grupo_85452" data-name="Grupo 85452" transform="translate(992.072 1855.28)">
      <path id="Trazado_148639" data-name="Trazado 148639" d="M1559.657,2057.27s-5.411-3.55-6.161-2.731a16.254,16.254,0,0,0-1.47,2.361,1.986,1.986,0,0,0,.318,2.322l1.4,1.442a3.155,3.155,0,0,0,4.752-.234A5.719,5.719,0,0,0,1559.657,2057.27Z" transform="translate(-1476.969 -1977.431)" fill="url(#linear-gradient-41)"/>
      <g id="Grupo_85447" data-name="Grupo 85447" transform="translate(76.153 1.055)">
        <g id="Grupo_85440" data-name="Grupo 85440" transform="translate(0 36.584)">
          <path id="Trazado_148640" data-name="Trazado 148640" d="M1573.465,1982.626s-1.857-4.888-4.026-4.441a14.83,14.83,0,0,0-4.542,2.114l-3.485,4.713s9.782,3.854,13.222,1.645a75.278,75.278,0,0,0,22.609-.344,49.455,49.455,0,0,1-3.554-10.713C1587.3,1979.217,1580.415,1981.919,1573.465,1982.626Z" transform="translate(-1561.412 -1947.169)" fill="url(#linear-gradient-42)"/>
          <path id="Trazado_148641" data-name="Trazado 148641" d="M1827.171,1770.311s-14.306,18.018-32.7,28.431a49.457,49.457,0,0,0,3.554,10.714c9.543-1.566,20.589-5.3,29.952-13.608Z" transform="translate(-1762.192 -1770.311)" fill="#ffba5b"/>
        </g>
        <path id="Trazado_148642" data-name="Trazado 148642" d="M2037.317,1832.652c-2.8-13.289-5.6-20.982-14.963-46.17-2.948-7.926-5.625-15.946-4.331-24.3l1.453-9.386s18.2-6.16,38.384-.26c0,0,27.531,11.96,8.831,71.028C2058.262,1832.99,2048.4,1835.677,2037.317,1832.652Z" transform="translate(-1954.497 -1716.208)" fill="#ffba5b"/>
        <path id="Trazado_148643" data-name="Trazado 148643" d="M2052.971,1665.065l4.72,11.341a2.261,2.261,0,0,0,1.707,1.358c2.721.467,9.3,1.2,13.627-1.647a1.1,1.1,0,0,0,.294-1.545l-8.721-12.521Z" transform="translate(-1984.893 -1640.461)" fill="url(#linear-gradient-43)"/>
        <g id="Grupo_85441" data-name="Grupo 85441" transform="translate(62.021)">
          <path id="Trazado_148644" data-name="Trazado 148644" d="M2036.174,1554.695c-.2.187-8.367,16.228-8.367,16.228l9.258,4.469,10-14.053S2039.493,1551.57,2036.174,1554.695Z" transform="translate(-2025.235 -1547.442)" fill="url(#linear-gradient-44)"/>
          <path id="Trazado_148645" data-name="Trazado 148645" d="M2026.86,1521.742l-4.617,7.7a1.426,1.426,0,0,1-.253.315c-.55.512-2.43,2-3.885-.026-1.239-1.727-2.4-3.3-3.648-3.944a1.476,1.476,0,0,0-1.992.656,55.1,55.1,0,0,0-3.16,7.5,1.47,1.47,0,0,0,.855,1.8,40.964,40.964,0,0,0,8.868,2.587,1.477,1.477,0,0,0,1.4-.594c1.414-1.938,5.4-7.354,6.762-8.709,1.264-1.26,3.6-.785,4.649-.483a1.485,1.485,0,0,0,1.18-.155c1.067-.642,2.928-2.242,1.225-4.951a1.478,1.478,0,0,1,.457-2.008,3.267,3.267,0,0,0,1.252-4.635,4.606,4.606,0,0,0-4.988-2.442,1.533,1.533,0,0,1-1.609-.895.977.977,0,0,0-.762-.6,1.433,1.433,0,0,1-1.16-1.683,3.783,3.783,0,0,0-2.112-4.334c-3.995-2.2-7.494,1.382-8.384,4.4s3.577,5.156,6.386,5.512c2.063.262,3.2,2.514,3.65,3.691A1.48,1.48,0,0,1,2026.86,1521.742Z" transform="translate(-2009.237 -1506.159)" fill="#463c5f"/>
          <path id="Trazado_148646" data-name="Trazado 148646" d="M2124.8,1659.958s1.987-4.675,4.261-4.484,4.063,2.456,1.246,5C2126.8,1663.643,2124.8,1659.958,2124.8,1659.958Z" transform="translate(-2108.797 -1634.789)" fill="url(#linear-gradient-45)"/>
        </g>
        <g id="Grupo_85442" data-name="Grupo 85442" transform="translate(80.303 218.354)">
          <path id="Trazado_148647" data-name="Trazado 148647" d="M2141.964,3192.563c4.4.38,12.028,1,18.043,1.262,3.616.159,5.7-.195,6.9-.675,0,.135-.006.263-.011.382a1.244,1.244,0,0,1-1.182,1.175,211.337,211.337,0,0,1-23.626.024.886.886,0,0,1-.722-1.331A7.256,7.256,0,0,1,2141.964,3192.563Z" transform="translate(-2141.239 -3177.358)" fill="url(#linear-gradient-46)"/>
          <path id="Trazado_148648" data-name="Trazado 148648" d="M2164.515,3138.6c-6.016-.265-13.647-.882-18.043-1.262,4.323-5.3,18.043-8.878,18.043-8.878h3.875a16.252,16.252,0,0,1,3.022,9.465C2170.214,3138.4,2168.132,3138.758,2164.515,3138.6Z" transform="translate(-2145.747 -3122.132)" fill="#463c5f"/>
          <path id="Trazado_148649" data-name="Trazado 148649" d="M2264.477,3082.779l-.363,7.176a1.638,1.638,0,0,1-1.4,1.541,6.372,6.372,0,0,1-2.911-.241,1.94,1.94,0,0,1-1.3-1.491l-1.253-6.986Z" transform="translate(-2241.18 -3082.779)" fill="url(#linear-gradient-47)"/>
        </g>
        <g id="Grupo_85444" data-name="Grupo 85444" transform="translate(140.919 211.647)">
          <g id="Grupo_85443" data-name="Grupo 85443" transform="translate(1.707 6.66)">
            <path id="Trazado_148650" data-name="Trazado 148650" d="M2631.616,3186.884a3.479,3.479,0,0,0,3.131-2.315c0,.01.005.019.007.029a2.478,2.478,0,0,1-1.67,2.825,10.909,10.909,0,0,1-4.624.724,4.6,4.6,0,0,1-3.467-1.6l-.011-.015C2626.42,3187.244,2628.437,3187.328,2631.616,3186.884Z" transform="translate(-2620.311 -3170.425)" fill="#463c5f"/>
            <path id="Trazado_148651" data-name="Trazado 148651" d="M2593.561,3082.441h3.2c4.868-.1,7.925,10.168,8.925,14.144a3.48,3.48,0,0,1-3.131,2.315c-3.179.444-5.2.36-6.633-.351-2.63-3.46-3.934-8.529-4.561-11.487A4.033,4.033,0,0,1,2593.561,3082.441Z" transform="translate(-2591.246 -3082.441)" fill="#463c5f"/>
          </g>
          <path id="Trazado_148652" data-name="Trazado 148652" d="M2585.726,3034.354l1.775,7.058a1.916,1.916,0,0,1-1,2.171,6.8,6.8,0,0,1-3.675.89,1.6,1.6,0,0,1-1.306-1.067l-2.605-7.426Z" transform="translate(-2578.918 -3034.354)" fill="url(#linear-gradient-48)"/>
        </g>
        <path id="Trazado_148653" data-name="Trazado 148653" d="M2222.086,2390.043c-2.208,1.958-9.389,2.217-9.389,2.217-25.868-62.086-36.653-79.177-36.653-79.177,3.735,23.434.8,83.585.8,83.585-4.269,1.884-9.772,0-9.772,0-.347-38.365-5.748-79.589-12.714-105.967,17.484-.393,26.985-4.2,30.021-6.605C2198.958,2307.592,2222.086,2390.043,2222.086,2390.043Z" transform="translate(-2072.242 -2176.355)" fill="#463c5f"/>
        <g id="Grupo_85445" data-name="Grupo 85445" transform="translate(75.552 97.809)">
          <path id="Trazado_148654" data-name="Trazado 148654" d="M2122.56,2408.825l3.217,20.01a6.591,6.591,0,0,0,7.317,5.479l48.151-5.873a4.755,4.755,0,0,0,4.189-4.616c.1-5.17-.1-14.372-2.27-22.755Z" transform="translate(-2120.396 -2374.938)" fill="#ff7758"/>
          <path id="Trazado_148655" data-name="Trazado 148655" d="M2142.767,2434.9a.158.158,0,0,1-.02-.316l1.259-.154a.158.158,0,0,1,.039.314l-1.258.154Zm-2.935-.055a.16.16,0,0,1-.038,0,6.48,6.48,0,0,1-1.22-.436.158.158,0,1,1,.136-.286,6.16,6.16,0,0,0,1.161.415.158.158,0,0,1-.038.312Zm7.128-.456a.158.158,0,0,1-.02-.316l1.259-.153a.158.158,0,1,1,.038.314l-1.257.153Zm4.193-.511a.158.158,0,0,1-.019-.316l1.258-.154a.154.154,0,0,1,.177.138.159.159,0,0,1-.138.177l-1.258.154Zm4.193-.511a.158.158,0,0,1-.02-.316l1.258-.153a.156.156,0,0,1,.176.138.158.158,0,0,1-.138.177l-1.258.153Zm4.193-.511a.158.158,0,0,1-.02-.316l1.258-.153a.154.154,0,0,1,.177.137.158.158,0,0,1-.138.177l-1.258.154Zm-23.176-.274a.158.158,0,0,1-.125-.062,6.329,6.329,0,0,1-.684-1.1.158.158,0,0,1,.285-.138,6.068,6.068,0,0,0,.649,1.047.158.158,0,0,1-.029.222A.156.156,0,0,1,2136.362,2432.584Zm27.368-.238a.159.159,0,0,1-.019-.316l1.258-.153a.154.154,0,0,1,.177.138.158.158,0,0,1-.138.176l-1.258.154Zm4.193-.511a.159.159,0,0,1-.019-.316l1.258-.153a.158.158,0,1,1,.038.314l-1.257.153Zm4.193-.511a.159.159,0,0,1-.019-.316l1.258-.154a.155.155,0,0,1,.177.138.158.158,0,0,1-.138.177l-1.258.154Zm4.193-.511a.159.159,0,0,1-.019-.316l1.258-.154a.154.154,0,0,1,.176.138.158.158,0,0,1-.138.177l-1.258.154Zm4.192-.512a.158.158,0,0,1-.019-.316l1.257-.153a.156.156,0,0,1,.177.138.158.158,0,0,1-.138.177l-1.258.153Zm4.193-.511a.158.158,0,0,1-.019-.316l1.258-.154a.155.155,0,0,1,.177.138.158.158,0,0,1-.138.177l-1.258.154Zm4.174-.61a.158.158,0,0,1-.052-.308,4.408,4.408,0,0,0,1.086-.552.158.158,0,1,1,.181.259,4.705,4.705,0,0,1-1.165.592A.148.148,0,0,1,2188.867,2429.18Zm-53.9-.522a.158.158,0,0,1-.156-.133l-.2-1.251a.158.158,0,1,1,.313-.051l.2,1.251a.158.158,0,0,1-.131.181Zm56.744-2.39a.159.159,0,0,1-.151-.206,4.311,4.311,0,0,0,.2-1.2.159.159,0,0,1,.158-.155h0a.159.159,0,0,1,.155.162,4.637,4.637,0,0,1-.214,1.29A.159.159,0,0,1,2191.712,2426.268Zm-57.414-1.78a.159.159,0,0,1-.156-.134l-.2-1.251a.158.158,0,0,1,.131-.181.156.156,0,0,1,.181.131l.2,1.251a.158.158,0,0,1-.131.181Zm57.639-2.422a.159.159,0,0,1-.159-.157q-.005-.613-.019-1.266a.159.159,0,0,1,.155-.162.148.148,0,0,1,.162.156q.013.654.019,1.269a.159.159,0,0,1-.157.16Zm-58.309-1.749a.159.159,0,0,1-.156-.133l-.2-1.251a.158.158,0,0,1,.313-.051l.2,1.251a.158.158,0,0,1-.131.181Zm58.185-2.474a.158.158,0,0,1-.158-.15q-.032-.622-.072-1.263a.158.158,0,0,1,.147-.168.157.157,0,0,1,.169.148q.041.643.072,1.268a.158.158,0,0,1-.15.166Zm-58.855-1.7a.158.158,0,0,1-.156-.133l-.2-1.251a.158.158,0,1,1,.312-.05l.2,1.251a.158.158,0,0,1-.131.182Zm58.548-2.518a.159.159,0,0,1-.158-.143q-.06-.624-.131-1.259a.158.158,0,0,1,.314-.035q.073.635.133,1.263a.159.159,0,0,1-.143.173Zm-59.218-1.652a.159.159,0,0,1-.156-.133l-.227-1.413,1.16-.148a.155.155,0,0,1,.177.137.159.159,0,0,1-.137.177l-.836.107.175,1.089a.159.159,0,0,1-.131.182Zm3.729-1.754a.158.158,0,0,1-.02-.316l1.257-.161a.15.15,0,0,1,.177.137.158.158,0,0,1-.137.177l-1.257.161Zm4.19-.536a.158.158,0,0,1-.02-.316l1.257-.161a.151.151,0,0,1,.177.137.158.158,0,0,1-.137.177l-1.257.161Zm50.782-.25a.159.159,0,0,1-.157-.134q-.094-.623-.2-1.249a.159.159,0,0,1,.13-.183.157.157,0,0,1,.183.13q.106.628.2,1.254a.158.158,0,0,1-.133.181Zm-46.593-.287a.158.158,0,0,1-.02-.316l1.257-.161a.153.153,0,0,1,.178.137.159.159,0,0,1-.137.177l-1.257.161Zm4.189-.536a.158.158,0,0,1-.02-.316l1.257-.161a.153.153,0,0,1,.177.137.158.158,0,0,1-.137.177l-1.257.161Zm4.19-.536a.159.159,0,0,1-.021-.316l1.257-.161a.155.155,0,0,1,.177.137.158.158,0,0,1-.137.177l-1.257.161Zm4.19-.536a.158.158,0,0,1-.02-.316l1.257-.161a.152.152,0,0,1,.177.137.159.159,0,0,1-.137.177l-1.257.161Zm4.189-.536a.158.158,0,0,1-.02-.315l1.257-.161a.156.156,0,0,1,.177.137.159.159,0,0,1-.137.177l-1.257.161Zm4.189-.536a.159.159,0,0,1-.02-.316l1.257-.161a.154.154,0,0,1,.177.137.158.158,0,0,1-.137.177l-1.257.161Zm4.19-.536a.158.158,0,0,1-.021-.315l1.257-.161a.152.152,0,0,1,.177.137.158.158,0,0,1-.137.177l-1.257.161Zm4.19-.536a.158.158,0,0,1-.02-.316l1.257-.161a.154.154,0,0,1,.177.137.158.158,0,0,1-.137.177l-1.257.161Zm16.5-.114a.158.158,0,0,1-.155-.125q-.135-.617-.285-1.231a.159.159,0,0,1,.117-.191.155.155,0,0,1,.191.117q.149.617.286,1.239a.159.159,0,0,1-.121.188A.173.173,0,0,1,2190.223,2405.284Zm-12.312-.422a.158.158,0,0,1-.02-.315l1.257-.161a.151.151,0,0,1,.177.137.158.158,0,0,1-.137.177l-1.257.161Zm4.189-.536a.158.158,0,0,1-.02-.315l1.257-.161a.151.151,0,0,1,.177.137.158.158,0,0,1-.137.177l-1.257.161Zm4.189-.536a.158.158,0,0,1-.02-.315l1.257-.161a.153.153,0,0,1,.177.137.159.159,0,0,1-.137.177l-1.257.161Z" transform="translate(-2128.445 -2376.871)" fill="#fff"/>
          <path id="Trazado_148656" data-name="Trazado 148656" d="M2210.563,2319.25l-.054-1.568a1.2,1.2,0,0,1,.815-.812c1.469-.43,5.132-1.325,7.094-.217l.5,1.767Z" transform="translate(-2196.165 -2301.754)" fill="url(#linear-gradient-49)"/>
          <path id="Trazado_148657" data-name="Trazado 148657" d="M2227.845,2287.22a2.168,2.168,0,0,1-1.038.132.945.945,0,0,1-.831-.816l-.621-4.852,2.469-.316.62,4.849A.948.948,0,0,1,2227.845,2287.22Z" transform="translate(-2208.955 -2271.814)" fill="url(#linear-gradient-50)"/>
          <path id="Trazado_148658" data-name="Trazado 148658" d="M2383.255,2297.152l-.054-1.568a1.2,1.2,0,0,1,.815-.811c1.468-.43,5.132-1.325,7.094-.217l.5,1.766Z" transform="translate(-2344.939 -2282.717)" fill="url(#linear-gradient-51)"/>
          <path id="Trazado_148659" data-name="Trazado 148659" d="M2400.13,2261.942a2.168,2.168,0,0,1-1.038.132.944.944,0,0,1-.831-.816l-.687-5.363,2.469-.316.686,5.36A.948.948,0,0,1,2400.13,2261.942Z" transform="translate(-2357.323 -2249.597)" fill="url(#linear-gradient-52)"/>
          <path id="Trazado_148660" data-name="Trazado 148660" d="M2214.744,2223.48l26.443-4.277a1.291,1.291,0,0,0,1.088-1.207,10.915,10.915,0,0,0-.348-3.377,3.088,3.088,0,0,0-3.3-2.212c-4.969.516-17.58,2.133-24.179,5.772a2.446,2.446,0,0,0-1.251,1.872,5.931,5.931,0,0,0,.281,2.7A1.153,1.153,0,0,0,2214.744,2223.48Z" transform="translate(-2198.441 -2212.39)" fill="url(#linear-gradient-53)"/>
          <path id="Trazado_148661" data-name="Trazado 148661" d="M2216.456,2244.507a.423.423,0,0,1-.411-.327,6.628,6.628,0,0,1-.1-2.132,2.539,2.539,0,0,1,1.491-1.963,29.745,29.745,0,0,1,6.533-2.106.423.423,0,0,1,.131.835,29.619,29.619,0,0,0-6.325,2.044,1.689,1.689,0,0,0-.993,1.3,5.836,5.836,0,0,0,.089,1.826.422.422,0,0,1-.317.506A.4.4,0,0,1,2216.456,2244.507Z" transform="translate(-2200.806 -2234.432)" fill="url(#linear-gradient-54)"/>
          <path id="Trazado_148662" data-name="Trazado 148662" d="M2108.936,2305.775c8.565-1.207,45.629-6.346,56.576-6.425a2.213,2.213,0,0,1,2.1,1.458,73.068,73.068,0,0,1,3.84,15.975,1.937,1.937,0,0,1-1.339,2.034l-24.013,7.8-8.741,1.118-26.888-1.857a2.067,2.067,0,0,1-1.9-1.692c-.6-3.314-1.865-11.109-1.608-16.263A2.288,2.288,0,0,1,2108.936,2305.775Z" transform="translate(-2106.936 -2287.306)" fill="#ffa08b"/>
          <path id="Trazado_148663" data-name="Trazado 148663" d="M2149.755,2338.175l-1.3-.086a.159.159,0,0,1-.147-.169.168.168,0,0,1,.169-.147l1.264.087.677-.09a.154.154,0,0,1,.177.137.159.159,0,0,1-.137.178Zm-4.234-.289h-.01l-1.264-.087a.159.159,0,0,1-.147-.169.165.165,0,0,1,.169-.147l1.264.087a.159.159,0,0,1-.011.317Zm7.855-.175a.158.158,0,0,1-.02-.316l1.257-.161a.151.151,0,0,1,.177.137.159.159,0,0,1-.137.178l-1.257.161Zm-12.068-.116h-.011l-1.264-.087a.159.159,0,0,1-.147-.169.164.164,0,0,1,.169-.147l1.264.087a.159.159,0,0,1-.011.317Zm-4.213-.291h-.011l-1.264-.087a.159.159,0,0,1-.147-.169.163.163,0,0,1,.169-.147l1.264.087a.159.159,0,0,1-.011.317Zm20.471-.129a.159.159,0,0,1-.02-.316l.5-.064.693-.228a.161.161,0,0,1,.2.1.159.159,0,0,1-.1.2l-.722.235-.532.071Zm-24.685-.162h-.011l-1.264-.087a.159.159,0,0,1-.148-.169.17.17,0,0,1,.169-.147l1.264.087a.158.158,0,0,1-.011.316Zm-4.214-.291h-.011l-1.264-.087a.159.159,0,0,1-.147-.169.167.167,0,0,1,.169-.147l1.264.087a.159.159,0,0,1-.011.317Zm-4.214-.291h-.011l-1.264-.087a.159.159,0,0,1-.147-.169.174.174,0,0,1,.169-.147l1.264.087a.159.159,0,0,1-.011.317Zm37.15-.47a.159.159,0,0,1-.049-.31l1.205-.391a.162.162,0,0,1,.2.1.159.159,0,0,1-.1.2l-1.205.391A.172.172,0,0,1,2161.6,2335.961Zm4.017-1.305a.159.159,0,0,1-.049-.31l1.205-.391a.161.161,0,0,1,.2.1.159.159,0,0,1-.1.2l-1.205.391A.173.173,0,0,1,2165.62,2334.656Zm-42.991-1.155a.158.158,0,0,1-.156-.134c-.064-.4-.128-.82-.192-1.255a.158.158,0,1,1,.313-.046c.064.434.128.853.191,1.252a.158.158,0,0,1-.132.181Zm47.008-.151a.159.159,0,0,1-.049-.31l1.205-.391a.159.159,0,1,1,.1.3l-1.205.392A.172.172,0,0,1,2169.637,2333.35Zm4.017-1.305a.159.159,0,0,1-.049-.31l1.205-.391a.161.161,0,0,1,.2.1.159.159,0,0,1-.1.2l-1.2.391A.175.175,0,0,1,2173.654,2332.045Zm4.017-1.306a.158.158,0,0,1-.049-.309l1.205-.391a.159.159,0,0,1,.1.3l-1.205.391A.174.174,0,0,1,2177.671,2330.739Zm4.017-1.305a.158.158,0,0,1-.151-.11.16.16,0,0,1,.04-.162q-.06-.541-.133-1.082a.159.159,0,0,1,.136-.178.156.156,0,0,1,.178.136c.053.4.1.8.146,1.2l.014.128-.181.059A.168.168,0,0,1,2181.688,2329.434Zm-59.648-.117a.158.158,0,0,1-.157-.139q-.077-.625-.146-1.261a.159.159,0,0,1,.315-.034c.045.422.094.842.145,1.257a.158.158,0,0,1-.138.177Zm59.083-4.017a.159.159,0,0,1-.156-.129q-.12-.626-.249-1.239a.158.158,0,0,1,.31-.066q.13.616.251,1.246a.158.158,0,0,1-.126.185A.128.128,0,0,1,2181.123,2325.3Zm-59.5-.188a.159.159,0,0,1-.158-.148c-.03-.428-.055-.852-.073-1.27a.158.158,0,0,1,.151-.165.147.147,0,0,1,.165.151c.019.415.044.836.073,1.262a.159.159,0,0,1-.147.169Zm58.572-3.935a.159.159,0,0,1-.154-.119q-.161-.628-.324-1.223a.158.158,0,0,1,.111-.195.156.156,0,0,1,.195.111q.163.6.326,1.228a.159.159,0,0,1-.114.193A.172.172,0,0,1,2180.2,2321.177Zm-58.671-.288h-.006a.158.158,0,0,1-.152-.164l.012-.27a.311.311,0,0,1,.265-.294l.781-.109a.153.153,0,0,1,.179.135.158.158,0,0,1-.135.179l-.78.109,0,.263A.159.159,0,0,1,2121.528,2320.888Zm3.851-.932a.158.158,0,0,1-.021-.315l1.256-.173a.152.152,0,0,1,.178.135.158.158,0,0,1-.135.178l-1.256.173Zm4.186-.575a.158.158,0,0,1-.021-.315l1.256-.171a.159.159,0,1,1,.042.314l-1.255.17Zm4.188-.565a.159.159,0,0,1-.021-.316l1.257-.167a.161.161,0,0,1,.178.136.159.159,0,0,1-.136.178l-1.256.167Zm4.188-.556a.159.159,0,0,1-.021-.316l1.257-.165a.156.156,0,0,1,.178.136.158.158,0,0,1-.136.178l-1.257.165Zm4.19-.545a.158.158,0,0,1-.02-.316l1.257-.162a.156.156,0,0,1,.177.138.159.159,0,0,1-.137.177l-1.256.162Zm4.218-.536-.04-.314,1.25-.157a.156.156,0,0,1,.177.137.158.158,0,0,1-.137.177Zm32.695-.066a.159.159,0,0,1-.151-.111c-.134-.43-.264-.833-.387-1.205a.158.158,0,1,1,.3-.1c.123.373.253.778.388,1.209a.159.159,0,0,1-.1.2A.144.144,0,0,1,2179.043,2317.113Zm-32.722-.09h0Zm4.192-.361a.158.158,0,0,1-.02-.315l1.258-.153a.161.161,0,0,1,.176.138.158.158,0,0,1-.138.176l-1.257.153Zm4.193-.5a.158.158,0,0,1-.019-.316l1.259-.147a.154.154,0,0,1,.176.139.158.158,0,0,1-.139.176l-1.259.147Zm4.2-.484a.159.159,0,0,1-.018-.316l1.259-.141a.159.159,0,0,1,.035.315l-1.259.14Zm4.2-.459a.159.159,0,0,1-.016-.316l1.26-.131a.158.158,0,1,1,.032.315l-1.26.131Zm4.2-.423a.158.158,0,0,1-.015-.316q.646-.061,1.262-.118a.154.154,0,0,1,.172.143.157.157,0,0,1-.143.172q-.616.056-1.261.118Zm4.207-.373a.159.159,0,0,1-.012-.317q.654-.052,1.264-.1a.159.159,0,1,1,.023.316q-.61.045-1.263.1Zm4.215-.28a.158.158,0,0,1-.008-.317c.453-.022.876-.038,1.269-.05h.005a.158.158,0,0,1,0,.317q-.587.017-1.263.05Z" transform="translate(-2119.371 -2299.731)" fill="#fff"/>
          <path id="Trazado_148664" data-name="Trazado 148664" d="M2314.188,2452.522l-7.658.98a1.994,1.994,0,0,1-2.19-1.487l-1.828-7.256a1.991,1.991,0,0,1,1.686-2.458l9.2-1.177a1.992,1.992,0,0,1,2.249,1.894l.286,7.453A1.994,1.994,0,0,1,2314.188,2452.522Z" transform="translate(-2275.373 -2409.431)" fill="url(#linear-gradient-55)"/>
          <path id="Trazado_148665" data-name="Trazado 148665" d="M2323.575,2460.568l-5.829.746a1.519,1.519,0,0,1-1.667-1.132l-1.391-5.522a1.516,1.516,0,0,1,1.283-1.871l7-.9a1.517,1.517,0,0,1,1.711,1.442l.218,5.673A1.518,1.518,0,0,1,2323.575,2460.568Z" transform="translate(-2285.875 -2418.712)" fill="url(#linear-gradient-56)"/>
        </g>
        <path id="Trazado_148666" data-name="Trazado 148666" d="M2283.183,2086.234a59.753,59.753,0,0,1,1.579,17.425,2.07,2.07,0,0,1-1.914,1.855c-1.142.08-2.7.185-4.085.265a7.624,7.624,0,0,1-4.354-1.683.681.681,0,0,0-1,.862,8.324,8.324,0,0,0,2.483,2.676c.577.439,2.5,1.218,2.362,2.082a1.542,1.542,0,0,1-.383.721,8.708,8.708,0,0,1-4.272,2.451,1.181,1.181,0,0,0-.551.281c-.04,1.03,3.127,2.174,3.945,2.445a9.1,9.1,0,0,0,3.809.443,11.265,11.265,0,0,0,7.847-5.188,55.924,55.924,0,0,0,7.828-22.2C2292.206,2084.4,2285.761,2085.483,2283.183,2086.234Z" transform="translate(-2174.487 -2005.293)" fill="url(#linear-gradient-57)"/>
        <g id="Grupo_85446" data-name="Grupo 85446" transform="translate(92.772 38.56)">
          <path id="Trazado_148667" data-name="Trazado 148667" d="M2266.775,1830.073c3.4-25.716-16.413-45.49-16.413-45.49l-11.791,13.746c8.952,11.158,13.207,21.383,15.151,29.413C2256.3,1826.992,2262.507,1825.806,2266.775,1830.073Z" transform="translate(-2237.56 -1784.584)" fill="#ffba5b"/>
          <path id="Trazado_148668" data-name="Trazado 148668" d="M2247.153,1903.256a.731.731,0,0,1-.709-.558c-2.4-9.9-7.446-19.7-15.01-29.128a.73.73,0,1,1,1.139-.914c7.7,9.6,12.844,19.589,15.291,29.7a.73.73,0,0,1-.538.881A.721.721,0,0,1,2247.153,1903.256Z" transform="translate(-2231.273 -1860.223)" fill="url(#linear-gradient-58)"/>
        </g>
      </g>
      <g id="Grupo_85451" data-name="Grupo 85451" transform="translate(0)">
        <g id="Grupo_85448" data-name="Grupo 85448" transform="translate(0.702 109.106)">
          <path id="Trazado_148669" data-name="Trazado 148669" d="M1088.18,3117.805a1.455,1.455,0,0,0-.038-.38c-1.9-7.518-11.308-12.2-11.308-12.2l-3.73.292c-2.144,6.626-1.869,10.69-1.525,12.5.01.051.025.1.038.148A88.479,88.479,0,0,0,1088.18,3117.805Z" transform="translate(-1063.765 -2991.813)" fill="#463c5f"/>
          <path id="Trazado_148670" data-name="Trazado 148670" d="M1073.322,3196.426a1.617,1.617,0,0,0,1.183,1.2c4.376.92,11.333.18,14.253-.2a1.357,1.357,0,0,0,1.126-1.353A88.506,88.506,0,0,1,1073.322,3196.426Z" transform="translate(-1065.469 -3070.073)" fill="url(#linear-gradient-59)"/>
          <path id="Trazado_148671" data-name="Trazado 148671" d="M1073.223,3067.225l1.58,7.6a1.243,1.243,0,0,0,1.063,1.023,10.525,10.525,0,0,0,2.447-.039,1.563,1.563,0,0,0,1.238-1.836l-1.1-6.752Z" transform="translate(-1065.384 -2959.076)" fill="url(#linear-gradient-60)"/>
          <path id="Trazado_148672" data-name="Trazado 148672" d="M1263.807,3191.433c-4.119-.115-6.25-.6-7.351-1.051,0,.409,0,.826.013,1.258a.813.813,0,0,0,.776.827l22.616-.146a1.033,1.033,0,0,0,.831-1.5C1277.727,3191.063,1270.174,3191.611,1263.807,3191.433Z" transform="translate(-1223.239 -3065.178)" fill="url(#linear-gradient-61)"/>
          <path id="Trazado_148673" data-name="Trazado 148673" d="M1280.7,3124.6a1.045,1.045,0,0,0-.09-.17c-2-2.791-7.084-8.348-17.137-10.759l-4.822-.152s-2.147,3.732-2.188,10.646c1.1.45,3.232.935,7.351,1.051C1270.18,3125.391,1277.733,3124.843,1280.7,3124.6Z" transform="translate(-1223.245 -2998.958)" fill="#463c5f"/>
          <path id="Trazado_148674" data-name="Trazado 148674" d="M1264.252,3052.661c.076.355,1.08,5.766,1.468,7.864a1.049,1.049,0,0,0,.943.89,11.027,11.027,0,0,0,3.3-.259,1.426,1.426,0,0,0,.989-1.5l-.54-8.558Z" transform="translate(-1229.956 -2945.186)" fill="url(#linear-gradient-62)"/>
          <path id="Trazado_148675" data-name="Trazado 148675" d="M1047.263,2293.912s6.634,45.583,11.421,99.827a2.066,2.066,0,0,1-1.708,2.1,25.09,25.09,0,0,1-5.392.624,2,2,0,0,1-1.9-1.668c-1.631-9.564-13.268-60.893-16.322-72.19,0,0-3.508,47.987-2.387,72.883a1.18,1.18,0,0,1-1.041,1.227,19.839,19.839,0,0,1-4.329-.012,1.58,1.58,0,0,1-1.407-1.341c-1.162-8.094-7.848-56.274-7.563-90.981.016-1.957,2.3-18.038,2.3-18.038Z" transform="translate(-1016.622 -2286.341)" fill="#b17728"/>
        </g>
        <path id="Trazado_148676" data-name="Trazado 148676" d="M1013.562,1825.962a1.877,1.877,0,0,1-1.232-1.581c-.882-8.558-5.153-61.624,21.812-83.453,0,0,1.546-4.046,14.257,5.9s5.906,20.37,2.863,34.748c-3.683,17.4-10.144,31.621-7.285,42.328a1.484,1.484,0,0,1-.909,1.779A42.1,42.1,0,0,1,1013.562,1825.962Z" transform="translate(-1011.552 -1706.657)" fill="#ff7758"/>
        <path id="Trazado_148677" data-name="Trazado 148677" d="M1183.582,1631.19c-.008.755-10.776,16.049-10.776,16.049s1.933,3.806,11.159,6.9l7.964-16.375Z" transform="translate(-1150.473 -1612.819)" fill="url(#linear-gradient-63)"/>
        <g id="Grupo_85449" data-name="Grupo 85449" transform="translate(19.346)">
          <path id="Trazado_148678" data-name="Trazado 148678" d="M1216.241,1567.912s3.831,8.8,4.089,13.421,1.253,7.617-4.089,8.547-9.841-1.73-12.278-6.332c0,0-3.819-7.09-2.963-9.994S1216.241,1567.912,1216.241,1567.912Z" transform="translate(-1194.001 -1558.305)" fill="url(#linear-gradient-64)"/>
          <path id="Trazado_148679" data-name="Trazado 148679" d="M1163.028,1520.477l.3-.134a.733.733,0,0,0,.358-1.007c-.753-1.455-2.221-4.79-.325-5.568,2.444-1,12.128-2.977,14.217-6.413a6.393,6.393,0,0,0-2.445-8.777.368.368,0,0,0-.482.157l-.223.422a.363.363,0,0,1-.669-.069h0a.361.361,0,0,0-.654-.094c-.642,1.028-2.376,2.695-7.012,3.55-6.589,1.216-10.946,3.883-11.054,8.436a.364.364,0,0,1-.562.3c-.486-.3-1.265-.436-2.306.439-1.81,1.522-1.069,5.469,2.9,8.716a.361.361,0,0,1-.017.581c-.719.468-1.791,1.582.987,3.067a9.353,9.353,0,0,0,5.845,1.274.361.361,0,0,0,.293-.436l-.882-4a.363.363,0,0,1,.354-.441Z" transform="translate(-1151.241 -1498.543)" fill="#463c5f"/>
          <path id="Trazado_148680" data-name="Trazado 148680" d="M1207.607,1636.117s-1.462-5.622-3.982-4.046,1.308,6.3,3.335,6.51Z" transform="translate(-1195.654 -1613.338)" fill="url(#linear-gradient-65)"/>
        </g>
        <g id="Grupo_85450" data-name="Grupo 85450" transform="translate(40.937 41.824)">
          <path id="Trazado_148681" data-name="Trazado 148681" d="M1307.134,1821.915l.742,19.938a54.787,54.787,0,0,0,6.028,1.711,60.235,60.235,0,0,1,5.985-12.088A29.557,29.557,0,0,1,1307.134,1821.915Z" transform="translate(-1307.134 -1818.953)" fill="url(#linear-gradient-66)"/>
          <path id="Trazado_148682" data-name="Trazado 148682" d="M1388.8,1819.466c-10.866,11.732-19.661,12.422-26.793,9.9a60.239,60.239,0,0,0-5.985,12.088c29.018,6.4,35.851-20.279,35.851-20.279Z" transform="translate(-1349.248 -1816.844)" fill="url(#linear-gradient-67)"/>
          <path id="Trazado_148683" data-name="Trazado 148683" d="M1608.6,1801.907a3.981,3.981,0,0,1,3.568-.922c2.317.422,4.379,1.227,5.822,0s1.951.42,1.951.42l-4.322,3.286Z" transform="translate(-1566.851 -1800.531)" fill="url(#linear-gradient-68)"/>
          <path id="Trazado_148684" data-name="Trazado 148684" d="M1589.937,1807.521s.858-3.586,3.442-3.094,8.452,3.682,9.964,3.094,3.446-1.995,4.438-1.5l-1.747,2.172s4.492-2.592,5.266-1l-7.475,4.206S1592.889,1810.309,1589.937,1807.521Z" transform="translate(-1550.77 -1803.847)" fill="url(#linear-gradient-69)"/>
        </g>
        <path id="Trazado_148685" data-name="Trazado 148685" d="M1220.039,1930.161s20.429,17.109,42.489,9.644a5.253,5.253,0,0,1,4.142.312l6.342,3.35a5.661,5.661,0,0,0,7.5-2.1,11.919,11.919,0,0,0,1.782-4.77l-12.409-5.024.915-1.521s-6.059-.513-7.645,3.829c0,0-11.541,4.8-31-16.607C1232.155,1917.273,1223.323,1924.782,1220.039,1930.161Z" transform="translate(-1191.164 -1859.281)" fill="url(#linear-gradient-70)"/>
        <path id="Trazado_148686" data-name="Trazado 148686" d="M1131.785,1910.568a.345.345,0,0,1-.2-.06c-8.6-5.812-12.648-15.192-12.688-15.286a.35.35,0,0,1,.644-.273c.039.092,4.01,9.287,12.436,14.98a.35.35,0,0,1-.2.639Z" transform="translate(-1104.01 -1839.864)" fill="url(#linear-gradient-71)"/>
        <path id="Trazado_148687" data-name="Trazado 148687" d="M1164.683,1794.035a.35.35,0,0,1-.294-.161c-.026-.04-2.654-4.131-7.659-13.093a10.09,10.09,0,0,0-6.012-5.187,11.746,11.746,0,0,0-8.007,1.063.35.35,0,1,1-.346-.608,12.208,12.208,0,0,1,8.534-1.13,10.754,10.754,0,0,1,6.441,5.52c4.993,8.94,7.611,13.016,7.636,13.056a.349.349,0,0,1-.1.483A.344.344,0,0,1,1164.683,1794.035Z" transform="translate(-1124.096 -1736.333)" fill="url(#linear-gradient-72)"/>
      </g>
    </g>
  </g>
</svg>
