<svg xmlns="http://www.w3.org/2000/svg" width="85" height="35.986" viewBox="0 0 85 35.986">
  <g id="camion-contenedor" transform="translate(0 -147.618)">
    <path id="Trazado_147073" data-name="Trazado 147073" d="M403.977,210.375H385.245v-23h12.64a1.292,1.292,0,0,1,1.033.516l5.866,7.818a1.292,1.292,0,0,1,.259.775v12.823a1.067,1.067,0,0,1-1.066,1.066Z" transform="translate(-321.289 -33.158)" fill="#f9f6f6"/>
    <path id="Trazado_147074" data-name="Trazado 147074" d="M453.043,195.709l-5.866-7.818a1.292,1.292,0,0,0-1.033-.517H443.11a1.292,1.292,0,0,1,1.033.517l5.866,7.818a1.292,1.292,0,0,1,.259.775v12.823a1.066,1.066,0,0,1-1.066,1.066h3.033a1.066,1.066,0,0,0,1.066-1.066V196.485A1.292,1.292,0,0,0,453.043,195.709Z" transform="translate(-369.547 -33.157)" fill="#dddaec"/>
    <path id="Trazado_147075" data-name="Trazado 147075" d="M448.646,187.892a1.292,1.292,0,0,0-1.033-.516h-2.741V197.89a.986.986,0,0,0,.986.986h8.913v-2.39a1.292,1.292,0,0,0-.259-.775Z" transform="translate(-371.017 -33.158)" fill="#e4f6ff"/>
    <path id="Trazado_147076" data-name="Trazado 147076" d="M454.513,195.711l-5.866-7.818a1.292,1.292,0,0,0-1.033-.516h-2.741v.034a1.292,1.292,0,0,1,.741.483l5.866,7.818a1.292,1.292,0,0,1,.259.775v2.39h3.033v-2.39A1.292,1.292,0,0,0,454.513,195.711Z" transform="translate(-371.018 -33.158)" fill="#d3effb"/>
    <path id="Trazado_147077" data-name="Trazado 147077" d="M70.211,302.91H8.9a1.4,1.4,0,0,1-1.4-1.4v-3.176H70.211Z" transform="translate(-6.255 -125.692)" fill="#675d84"/>
    <path id="Trazado_147078" data-name="Trazado 147078" d="M370.257,298.331h2.488v4.579h-2.488Z" transform="translate(-308.789 -125.692)" fill="#4278c3"/>
    <path id="Trazado_147079" data-name="Trazado 147079" d="M78.993,178.894H23.507V156.317a1.2,1.2,0,0,1,1.2-1.2H77.8a1.2,1.2,0,0,1,1.2,1.2v22.577Z" transform="translate(-19.605 -6.256)" fill="#ffba5b"/>
    <path id="Trazado_147081" data-name="Trazado 147081" d="M396.42,160.474H385.245v-5.355l7.52,1.117A4.285,4.285,0,0,1,396.42,160.474Z" transform="translate(-321.289 -6.256)" fill="#ff7758"/>
    <g id="Grupo_84356" data-name="Grupo 84356" transform="translate(69.06 172.77)">
      <circle id="Elipse_4370" data-name="Elipse 4370" cx="4.795" cy="4.795" r="4.795" transform="translate(0 0)" fill="#463c5f"/>
      <path id="Trazado_147082" data-name="Trazado 147082" d="M438.754,299.12a4.8,4.8,0,0,0-1.218.157,4.8,4.8,0,0,1,0,9.276,4.8,4.8,0,1,0,1.218-9.433Z" transform="translate(-433.959 -299.12)" fill="#463c5f"/>
    </g>
    <g id="Grupo_84357" data-name="Grupo 84357" transform="translate(41.159 172.77)">
      <circle id="Elipse_4371" data-name="Elipse 4371" cx="4.795" cy="4.795" r="4.795" transform="translate(0 0)" fill="#463c5f"/>
      <path id="Trazado_147083" data-name="Trazado 147083" d="M270.688,299.12a4.8,4.8,0,0,0-1.218.157,4.8,4.8,0,0,1,0,9.276,4.8,4.8,0,1,0,1.218-9.433Z" transform="translate(-265.893 -299.12)" fill="#463c5f"/>
    </g>
    <g id="Grupo_84358" data-name="Grupo 84358" transform="translate(8.818 172.77)">
      <circle id="Elipse_4372" data-name="Elipse 4372" cx="4.795" cy="4.795" r="4.795" transform="translate(0 0)" fill="#463c5f"/>
      <path id="Trazado_147084" data-name="Trazado 147084" d="M75.88,299.12a4.8,4.8,0,0,0-1.218.157,4.8,4.8,0,0,1,0,9.276,4.8,4.8,0,1,0,1.218-9.433Z" transform="translate(-71.085 -299.12)" fill="#463c5f"/>
    </g>
    <g id="Grupo_84361" data-name="Grupo 84361" transform="translate(26.855 154.218)">
      <g id="Grupo_84360" data-name="Grupo 84360" transform="translate(0 0)">
        <g id="Grupo_84359" data-name="Grupo 84359">
          <path id="Trazado_147085" data-name="Trazado 147085" d="M162.547,199.153l-.785-.807,4.783-4.656-4.783-4.656.785-.806a2.818,2.818,0,0,1,3.985-.054l4.192,4.08a2.02,2.02,0,0,1,.5.749,1.976,1.976,0,0,1-.474,2.1l-4.215,4.1A2.818,2.818,0,0,1,162.547,199.153Z" transform="translate(-161.762 -187.376)" fill="#f9f6f6"/>
        </g>
      </g>
    </g>
    <g id="Grupo_84362" data-name="Grupo 84362" transform="translate(0 147.618)">
      <path id="Trazado_147086" data-name="Trazado 147086" d="M78.625,153.988a2.719,2.719,0,0,0-2.393-1.015,5.57,5.57,0,0,0-4.573-4.224l-7.52-1.117a1.246,1.246,0,0,0-1.428,1.232V160.94a1.245,1.245,0,1,0,2.49,0v-5.476H72.61v9.268a2.233,2.233,0,0,0,2.231,2.231h7.668V169h-.587a1.245,1.245,0,1,0,0,2.49h.587v4.477H79.68a6.039,6.039,0,0,0-11.651,0H65.2V165.918a1.245,1.245,0,1,0-2.49,0v5.476H60.634V150.061a2.446,2.446,0,0,0-2.443-2.443H13.632a1.245,1.245,0,1,0,0,2.49H58.144v21.285h-53V150.108H8.654a1.245,1.245,0,0,0,0-2.49H5.1a2.446,2.446,0,0,0-2.443,2.443v21.332H1.245A1.245,1.245,0,0,0,0,172.639v3.176a2.651,2.651,0,0,0,2.648,2.648H3.8v.765H1.245a1.245,1.245,0,0,0,0,2.49h3.8a1.245,1.245,0,0,0,1.245-1.245v-2.01H7.64a6.04,6.04,0,0,0,11.946,0h4.78a1.245,1.245,0,0,0,0-2.49H19.439a6.021,6.021,0,0,0-1.042-2.089H41.17a6.024,6.024,0,0,0-1.042,2.089H29.344a1.245,1.245,0,0,0,0,2.49H39.981a6.04,6.04,0,0,0,11.946,0H67.883a6.04,6.04,0,0,0,11.946,0h2.86A2.314,2.314,0,0,0,85,176.151V163.328c0-1.477-.706-1.52-6.375-9.34ZM13.613,181.114a3.554,3.554,0,0,1-3.55-3.55c0-.074,0-.147.007-.219a.006.006,0,0,1,0,0,3.549,3.549,0,0,1,7.084,0,.006.006,0,0,0,0,0c0,.073.007.146.007.219A3.554,3.554,0,0,1,13.613,181.114Zm-5.825-5.142H2.648a.158.158,0,0,1-.158-.157v-1.931H8.829a6.018,6.018,0,0,0-1.042,2.089Zm54.923-2.089v2.089H51.779a6.021,6.021,0,0,0-1.042-2.089Zm-16.757,7.23a3.554,3.554,0,0,1-3.55-3.55c0-.074,0-.147.007-.219a.006.006,0,0,1,0,0,3.549,3.549,0,0,1,7.084,0,.006.006,0,0,0,0,0c0,.073.007.146.007.219a3.554,3.554,0,0,1-3.55,3.55Zm27.9,0a3.55,3.55,0,1,1,3.55-3.55A3.554,3.554,0,0,1,73.855,181.114Zm-2.562-29.9a3.057,3.057,0,0,1,2.322,1.761H65.2v-2.666ZM75.1,164.473v-9.009h1.5a.047.047,0,0,1,.038.019L82.5,163.3a.048.048,0,0,1,.009.028v1.145Z" transform="translate(0 -147.618)"/>
      <path id="Trazado_147087" data-name="Trazado 147087" d="M65.722,194.436a1.245,1.245,0,0,0,1.245-1.245v-13.56a1.245,1.245,0,0,0-2.49,0v13.56A1.245,1.245,0,0,0,65.722,194.436Z" transform="translate(-53.773 -173.278)"/>
      <path id="Trazado_147088" data-name="Trazado 147088" d="M126.289,193.191v-13.56a1.245,1.245,0,0,0-2.49,0v13.56a1.245,1.245,0,0,0,2.49,0Z" transform="translate(-103.247 -173.278)"/>
      <path id="Trazado_147089" data-name="Trazado 147089" d="M244.932,193.191v-13.56a1.245,1.245,0,0,0-2.49,0v13.56a1.245,1.245,0,0,0,2.49,0Z" transform="translate(-202.193 -173.278)"/>
      <path id="Trazado_147090" data-name="Trazado 147090" d="M304.254,193.191v-13.56a1.245,1.245,0,1,0-2.49,0v13.56a1.245,1.245,0,1,0,2.49,0Z" transform="translate(-251.667 -173.278)"/>
      <path id="Trazado_147091" data-name="Trazado 147091" d="M154.614,192.969l.785.806a4.062,4.062,0,0,0,5.746.078l4.215-4.1a3.219,3.219,0,0,0-.023-4.633l-4.192-4.08a4.068,4.068,0,0,0-5.746.078l-.785.807a1.245,1.245,0,0,0,.024,1.761l3.866,3.763-3.866,3.763A1.245,1.245,0,0,0,154.614,192.969Zm6.544-4.632a1.245,1.245,0,0,0,0-1.784l-3.887-3.784a1.575,1.575,0,0,1,2.138.052l4.192,4.08a.727.727,0,0,1,.023,1.064l-4.215,4.1a1.575,1.575,0,0,1-2.138.052Z" transform="translate(-128.652 -174.53)"/>
    </g>
  </g>
</svg>
