<svg xmlns="http://www.w3.org/2000/svg" width="82.781" height="82.781" viewBox="0 0 82.781 82.781">
  <g id="Filled_outline" data-name="Filled outline" transform="translate(-16 -16)">
    <path id="Trazado_147016" data-name="Trazado 147016" d="M72.278,24h49.669a8.278,8.278,0,0,1,8.278,8.278V90.225a2.759,2.759,0,0,1-2.759,2.759H66.759A2.759,2.759,0,0,1,64,90.225V32.278A8.278,8.278,0,0,1,72.278,24Z" transform="translate(-39.722 -6.62)" fill="#ff7758"/>
    <path id="Trazado_147017" data-name="Trazado 147017" d="M80,424H91.037v9.658a1.38,1.38,0,0,1-1.38,1.38H81.38a1.38,1.38,0,0,1-1.38-1.38Z" transform="translate(-52.962 -337.636)" fill="#4d5e78"/>
    <path id="Trazado_147018" data-name="Trazado 147018" d="M368,424h11.038v9.658a1.38,1.38,0,0,1-1.38,1.38H369.38a1.38,1.38,0,0,1-1.38-1.38Z" transform="translate(-291.294 -337.636)" fill="#4d5e78"/>
    <ellipse id="Elipse_4367" data-name="Elipse 4367" cx="4" cy="4.5" rx="4" ry="4.5" transform="translate(30 71.781)" fill="#ffba5b"/>
    <ellipse id="Elipse_4368" data-name="Elipse 4368" cx="4" cy="4.5" rx="4" ry="4.5" transform="translate(77 71.781)" fill="#ffba5b"/>
    <path id="Trazado_147019" data-name="Trazado 147019" d="M64,96h66.225v35.872H64Z" transform="translate(-39.722 -66.203)" fill="#675d84"/>
    <path id="Trazado_147020" data-name="Trazado 147020" d="M179.629,96v35.872H123.7c19.849-6.331,38.935-17.534,51.8-35.872Z" transform="translate(-89.126 -66.203)" fill="#594e76"/>
    <rect id="Rect치ngulo_31675" data-name="Rect치ngulo 31675" width="7" height="16" rx="3.5" transform="translate(18 42.781)" fill="#9c8cc9"/>
    <rect id="Rect치ngulo_31676" data-name="Rect치ngulo 31676" width="7" height="16" rx="3.5" transform="translate(90 42.781)" fill="#9c8cc9"/>
    <path id="Trazado_147022" data-name="Trazado 147022" d="M80,424H91.037v2.759H80Z" transform="translate(-52.962 -337.636)" fill="#3b495e"/>
    <path id="Trazado_147023" data-name="Trazado 147023" d="M368,424h11.038v2.759H368Z" transform="translate(-291.294 -337.636)" fill="#3b495e"/>
    <path id="Trazado_147025" data-name="Trazado 147025" d="M93.519,336a5.519,5.519,0,1,0,5.519,5.519A5.519,5.519,0,0,0,93.519,336Zm0,8.278a2.759,2.759,0,1,1,2.759-2.759,2.759,2.759,0,0,1-2.759,2.759Z" transform="translate(-59.583 -264.813)"/>
    <path id="Trazado_147026" data-name="Trazado 147026" d="M365.519,336a5.519,5.519,0,1,0,5.519,5.519A5.519,5.519,0,0,0,365.519,336Zm0,8.278a2.759,2.759,0,1,1,2.759-2.759,2.759,2.759,0,0,1-2.759,2.759Z" transform="translate(-284.673 -264.813)"/>
    <path id="Trazado_147027" data-name="Trazado 147027" d="M168,344h30.353v2.759H168Z" transform="translate(-125.786 -271.433)"/>
    <path id="Trazado_147028" data-name="Trazado 147028" d="M168,376h30.353v2.759H168Z" transform="translate(-125.786 -297.914)"/>
    <path id="Trazado_147029" data-name="Trazado 147029" d="M96.022,40.834H91.883V25.658A9.669,9.669,0,0,0,82.225,16H32.556A9.669,9.669,0,0,0,22.9,25.658v5.519H56.011V64.289H45.036l5.456-6.063v3.3h2.759v-13.8H50.492V54.1L41.324,64.289H25.658V33.936H22.9v6.9H18.759A2.763,2.763,0,0,0,16,43.594v13.8a2.763,2.763,0,0,0,2.759,2.759H22.9V83.6a4.146,4.146,0,0,0,2.759,3.9v8.515a2.763,2.763,0,0,0,2.759,2.759H36.7a2.763,2.763,0,0,0,2.759-2.759V87.744H86.364v8.278H78.086V90.5H75.327v5.519a2.763,2.763,0,0,0,2.759,2.759h8.278a2.763,2.763,0,0,0,2.759-2.759V87.506a4.146,4.146,0,0,0,2.759-3.9V60.15h4.139a2.763,2.763,0,0,0,2.759-2.759v-13.8a2.763,2.763,0,0,0-2.759-2.759ZM25.658,25.658a6.906,6.906,0,0,1,6.9-6.9H82.225a6.906,6.906,0,0,1,6.9,6.9v2.759H25.658ZM58.77,31.177H89.123V64.289H73.458L64.289,54.1V47.733H61.53v13.8h2.759v-3.3l5.456,6.063H58.77ZM18.759,57.391v-13.8H22.9v13.8ZM36.7,96.022H28.417V87.744H36.7ZM87.744,84.984H27.038a1.381,1.381,0,0,1-1.38-1.38V67.048H38.84l-.411.457L40.48,69.35l2.072-2.3H72.229l2.072,2.3,2.051-1.845-.411-.457H89.123V83.6A1.381,1.381,0,0,1,87.744,84.984Zm8.278-27.594H91.883v-13.8h4.139l0,13.8Z"/>
    <path id="Trazado_147030" data-name="Trazado 147030" d="M248,48h2.759v2.759H248Z" transform="translate(-191.989 -26.481)"/>
    <path id="Trazado_147031" data-name="Trazado 147031" d="M280,48h2.759v2.759H280Z" transform="translate(-218.47 -26.481)"/>
    <path id="Trazado_147032" data-name="Trazado 147032" d="M216,48h2.759v2.759H216Z" transform="translate(-165.508 -26.481)"/>
    <path id="Trazado_147033" data-name="Trazado 147033" d="M104,48h2.759v2.759H104Z" transform="translate(-72.823 -26.481)"/>
    <path id="Trazado_147034" data-name="Trazado 147034" d="M392,48h2.759v2.759H392Z" transform="translate(-311.155 -26.481)"/>
  </g>
</svg>
