<svg xmlns="http://www.w3.org/2000/svg" width="79.239" height="79.239" viewBox="0 0 79.239 79.239">
  <g id="levantar-la-mano" transform="translate(0)">
    <g id="Grupo_84324" data-name="Grupo 84324" transform="translate(1.548 1.548)">
      <path id="Trazado_147035" data-name="Trazado 147035" d="M291.286,146.953V119.1a3.1,3.1,0,0,1,6.191,0v15.476a3.1,3.1,0,0,1,6.191,0v3.1a3.1,3.1,0,1,1,6.191,0v3.1a3.1,3.1,0,1,1,6.191,0v9.145a15.593,15.593,0,0,1-6.191,12.452v13.379H291.286V162.567a15.592,15.592,0,0,1-6.158-9.543L282,137.667A9.285,9.285,0,0,1,291.286,146.953Z" transform="translate(-239.904 -99.595)" fill="#d0a084"/>
      <path id="Trazado_147036" data-name="Trazado 147036" d="M25.476,28.572a3.1,3.1,0,0,1,6.191,0v3.1a3.1,3.1,0,1,1,6.191,0v3.1a3.1,3.1,0,0,1,6.191,0v9.145A15.593,15.593,0,0,1,37.858,56.36V86.144H19.286V56.567a15.592,15.592,0,0,1-6.158-9.543L10,31.667a9.285,9.285,0,0,1,9.286,9.286V13.1a3.1,3.1,0,1,1,6.191,0Z" transform="translate(-10 -10)" fill="#fce8d0"/>
    </g>
    <g id="Grupo_84325" data-name="Grupo 84325" transform="translate(0)">
      <path id="Trazado_147037" data-name="Trazado 147037" d="M304.5,127.667a4.616,4.616,0,0,0-1.711.328,4.639,4.639,0,0,0-6.191-3.1,4.64,4.64,0,0,0-6.027-3.157v-11.1a4.643,4.643,0,0,0-9.286,0v20.286a10.8,10.8,0,0,0-7.738-3.262,1.548,1.548,0,0,0-1.517,1.857l3.128,15.357a17.118,17.118,0,0,0,6.127,10v12.4a1.548,1.548,0,0,0,1.548,1.548h18.572a1.548,1.548,0,0,0,1.548-1.548V154.654a17.026,17.026,0,0,0,6.191-13.2V132.31A4.648,4.648,0,0,0,304.5,127.667Zm1.548,13.788a13.97,13.97,0,0,1-5.578,11.219,1.548,1.548,0,0,0-.613,1.233v11.832H284.381V154.115a1.548,1.548,0,0,0-.641-1.254,14.035,14.035,0,0,1-5.548-8.6l-2.7-13.253a7.752,7.752,0,0,1,5.793,7.491v3.1a1.548,1.548,0,0,0,3.1,0V110.643a1.548,1.548,0,0,1,3.1,0v24.762a1.548,1.548,0,1,0,3.1,0v-9.286a1.548,1.548,0,0,1,3.1,0v9.286a1.548,1.548,0,0,0,3.1,0v-6.191a1.548,1.548,0,1,1,3.1,0v6.191a1.548,1.548,0,0,0,3.1,0v-3.1a1.548,1.548,0,1,1,3.1,0Z" transform="translate(-229.904 -89.595)"/>
      <path id="Trazado_147038" data-name="Trazado 147038" d="M3.159,38.881a17.118,17.118,0,0,0,6.127,10V55.87a1.548,1.548,0,0,0,3.1,0V48.115a1.548,1.548,0,0,0-.641-1.254,14.035,14.035,0,0,1-5.548-8.6L3.492,25.01A7.752,7.752,0,0,1,9.286,32.5v3.1a1.548,1.548,0,0,0,3.1,0V4.643a1.548,1.548,0,0,1,3.1,0V29.405a1.548,1.548,0,1,0,3.1,0V20.119a1.548,1.548,0,0,1,3.1,0v9.286a1.548,1.548,0,1,0,3.1,0V23.215a1.548,1.548,0,0,1,3.1,0v6.191a1.548,1.548,0,1,0,3.1,0v-3.1a1.548,1.548,0,1,1,3.1,0v9.145A13.97,13.97,0,0,1,28.47,46.674a1.548,1.548,0,0,0-.613,1.233V76.144H12.381V69.8a1.548,1.548,0,1,0-3.1,0v7.893a1.548,1.548,0,0,0,1.548,1.548H29.405a1.548,1.548,0,0,0,1.548-1.548V48.655a17.027,17.027,0,0,0,6.191-13.2V26.31A4.64,4.64,0,0,0,30.789,22,4.639,4.639,0,0,0,24.6,18.9a4.64,4.64,0,0,0-6.027-3.157V4.643a4.643,4.643,0,1,0-9.286,0V24.929a10.8,10.8,0,0,0-7.738-3.262A1.548,1.548,0,0,0,.031,23.524Z" transform="translate(0)"/>
      <circle id="Elipse_4369" data-name="Elipse 4369" cx="1.363" cy="1.363" r="1.363" transform="translate(9.64 61.423)"/>
    </g>
  </g>
</svg>
