<svg xmlns="http://www.w3.org/2000/svg" width="610" height="370" viewBox="0 0 610 370">
  <g id="Grupo_86288" data-name="Grupo 86288" transform="translate(-180 -971.221)">
    <path id="Trazado_151111" data-name="Trazado 151111" d="M0,0H610V370H0Z" transform="translate(180 971.221)" fill="#c3b5ec"/>
    <g id="organizacion" transform="translate(406.557 1034.475)">
      <path id="Trazado_146935" data-name="Trazado 146935" d="M24,136H63v83.2H24Zm0,0" transform="translate(-16.2 -91.8)" fill="#ccdce5"/>
      <path id="Trazado_146936" data-name="Trazado 146936" d="M24,328H63v23.4H24Zm0,0" transform="translate(-16.2 -221.4)" fill="#ff7758"/>
      <path id="Trazado_146937" data-name="Trazado 146937" d="M8,104H52.2v10.4H8Zm0,0" transform="translate(-5.4 -70.2)" fill="#ff7758"/>
      <path id="Trazado_146941" data-name="Trazado 146941" d="M336,136h39v83.2H336Zm0,0" transform="translate(-226.8 -91.8)" fill="#ccdce5"/>
      <path id="Trazado_146942" data-name="Trazado 146942" d="M336,328h39v23.4H336Zm0,0" transform="translate(-226.8 -221.4)" fill="#ff7758"/>
      <path id="Trazado_146943" data-name="Trazado 146943" d="M336,104h44.2v10.4H336Zm0,0" transform="translate(-226.8 -70.2)" fill="#ff7758"/>
      <path id="Trazado_146947" data-name="Trazado 146947" d="M136,32h67.6V149H136Zm0,0" transform="translate(-91.8 -21.6)" fill="#ccdce5"/>
      <path id="Trazado_146948" data-name="Trazado 146948" d="M120,8h78V18.4H120Zm0,0" transform="translate(-81 -5.4)" fill="#ff7758"/>
      <path id="Trazado_146949" data-name="Trazado 146949" d="M228.8,186.4A10.4,10.4,0,1,1,218.4,176,10.4,10.4,0,0,1,228.8,186.4Zm0,0" transform="translate(-140.4 -118.8)" fill="#ffba5b"/>
      <path id="Trazado_146950" data-name="Trazado 146950" d="M176,258.2V253a13,13,0,0,1,13-13h15.6a13,13,0,0,1,13,13v5.2a5.2,5.2,0,0,1-5.2,5.2h-5.2v13H186.4v-13h-5.2A5.2,5.2,0,0,1,176,258.2Zm0,0" transform="translate(-118.8 -162)" fill="#ffba5b"/>
      <g id="Grupo_84320" data-name="Grupo 84320" transform="translate(2.6 137.8)">
        <path id="Trazado_146952" data-name="Trazado 146952" d="M8,424H44.4v15.6H8Zm0,0" transform="translate(-8 -424)" fill="#ffba5b"/>
        <path id="Trazado_146953" data-name="Trazado 146953" d="M184,424h36.4v15.6H184Zm0,0" transform="translate(-126.8 -424)" fill="#ffba5b"/>
        <path id="Trazado_146954" data-name="Trazado 146954" d="M360,424h36.4v15.6H360Zm0,0" transform="translate(-245.6 -424)" fill="#ffba5b"/>
      </g>
      <path id="Trazado_146955" data-name="Trazado 146955" d="M232,288h5.2v5.2H232Zm0,0" transform="translate(-156.6 -194.4)"/>
      <path id="Trazado_146956" data-name="Trazado 146956" d="M153.4,248.6H137.8v-7.8a2.6,2.6,0,0,0-2.6-2.6H80.6v-7.8h7.8a2.6,2.6,0,0,0,2.6-2.6V217.4h2.6a7.8,7.8,0,0,0,7.8-7.8v-5.2A15.6,15.6,0,0,0,88.169,189a13,13,0,1,0-20.338,0A15.6,15.6,0,0,0,54.6,204.4v5.2a7.8,7.8,0,0,0,7.8,7.8H65v10.4a2.6,2.6,0,0,0,2.6,2.6h7.8v7.8H20.8a2.6,2.6,0,0,0-2.6,2.6v7.8H2.6A2.6,2.6,0,0,0,0,251.2v15.6a2.6,2.6,0,0,0,2.6,2.6H39a2.6,2.6,0,0,0,2.6-2.6V251.2a2.6,2.6,0,0,0-2.6-2.6H23.4v-5.2h52v5.2H59.8a2.6,2.6,0,0,0-2.6,2.6v15.6a2.6,2.6,0,0,0,2.6,2.6H96.2a2.6,2.6,0,0,0,2.6-2.6V251.2a2.6,2.6,0,0,0-2.6-2.6H80.6v-5.2h52v5.2H117a2.6,2.6,0,0,0-2.6,2.6v15.6a2.6,2.6,0,0,0,2.6,2.6h36.4a2.6,2.6,0,0,0,2.6-2.6V251.2A2.6,2.6,0,0,0,153.4,248.6ZM78,173.2a7.8,7.8,0,1,1-7.8,7.8A7.8,7.8,0,0,1,78,173.2Zm-7.8,41.6V204.4H65v7.8H62.4a2.6,2.6,0,0,1-2.6-2.6v-5.2A10.4,10.4,0,0,1,70.2,194h5.2v7.8h5.2V194h5.2a10.4,10.4,0,0,1,10.4,10.4v5.2a2.6,2.6,0,0,1-2.6,2.6H91v-7.8H85.8v20.8H70.2ZM36.4,264.2H5.2V253.8H36.4Zm57.2,0H62.4V253.8H93.6Zm57.2,0H119.6V253.8h31.2Zm0,0" transform="translate(0 -113.4)"/>
      <path id="Trazado_146957" data-name="Trazado 146957" d="M56,168h5.2v5.2H56Zm0,0" transform="translate(-37.8 -113.4)"/>
      <path id="Trazado_146958" data-name="Trazado 146958" d="M88,168h5.2v5.2H88Zm0,0" transform="translate(-59.4 -113.4)"/>
      <path id="Trazado_146959" data-name="Trazado 146959" d="M56,200h5.2v5.2H56Zm0,0" transform="translate(-37.8 -135)"/>
      <path id="Trazado_146960" data-name="Trazado 146960" d="M88,200h5.2v5.2H88Zm0,0" transform="translate(-59.4 -135)"/>
      <path id="Trazado_146961" data-name="Trazado 146961" d="M168,72h5.2v5.2H168Zm0,0" transform="translate(-113.4 -48.6)"/>
      <path id="Trazado_146962" data-name="Trazado 146962" d="M200,72h5.2v5.2H200Zm0,0" transform="translate(-135 -48.6)"/>
      <path id="Trazado_146963" data-name="Trazado 146963" d="M168,104h5.2v5.2H168Zm0,0" transform="translate(-113.4 -70.2)"/>
      <path id="Trazado_146964" data-name="Trazado 146964" d="M200,104h5.2v5.2H200Zm0,0" transform="translate(-135 -70.2)"/>
      <path id="Trazado_146965" data-name="Trazado 146965" d="M168,144h5.2v5.2H168Zm0,0" transform="translate(-113.4 -97.2)"/>
      <path id="Trazado_146966" data-name="Trazado 146966" d="M200,144h5.2v5.2H200Zm0,0" transform="translate(-135 -97.2)"/>
      <path id="Trazado_146967" data-name="Trazado 146967" d="M168,176h5.2v5.2H168Zm0,0" transform="translate(-113.4 -118.8)"/>
      <path id="Trazado_146968" data-name="Trazado 146968" d="M296,144h5.2v5.2H296Zm0,0" transform="translate(-199.8 -97.2)"/>
      <path id="Trazado_146969" data-name="Trazado 146969" d="M264,144h5.2v5.2H264Zm0,0" transform="translate(-178.2 -97.2)"/>
      <path id="Trazado_146970" data-name="Trazado 146970" d="M296,176h5.2v5.2H296Zm0,0" transform="translate(-199.8 -118.8)"/>
      <path id="Trazado_146971" data-name="Trazado 146971" d="M296,72h5.2v5.2H296Zm0,0" transform="translate(-199.8 -48.6)"/>
      <path id="Trazado_146972" data-name="Trazado 146972" d="M264,72h5.2v5.2H264Zm0,0" transform="translate(-178.2 -48.6)"/>
      <path id="Trazado_146973" data-name="Trazado 146973" d="M296,104h5.2v5.2H296Zm0,0" transform="translate(-199.8 -70.2)"/>
      <path id="Trazado_146974" data-name="Trazado 146974" d="M264,104h5.2v5.2H264Zm0,0" transform="translate(-178.2 -70.2)"/>
      <path id="Trazado_146975" data-name="Trazado 146975" d="M56,240h5.2v5.2H56Zm0,0" transform="translate(-37.8 -162)"/>
      <path id="Trazado_146976" data-name="Trazado 146976" d="M88,240h5.2v5.2H88Zm0,0" transform="translate(-59.4 -162)"/>
      <path id="Trazado_146977" data-name="Trazado 146977" d="M56,272h5.2v5.2H56Zm0,0" transform="translate(-37.8 -183.6)"/>
      <path id="Trazado_146978" data-name="Trazado 146978" d="M88,272h5.2v5.2H88Zm0,0" transform="translate(-59.4 -183.6)"/>
      <path id="Trazado_146979" data-name="Trazado 146979" d="M408,168h5.2v5.2H408Zm0,0" transform="translate(-275.4 -113.4)"/>
      <path id="Trazado_146980" data-name="Trazado 146980" d="M376,168h5.2v5.2H376Zm0,0" transform="translate(-253.8 -113.4)"/>
      <path id="Trazado_146981" data-name="Trazado 146981" d="M408,200h5.2v5.2H408Zm0,0" transform="translate(-275.4 -135)"/>
      <path id="Trazado_146982" data-name="Trazado 146982" d="M376,200h5.2v5.2H376Zm0,0" transform="translate(-253.8 -135)"/>
      <path id="Trazado_146983" data-name="Trazado 146983" d="M408,240h5.2v5.2H408Zm0,0" transform="translate(-275.4 -162)"/>
      <path id="Trazado_146984" data-name="Trazado 146984" d="M376,240h5.2v5.2H376Zm0,0" transform="translate(-253.8 -162)"/>
      <path id="Trazado_146985" data-name="Trazado 146985" d="M408,272h5.2v5.2H408Zm0,0" transform="translate(-275.4 -183.6)"/>
      <path id="Trazado_146986" data-name="Trazado 146986" d="M376,272h5.2v5.2H376Zm0,0" transform="translate(-253.8 -183.6)"/>
      <path id="Trazado_146987" data-name="Trazado 146987" d="M153.4,31.2h-39V15.6H117a2.6,2.6,0,0,0,2.6-2.6V2.6A2.6,2.6,0,0,0,117,0H39a2.6,2.6,0,0,0-2.6,2.6V13A2.6,2.6,0,0,0,39,15.6h2.6V31.2H2.6A2.6,2.6,0,0,0,0,33.8V44.2a2.6,2.6,0,0,0,2.6,2.6H5.2V130h5.2V109.2H41.6v10.4h5.2V15.6h62.4v104h5.2V109.2h31.2V130h5.2V46.8h2.6a2.6,2.6,0,0,0,2.6-2.6V33.8A2.6,2.6,0,0,0,153.4,31.2ZM5.2,36.4H41.6v5.2H5.2ZM10.4,104V46.8H41.6V104ZM44.2,10.4H41.6V5.2h72.8v5.2ZM114.4,104V46.8h31.2V104Zm36.4-62.4H114.4V36.4h36.4Zm0,0"/>
    </g>
    <path id="Trazado_151112" data-name="Trazado 151112" d="M42.7,18.775A12.577,12.577,0,0,1,41.54,24.3,8.553,8.553,0,0,1,38.251,28a9.157,9.157,0,0,1-4.856,1.3,9.286,9.286,0,0,1-4.834-1.252,8.538,8.538,0,0,1-3.289-3.582,12.215,12.215,0,0,1-1.238-5.347v-1.2a12.633,12.633,0,0,1,1.15-5.53,8.532,8.532,0,0,1,3.3-3.7A9.757,9.757,0,0,1,38.2,8.668a8.685,8.685,0,0,1,3.3,3.669A12.27,12.27,0,0,1,42.7,17.794Zm-5.229-.894a8.969,8.969,0,0,0-1.062-4.827,3.406,3.406,0,0,0-3.04-1.648q-3.867,0-4.087,5.8l-.015,1.567a9.224,9.224,0,0,0,1.04,4.819A3.4,3.4,0,0,0,33.4,25.279a3.36,3.36,0,0,0,3-1.655,8.972,8.972,0,0,0,1.069-4.761Zm-3.5-15.923h5.215l-4.072,4.6-4.028-.007ZM54.708,17.618,53.083,17.5q-2.329,0-2.988,1.465V29H45.158V13.15h4.629l.161,2.036a3.823,3.823,0,0,1,3.472-2.329,4.814,4.814,0,0,1,1.377.176Zm.923,3.34a10.7,10.7,0,0,1,.791-4.248,6.368,6.368,0,0,1,2.271-2.849,5.985,5.985,0,0,1,3.442-1A4.759,4.759,0,0,1,66,14.527l.176-1.377h4.482V28.4a6.682,6.682,0,0,1-.974,3.64,6.251,6.251,0,0,1-2.82,2.373,10.365,10.365,0,0,1-4.277.828,8.942,8.942,0,0,1-3.376-.659,6.1,6.1,0,0,1-2.5-1.714l2.065-2.9a4.527,4.527,0,0,0,3.633,1.626q3.281,0,3.281-3.369v-.5a4.636,4.636,0,0,1-3.589,1.567,5.728,5.728,0,0,1-4.687-2.219,9.2,9.2,0,0,1-1.787-5.94Zm4.951.308a5.638,5.638,0,0,0,.732,3.083,2.311,2.311,0,0,0,2.051,1.135,2.622,2.622,0,0,0,2.329-1.069V17.75a2.556,2.556,0,0,0-2.3-1.084,2.326,2.326,0,0,0-2.065,1.179A6.43,6.43,0,0,0,60.583,21.266ZM82.394,29a5.574,5.574,0,0,1-.469-1.421,4.59,4.59,0,0,1-3.809,1.714,5.623,5.623,0,0,1-3.809-1.355,4.313,4.313,0,0,1-1.567-3.406,4.433,4.433,0,0,1,1.9-3.9,9.7,9.7,0,0,1,5.537-1.318h1.523v-.839q0-2.193-1.89-2.193a1.545,1.545,0,0,0-1.758,1.737H73.122a4.425,4.425,0,0,1,1.956-3.731,8.218,8.218,0,0,1,4.988-1.434,7.205,7.205,0,0,1,4.79,1.479,5.144,5.144,0,0,1,1.8,4.058v7.017a7.186,7.186,0,0,0,.674,3.34V29ZM79.3,25.777a2.754,2.754,0,0,0,1.531-.4,2.479,2.479,0,0,0,.872-.894V21.954H80.27q-2.578,0-2.578,2.314a1.413,1.413,0,0,0,.454,1.091A1.643,1.643,0,0,0,79.3,25.777ZM93.922,13.15l.161,1.86a5.375,5.375,0,0,1,4.526-2.153,4.522,4.522,0,0,1,3.7,1.479,7.044,7.044,0,0,1,1.267,4.453V29H98.625V19a2.675,2.675,0,0,0-.483-1.765,2.236,2.236,0,0,0-1.758-.564,2.354,2.354,0,0,0-2.153,1.143V29H89.293V13.15Zm11.763,7.778a9.355,9.355,0,0,1,.923-4.226,6.6,6.6,0,0,1,2.651-2.849,7.985,7.985,0,0,1,4.058-1,7.288,7.288,0,0,1,5.61,2.2,8.46,8.46,0,0,1,2.051,6v.176a8.208,8.208,0,0,1-2.058,5.881,7.307,7.307,0,0,1-5.574,2.175,7.39,7.39,0,0,1-5.435-2.029,7.935,7.935,0,0,1-2.212-5.5Zm4.937.308a5.9,5.9,0,0,0,.688,3.223,2.294,2.294,0,0,0,2.036,1.025q2.637,0,2.7-4.058v-.5q0-4.263-2.725-4.263-2.476,0-2.681,3.677Zm20.83,3.311a1.14,1.14,0,0,0-.659-1.011,10.027,10.027,0,0,0-2.5-.791,11.422,11.422,0,0,1-3.047-1.077,5.1,5.1,0,0,1-1.831-1.619,3.865,3.865,0,0,1-.63-2.183,4.381,4.381,0,0,1,1.8-3.6,7.422,7.422,0,0,1,4.717-1.414,8.223,8.223,0,0,1,5.039,1.421,4.443,4.443,0,0,1,1.9,3.735h-4.951q0-1.9-2.007-1.9a1.989,1.989,0,0,0-1.3.432,1.338,1.338,0,0,0-.527,1.077,1.228,1.228,0,0,0,.645,1.069,6.09,6.09,0,0,0,2.058.674,17.785,17.785,0,0,1,2.483.63q3.574,1.23,3.574,4.409a4.151,4.151,0,0,1-1.926,3.53,8.447,8.447,0,0,1-4.988,1.362,8.62,8.62,0,0,1-3.633-.732,6.075,6.075,0,0,1-2.49-1.992,4.511,4.511,0,0,1-.894-2.651H126.9a1.908,1.908,0,0,0,.732,1.6,3.013,3.013,0,0,0,1.8.505,2.37,2.37,0,0,0,1.516-.41A1.312,1.312,0,0,0,131.452,24.547Zm13.916-3.589a9.682,9.682,0,0,1,1.626-5.933,5.352,5.352,0,0,1,4.541-2.168,4.552,4.552,0,0,1,3.574,1.67V6.5h4.951V29h-4.438l-.249-1.7a4.674,4.674,0,0,1-3.867,1.992,5.342,5.342,0,0,1-4.482-2.168A9.989,9.989,0,0,1,145.368,20.958Zm4.937.308q0,4.219,2.461,4.219a2.43,2.43,0,0,0,2.344-1.377V18.072a2.365,2.365,0,0,0-2.314-1.406q-2.285,0-2.476,3.691Zm20.229,8.027a8.148,8.148,0,0,1-5.9-2.175,7.512,7.512,0,0,1-2.256-5.662v-.41a9.734,9.734,0,0,1,.9-4.292,6.592,6.592,0,0,1,2.629-2.878,7.938,7.938,0,0,1,4.1-1.018,6.861,6.861,0,0,1,5.273,2.073,8.145,8.145,0,0,1,1.934,5.779v1.919H167.4a3.558,3.558,0,0,0,1.157,2.095,3.443,3.443,0,0,0,2.314.762,4.437,4.437,0,0,0,3.662-1.641l2.256,2.666a6.306,6.306,0,0,1-2.615,2.029A8.836,8.836,0,0,1,170.534,29.293Zm-.557-12.627q-2.168,0-2.578,2.871h4.98v-.381a2.445,2.445,0,0,0-.6-1.838A2.39,2.39,0,0,0,169.977,16.666ZM195.6,29a5.574,5.574,0,0,1-.469-1.421,4.59,4.59,0,0,1-3.809,1.714,5.623,5.623,0,0,1-3.809-1.355,4.313,4.313,0,0,1-1.567-3.406,4.433,4.433,0,0,1,1.9-3.9,9.7,9.7,0,0,1,5.537-1.318h1.523v-.839q0-2.193-1.89-2.193a1.545,1.545,0,0,0-1.758,1.737h-4.937a4.425,4.425,0,0,1,1.956-3.731,8.218,8.218,0,0,1,4.988-1.434,7.205,7.205,0,0,1,4.79,1.479,5.144,5.144,0,0,1,1.8,4.058v7.017a7.186,7.186,0,0,0,.674,3.34V29Zm-3.091-3.223a2.754,2.754,0,0,0,1.531-.4,2.479,2.479,0,0,0,.872-.894V21.954h-1.436q-2.578,0-2.578,2.314a1.413,1.413,0,0,0,.454,1.091A1.643,1.643,0,0,0,192.506,25.777Zm18.384-1.23a1.14,1.14,0,0,0-.659-1.011,10.027,10.027,0,0,0-2.5-.791,11.422,11.422,0,0,1-3.047-1.077,5.1,5.1,0,0,1-1.831-1.619,3.865,3.865,0,0,1-.63-2.183,4.381,4.381,0,0,1,1.8-3.6,7.422,7.422,0,0,1,4.717-1.414,8.223,8.223,0,0,1,5.039,1.421,4.443,4.443,0,0,1,1.9,3.735h-4.951q0-1.9-2.007-1.9a1.989,1.989,0,0,0-1.3.432,1.338,1.338,0,0,0-.527,1.077,1.228,1.228,0,0,0,.645,1.069,6.09,6.09,0,0,0,2.058.674,17.785,17.785,0,0,1,2.483.63q3.574,1.23,3.574,4.409a4.151,4.151,0,0,1-1.926,3.53,8.447,8.447,0,0,1-4.988,1.362,8.62,8.62,0,0,1-3.633-.732,6.075,6.075,0,0,1-2.49-1.992,4.511,4.511,0,0,1-.894-2.651h4.614a1.908,1.908,0,0,0,.732,1.6,3.013,3.013,0,0,0,1.8.505,2.37,2.37,0,0,0,1.516-.41A1.312,1.312,0,0,0,210.89,24.547Zm14.736,4.746a8.148,8.148,0,0,1-5.9-2.175,7.512,7.512,0,0,1-2.256-5.662v-.41a9.734,9.734,0,0,1,.9-4.292A6.592,6.592,0,0,1,221,13.875a7.938,7.938,0,0,1,4.1-1.018,6.861,6.861,0,0,1,5.273,2.073,8.145,8.145,0,0,1,1.934,5.779v1.919h-9.814a3.558,3.558,0,0,0,1.157,2.095,3.443,3.443,0,0,0,2.314.762,4.437,4.437,0,0,0,3.662-1.641l2.256,2.666a6.306,6.306,0,0,1-2.615,2.029A8.836,8.836,0,0,1,225.626,29.293Zm-.557-12.627q-2.168,0-2.578,2.871h4.98v-.381a2.445,2.445,0,0,0-.6-1.838A2.39,2.39,0,0,0,225.07,16.666Zm17.52,7.881a1.14,1.14,0,0,0-.659-1.011,10.027,10.027,0,0,0-2.5-.791,11.422,11.422,0,0,1-3.047-1.077,5.1,5.1,0,0,1-1.831-1.619,3.865,3.865,0,0,1-.63-2.183,4.381,4.381,0,0,1,1.8-3.6,7.422,7.422,0,0,1,4.717-1.414,8.223,8.223,0,0,1,5.039,1.421,4.443,4.443,0,0,1,1.9,3.735h-4.951q0-1.9-2.007-1.9a1.989,1.989,0,0,0-1.3.432,1.338,1.338,0,0,0-.527,1.077,1.228,1.228,0,0,0,.645,1.069,6.09,6.09,0,0,0,2.058.674,17.785,17.785,0,0,1,2.483.63q3.574,1.23,3.574,4.409a4.151,4.151,0,0,1-1.926,3.53,8.447,8.447,0,0,1-4.988,1.362,8.62,8.62,0,0,1-3.633-.732,6.075,6.075,0,0,1-2.49-1.992,4.511,4.511,0,0,1-.894-2.651h4.614a1.908,1.908,0,0,0,.732,1.6,3.013,3.013,0,0,0,1.8.505,2.37,2.37,0,0,0,1.516-.41A1.312,1.312,0,0,0,242.589,24.547Zm6.445-3.618a9.355,9.355,0,0,1,.923-4.226,6.6,6.6,0,0,1,2.651-2.849,7.985,7.985,0,0,1,4.058-1,7.288,7.288,0,0,1,5.61,2.2,8.46,8.46,0,0,1,2.051,6v.176a8.208,8.208,0,0,1-2.058,5.881,7.307,7.307,0,0,1-5.574,2.175,7.39,7.39,0,0,1-5.435-2.029,7.935,7.935,0,0,1-2.212-5.5Zm4.937.308a5.9,5.9,0,0,0,.688,3.223,2.294,2.294,0,0,0,2.036,1.025q2.637,0,2.7-4.058v-.5q0-4.263-2.725-4.263-2.476,0-2.681,3.677Zm22.119-3.618-1.626-.117q-2.329,0-2.988,1.465V29H266.54V13.15h4.629l.161,2.036a3.823,3.823,0,0,1,3.472-2.329,4.814,4.814,0,0,1,1.377.176ZM283.253,29h-4.966V13.15h4.966ZM281.408,6.793h5.215l-4.072,4.6-4.028-.007ZM295.353,29a5.574,5.574,0,0,1-.469-1.421,4.59,4.59,0,0,1-3.809,1.714,5.623,5.623,0,0,1-3.809-1.355,4.313,4.313,0,0,1-1.567-3.406,4.433,4.433,0,0,1,1.9-3.9,9.7,9.7,0,0,1,5.537-1.318h1.523v-.839q0-2.193-1.89-2.193a1.545,1.545,0,0,0-1.758,1.737h-4.937a4.425,4.425,0,0,1,1.956-3.731,8.218,8.218,0,0,1,4.988-1.434,7.205,7.205,0,0,1,4.79,1.479,5.144,5.144,0,0,1,1.8,4.058v7.017a7.186,7.186,0,0,0,.674,3.34V29Zm-3.091-3.223a2.754,2.754,0,0,0,1.531-.4,2.479,2.479,0,0,0,.872-.894V21.954h-1.436q-2.578,0-2.578,2.314a1.413,1.413,0,0,0,.454,1.091A1.643,1.643,0,0,0,292.262,25.777Zm23.892-3.691,2.637-8.936h5.288l-6.46,18.5-.278.674a4.907,4.907,0,0,1-4.863,3.076,7.737,7.737,0,0,1-2.036-.292V31.593h.645a3.376,3.376,0,0,0,1.589-.3,1.824,1.824,0,0,0,.813-1.078l.4-1.055L308.375,13.15h5.273ZM31,59.484a2.2,2.2,0,0,0,1.611-.564,2.068,2.068,0,0,0,.557-1.575H37.8a5.48,5.48,0,0,1-1.868,4.277,6.947,6.947,0,0,1-4.812,1.67,7.034,7.034,0,0,1-5.449-2.168,8.542,8.542,0,0,1-1.992-6.006v-.205a9.654,9.654,0,0,1,.886-4.241,6.453,6.453,0,0,1,2.556-2.827,7.622,7.622,0,0,1,3.955-.989,6.86,6.86,0,0,1,4.907,1.714A6.079,6.079,0,0,1,37.8,53.215H33.168a2.71,2.71,0,0,0-.6-1.89,2.073,2.073,0,0,0-1.611-.659q-1.919,0-2.241,2.446a17.262,17.262,0,0,0-.1,2.139,6.78,6.78,0,0,0,.571,3.311A1.978,1.978,0,0,0,31,59.484Zm8.262-4.556a9.355,9.355,0,0,1,.923-4.226,6.6,6.6,0,0,1,2.651-2.849,7.985,7.985,0,0,1,4.058-1,7.288,7.288,0,0,1,5.61,2.2,8.46,8.46,0,0,1,2.051,6v.176A8.208,8.208,0,0,1,52.5,61.118a7.307,7.307,0,0,1-5.574,2.175,7.39,7.39,0,0,1-5.435-2.029,7.935,7.935,0,0,1-2.212-5.5Zm4.937.308a5.9,5.9,0,0,0,.688,3.223,2.294,2.294,0,0,0,2.036,1.025q2.637,0,2.7-4.058v-.5q0-4.263-2.725-4.263-2.476,0-2.681,3.677Zm11.909-.308A9.355,9.355,0,0,1,57.03,50.7a6.6,6.6,0,0,1,2.651-2.849,7.985,7.985,0,0,1,4.058-1,7.288,7.288,0,0,1,5.61,2.2,8.46,8.46,0,0,1,2.051,6v.176a8.208,8.208,0,0,1-2.058,5.881,7.307,7.307,0,0,1-5.574,2.175,7.39,7.39,0,0,1-5.435-2.029,7.935,7.935,0,0,1-2.212-5.5Zm4.937.308a5.9,5.9,0,0,0,.688,3.223,2.294,2.294,0,0,0,2.036,1.025q2.637,0,2.7-4.058v-.5q0-4.263-2.725-4.263-2.476,0-2.681,3.677Zm22.119-3.618L81.537,51.5q-2.329,0-2.988,1.465V63H73.612V47.15h4.629l.161,2.036a3.823,3.823,0,0,1,3.472-2.329,4.814,4.814,0,0,1,1.377.176Zm.879,3.34a9.682,9.682,0,0,1,1.626-5.933,5.352,5.352,0,0,1,4.541-2.168,4.552,4.552,0,0,1,3.574,1.67V40.5h4.951V63H94.3l-.249-1.7a4.674,4.674,0,0,1-3.867,1.992A5.342,5.342,0,0,1,85.7,61.125,9.989,9.989,0,0,1,84.042,54.958Zm4.937.308q0,4.219,2.461,4.219a2.43,2.43,0,0,0,2.344-1.377V52.072a2.365,2.365,0,0,0-2.314-1.406q-2.285,0-2.476,3.691ZM106.747,63H101.8V47.15h4.951ZM101.5,43.049a2.223,2.223,0,0,1,.762-1.739,3.223,3.223,0,0,1,3.955,0,2.366,2.366,0,0,1,0,3.478,3.223,3.223,0,0,1-3.955,0A2.223,2.223,0,0,1,101.5,43.049Zm12.817,4.1.161,1.86a5.375,5.375,0,0,1,4.526-2.153,4.522,4.522,0,0,1,3.7,1.479,7.044,7.044,0,0,1,1.267,4.453V63h-4.951V53a2.675,2.675,0,0,0-.483-1.765,2.236,2.236,0,0,0-1.758-.564,2.354,2.354,0,0,0-2.153,1.143V63h-4.937V47.15ZM135.634,63a5.574,5.574,0,0,1-.469-1.421,4.59,4.59,0,0,1-3.809,1.714,5.623,5.623,0,0,1-3.809-1.355,4.313,4.313,0,0,1-1.567-3.406,4.433,4.433,0,0,1,1.9-3.9,9.7,9.7,0,0,1,5.537-1.318h1.523v-.839q0-2.193-1.89-2.193a1.545,1.545,0,0,0-1.758,1.737h-4.937a4.425,4.425,0,0,1,1.956-3.731,8.218,8.218,0,0,1,4.988-1.434,7.205,7.205,0,0,1,4.79,1.479,5.144,5.144,0,0,1,1.8,4.058v7.017a7.186,7.186,0,0,0,.674,3.34V63Zm-3.091-3.223a2.754,2.754,0,0,0,1.531-.4,2.479,2.479,0,0,0,.872-.894V55.954H133.51q-2.578,0-2.578,2.314a1.413,1.413,0,0,0,.454,1.091A1.643,1.643,0,0,0,132.543,59.777Zm16.787-.293a2.2,2.2,0,0,0,1.611-.564,2.068,2.068,0,0,0,.557-1.575h4.629a5.48,5.48,0,0,1-1.868,4.277,6.947,6.947,0,0,1-4.812,1.67A7.034,7.034,0,0,1,144,61.125a8.542,8.542,0,0,1-1.992-6.006v-.205a9.654,9.654,0,0,1,.886-4.241,6.453,6.453,0,0,1,2.556-2.827,7.622,7.622,0,0,1,3.955-.989,6.86,6.86,0,0,1,4.907,1.714,6.079,6.079,0,0,1,1.816,4.644H151.5a2.71,2.71,0,0,0-.6-1.89,2.073,2.073,0,0,0-1.611-.659q-1.919,0-2.241,2.446a17.262,17.262,0,0,0-.1,2.139,6.78,6.78,0,0,0,.571,3.311A1.978,1.978,0,0,0,149.33,59.484ZM163.422,63h-4.951V47.15h4.951Zm-5.244-19.951a2.223,2.223,0,0,1,.762-1.739,3.223,3.223,0,0,1,3.955,0,2.366,2.366,0,0,1,0,3.478,3.223,3.223,0,0,1-3.955,0A2.223,2.223,0,0,1,158.178,43.049Zm7.661,11.88a9.355,9.355,0,0,1,.923-4.226,6.6,6.6,0,0,1,2.651-2.849,7.985,7.985,0,0,1,4.058-1,7.288,7.288,0,0,1,5.61,2.2,8.46,8.46,0,0,1,2.051,6v.176a8.208,8.208,0,0,1-2.058,5.881,7.307,7.307,0,0,1-5.574,2.175,7.39,7.39,0,0,1-5.435-2.029,7.935,7.935,0,0,1-2.212-5.5Zm4.937.308a5.9,5.9,0,0,0,.688,3.223,2.294,2.294,0,0,0,2.036,1.025q2.637,0,2.7-4.058v-.5q0-4.263-2.725-4.263-2.476,0-2.681,3.677ZM174.145,40.5h5.215l-4.072,4.6-4.028-.007Zm13.7,6.65.161,1.86a5.375,5.375,0,0,1,4.526-2.153,4.522,4.522,0,0,1,3.7,1.479,7.044,7.044,0,0,1,1.267,4.453V63h-4.951V53a2.675,2.675,0,0,0-.483-1.765,2.236,2.236,0,0,0-1.758-.564,2.354,2.354,0,0,0-2.153,1.143V63h-4.937V47.15ZM216,58.547a1.14,1.14,0,0,0-.659-1.011,10.027,10.027,0,0,0-2.5-.791,11.422,11.422,0,0,1-3.047-1.077,5.1,5.1,0,0,1-1.831-1.619,3.865,3.865,0,0,1-.63-2.183,4.381,4.381,0,0,1,1.8-3.6,7.422,7.422,0,0,1,4.717-1.414,8.223,8.223,0,0,1,5.039,1.421,4.443,4.443,0,0,1,1.9,3.735h-4.951q0-1.9-2.007-1.9a1.989,1.989,0,0,0-1.3.432A1.338,1.338,0,0,0,212,51.618a1.228,1.228,0,0,0,.645,1.069,6.09,6.09,0,0,0,2.058.674,17.785,17.785,0,0,1,2.483.63q3.574,1.23,3.574,4.409a4.151,4.151,0,0,1-1.926,3.53,8.447,8.447,0,0,1-4.988,1.362,8.62,8.62,0,0,1-3.633-.732,6.075,6.075,0,0,1-2.49-1.992,4.511,4.511,0,0,1-.894-2.651h4.614a1.908,1.908,0,0,0,.732,1.6,3.013,3.013,0,0,0,1.8.505,2.37,2.37,0,0,0,1.516-.41A1.312,1.312,0,0,0,216,58.547Zm14.736,4.746a8.148,8.148,0,0,1-5.9-2.175,7.512,7.512,0,0,1-2.256-5.662v-.41a9.734,9.734,0,0,1,.9-4.292,6.592,6.592,0,0,1,2.629-2.878,7.938,7.938,0,0,1,4.1-1.018,6.861,6.861,0,0,1,5.273,2.073,8.145,8.145,0,0,1,1.934,5.779v1.919H227.6a3.558,3.558,0,0,0,1.157,2.095,3.443,3.443,0,0,0,2.314.762,4.437,4.437,0,0,0,3.662-1.641l2.256,2.666a6.306,6.306,0,0,1-2.615,2.029A8.836,8.836,0,0,1,230.731,63.293Zm-.557-12.627q-2.168,0-2.578,2.871h4.98v-.381a2.445,2.445,0,0,0-.6-1.838A2.39,2.39,0,0,0,230.175,50.666ZM246.1,59.484a2.2,2.2,0,0,0,1.611-.564,2.068,2.068,0,0,0,.557-1.575h4.629a5.48,5.48,0,0,1-1.868,4.277,6.947,6.947,0,0,1-4.812,1.67,7.034,7.034,0,0,1-5.449-2.168,8.542,8.542,0,0,1-1.992-6.006v-.205a9.654,9.654,0,0,1,.886-4.241,6.453,6.453,0,0,1,2.556-2.827,7.622,7.622,0,0,1,3.955-.989,6.86,6.86,0,0,1,4.907,1.714,6.079,6.079,0,0,1,1.816,4.644h-4.629a2.71,2.71,0,0,0-.6-1.89,2.073,2.073,0,0,0-1.611-.659q-1.919,0-2.241,2.446a17.262,17.262,0,0,0-.1,2.139,6.78,6.78,0,0,0,.571,3.311A1.978,1.978,0,0,0,246.1,59.484ZM260.731,43.21v3.94h2.607v3.428h-2.607v7.251a1.851,1.851,0,0,0,.322,1.245,1.729,1.729,0,0,0,1.274.352,7.242,7.242,0,0,0,1.23-.088v3.53a9.11,9.11,0,0,1-2.783.425,5.171,5.171,0,0,1-3.765-1.2,4.923,4.923,0,0,1-1.216-3.647V50.578h-2.021V47.15h2.021V43.21Zm3.486,11.719a9.355,9.355,0,0,1,.923-4.226,6.6,6.6,0,0,1,2.651-2.849,7.985,7.985,0,0,1,4.058-1,7.288,7.288,0,0,1,5.61,2.2,8.46,8.46,0,0,1,2.051,6v.176a8.208,8.208,0,0,1-2.058,5.881,7.307,7.307,0,0,1-5.574,2.175,7.39,7.39,0,0,1-5.435-2.029,7.935,7.935,0,0,1-2.212-5.5Zm4.937.308a5.9,5.9,0,0,0,.688,3.223,2.294,2.294,0,0,0,2.036,1.025q2.637,0,2.7-4.058v-.5q0-4.263-2.725-4.263-2.476,0-2.681,3.677Zm22.119-3.618-1.626-.117q-2.329,0-2.988,1.465V63h-4.937V47.15h4.629l.161,2.036a3.823,3.823,0,0,1,3.472-2.329,4.814,4.814,0,0,1,1.377.176ZM298.261,63H293.31V47.15h4.951Zm-5.244-19.951a2.223,2.223,0,0,1,.762-1.739,3.223,3.223,0,0,1,3.955,0,2.366,2.366,0,0,1,0,3.478,3.223,3.223,0,0,1-3.955,0A2.223,2.223,0,0,1,293.017,43.049ZM310.229,63a5.574,5.574,0,0,1-.469-1.421,4.59,4.59,0,0,1-3.809,1.714,5.623,5.623,0,0,1-3.809-1.355,4.313,4.313,0,0,1-1.567-3.406,4.433,4.433,0,0,1,1.9-3.9,9.7,9.7,0,0,1,5.537-1.318h1.523v-.839q0-2.193-1.89-2.193a1.545,1.545,0,0,0-1.758,1.737h-4.937a4.425,4.425,0,0,1,1.956-3.731,8.218,8.218,0,0,1,4.988-1.434,7.205,7.205,0,0,1,4.79,1.479,5.144,5.144,0,0,1,1.8,4.058v7.017a7.186,7.186,0,0,0,.674,3.34V63Zm-3.091-3.223a2.754,2.754,0,0,0,1.531-.4,2.479,2.479,0,0,0,.872-.894V55.954H308.1q-2.578,0-2.578,2.314a1.413,1.413,0,0,0,.454,1.091A1.643,1.643,0,0,0,307.138,59.777ZM322.431,63h-4.951V40.5h4.951Z" transform="translate(311.5 1216.291)" fill="#12263f"/>
  </g>
</svg>
